<svg width="85" height="70" viewBox="0 0 85 70" fill="none" xmlns="http://www.w3.org/2000/svg">
<path fill-rule="evenodd" clip-rule="evenodd" d="M83.8226 29.5437C84.2881 29.6418 84.6594 29.9966 84.7773 30.4589C84.896 30.9202 84.7405 31.4099 84.3767 31.7212L80.3913 35.1291V41.857L80.9115 41.9655C81.378 42.0636 81.7484 42.4183 81.8671 42.8806C81.9849 43.342 81.8304 43.8317 81.4675 44.1421L52.3482 69.0441C52.1202 69.2385 51.8318 69.3432 51.5378 69.3432C51.4529 69.3432 51.3662 69.3347 51.2814 69.3168L49.6991 68.9847C49.6969 68.9842 49.6946 68.9836 49.6923 68.9829L49.6921 68.9828L49.6896 68.9821L49.685 68.9809L5.37888 59.6736C5.20171 59.633 4.9925 59.5226 4.88789 59.4509C4.76632 59.3669 1.99188 57.23 1.94476 52.5343C1.90047 48.2169 4.16035 46.6583 4.78234 46.3111L6.27982 45.2667C5.57207 44.1355 4.87941 42.4391 4.85585 40.1125C4.84171 38.768 5.05469 37.6981 5.36851 36.8443L3.43565 36.4386C3.42219 36.4355 3.40914 36.4309 3.39597 36.4262C3.38884 36.4237 3.38167 36.4211 3.37439 36.4188C3.33764 36.4094 3.30182 36.3999 3.26601 36.3867C3.23397 36.3754 3.20476 36.3631 3.17554 36.349C3.14256 36.3339 3.11052 36.3188 3.07942 36.3009C3.0502 36.2839 3.02193 36.2659 2.99366 36.2461C2.98641 36.2413 2.979 36.2372 2.97163 36.233C2.96174 36.2275 2.95195 36.222 2.94277 36.215C2.82403 36.1263 0.0486506 33.9941 0.000588019 29.2984C-0.0418201 24.9744 2.22183 23.4187 2.84005 23.0752L35.5669 0.225219C35.8392 0.0346369 36.1757 -0.0398976 36.5036 0.0204848L71.4491 6.33339L42.5608 9.55487L46.8314 11.091L74.421 8.01437L78.9999 9.26317V17.532L50.4999 41.3599V34.1648L44.7775 33.1244L40.1571 18.063L37.8056 17.2172L42.8587 33.6891L4.77386 25.6887V34.1695L46.6637 42.9514V42.9353L46.8504 42.9825L46.8505 42.9825C47.6456 43.1835 48.4316 43.3821 49.1667 43.4667V43.4788L49.1792 43.4681C50.176 43.5811 51.0786 43.4829 51.7828 42.8942L80.9999 18.4668V17.9935L83.5926 18.4645C84.0676 18.5503 84.4512 18.9022 84.5775 19.3683C84.7037 19.8344 84.5501 20.3325 84.1826 20.6458L83.2524 21.4421V29.4248L83.8226 29.5437ZM6.71803 48.9217V57.396L48.6069 66.1977V57.7234L6.71803 48.9217ZM9.64891 37.7434V44.9846L51.5161 53.774V45.3026L51.0977 45.2148L50.405 45.8083C50.1769 46.0026 49.8876 46.1073 49.5936 46.1073C49.5088 46.1073 49.423 46.0988 49.3373 46.0809L47.755 45.7488C47.7526 45.7483 47.7505 45.7476 47.7484 45.7469L47.7465 45.7463C47.745 45.7458 47.7434 45.7454 47.7418 45.745L9.64891 37.7434ZM51.1193 66.726L77.8921 43.9081V37.2566L55.2565 56.6224C55.0284 56.8167 54.74 56.9214 54.4451 56.9214C54.3612 56.9214 54.2745 56.9129 54.1897 56.895L53.5649 56.7639L52.1522 57.9715C51.9241 58.1668 51.6358 58.2706 51.3417 58.2706C51.2645 58.2706 51.1872 58.2621 51.1109 58.247L51.1193 66.726ZM54.0295 54.3014L80.7984 31.491L80.8022 23.5375L55.0614 45.5507C54.8333 45.745 54.545 45.8498 54.25 45.8498C54.1737 45.8498 54.0973 45.8403 54.0201 45.8262L54.0295 54.3014ZM76.6402 12.7682C77.0645 12.4147 77.1218 11.7841 76.7682 11.3598C76.4147 10.9356 75.7841 10.8782 75.3598 11.2318L51.3598 31.2318C50.9356 31.5854 50.8782 32.2159 51.2318 32.6402C51.5854 33.0645 52.2159 33.1218 52.6402 32.7682L76.6402 12.7682ZM41.5 16L45.5 12L41.7884 10.5725C39.9737 9.87449 37.9879 9.75302 36.1017 10.2246C35.4542 10.3864 35 10.9682 35 11.6356V11.7934C35 12.8216 35.6332 13.7435 36.5928 14.1126L41.5 16Z" fill="white"/>
</svg>
