<svg width="61" height="49" viewBox="0 0 61 49" fill="none" xmlns="http://www.w3.org/2000/svg">
<path d="M60.0007 21.6798C59.9185 21.3572 59.6594 21.1097 59.3345 21.0412L58.9367 20.9583V15.3881L59.5857 14.8324C59.8422 14.6139 59.9494 14.2663 59.8612 13.9411C59.7731 13.6158 59.5055 13.3703 59.1741 13.3104L55.5277 12.6481L55.5291 7.9581L55.5277 7.86132L56.1991 7.28725C56.4549 7.06803 56.5628 6.72043 56.4747 6.39587C56.3865 6.06999 56.1189 5.82443 55.7875 5.76452L26.3164 0.440563C26.0875 0.39843 25.8528 0.450438 25.6627 0.583422L2.82669 16.5277C2.39531 16.7673 0.81579 17.8529 0.845381 20.87C0.878918 24.1466 2.81551 25.6344 2.89837 25.6963C2.90955 25.7049 2.92204 25.7101 2.93388 25.718C2.95361 25.7318 2.97333 25.7444 2.99372 25.7562C3.01542 25.7687 3.03778 25.7792 3.06079 25.7898C3.08118 25.7997 3.10156 25.8082 3.12392 25.8161C3.14891 25.8253 3.1739 25.8319 3.19954 25.8385C3.21401 25.8431 3.22782 25.849 3.24229 25.8523L4.591 26.1354C4.37202 26.7312 4.22341 27.4777 4.23327 28.4159C4.24971 30.0393 4.73304 31.223 5.22689 32.0124L4.18198 32.7411C3.74797 32.9834 2.17108 34.071 2.20198 37.0835C2.23486 40.3601 4.1708 41.8512 4.25563 41.9098C4.32862 41.9598 4.47461 42.0368 4.59823 42.0651L35.5141 48.5596C35.5173 48.5603 35.5206 48.5616 35.5239 48.5623L36.628 48.794C36.6872 48.8065 36.7477 48.8124 36.8069 48.8124C37.012 48.8124 37.2133 48.7394 37.3724 48.6037L57.6912 31.2276C57.9444 31.011 58.0522 30.6694 57.97 30.3474C57.8872 30.0248 57.6287 29.7773 57.3032 29.7088L56.9402 29.6331V24.9385L59.7212 22.5606C59.975 22.3434 60.0835 22.0017 60.0007 21.6798ZM35.3135 24.8734C35.5193 24.8734 35.7205 24.8003 35.8797 24.664L53.795 9.34389V14.891L35.1524 30.7648V24.8563C35.207 24.8661 35.2602 24.8734 35.3135 24.8734ZM4.17606 18.3512L33.4058 24.4915V30.3968L4.17606 24.269V18.3512ZM5.53267 40.4759V34.5628L34.7618 40.7044V46.6175L5.53267 40.4759ZM7.57776 31.8155V26.7628L34.1581 32.3461C34.1614 32.3468 34.164 32.3481 34.1673 32.3488L35.2714 32.5805C35.3313 32.593 35.3911 32.5989 35.4503 32.5989C35.6554 32.5989 35.8573 32.5259 36.0165 32.3902L36.4998 31.9762L36.7918 32.0374V37.9486L7.57776 31.8155ZM55.1963 31.0644L36.5149 46.9862L36.509 41.0697C36.5623 41.0803 36.6162 41.0862 36.6701 41.0862C36.8753 41.0862 37.0765 41.0138 37.2356 40.8775L38.2213 40.0348L38.6573 40.1264C38.7165 40.1389 38.777 40.1448 38.8355 40.1448C39.0414 40.1448 39.2426 40.0717 39.4017 39.9361L55.1963 26.4231V31.0644ZM57.2243 22.4L38.5455 38.3166L38.539 32.4028C38.5929 32.4126 38.6461 32.4192 38.6994 32.4192C38.9052 32.4192 39.1065 32.3461 39.2656 32.2105L57.2269 16.8502L57.2243 22.4Z" fill="white"/>
</svg>
