<svg width="28" height="28" viewBox="0 0 28 28" fill="none" xmlns="http://www.w3.org/2000/svg">
<rect x="0.430618" y="0.755371" width="27.0843" height="27.0843" rx="2.72761" fill="#1A1A1A"/>
<path fill-rule="evenodd" clip-rule="evenodd" d="M14.5799 16.8307C15.1416 17.2813 15.8373 17.532 16.5572 17.5434C17.2771 17.5548 17.9804 17.3263 18.5561 16.8938C19.1318 16.4613 19.5471 15.8495 19.7366 15.1549C19.9261 14.4602 19.879 13.7223 19.6027 13.0573C19.3717 12.499 18.9892 12.0162 18.4985 11.6636C18.9169 11.3633 19.2579 10.9677 19.493 10.5095C19.7282 10.0512 19.8509 9.5436 19.8508 9.02855C19.8508 8.16841 19.5092 7.3435 18.901 6.7353C18.2927 6.12709 17.4678 5.7854 16.6077 5.7854H11.3376C10.651 5.7852 9.98201 6.00292 9.42705 6.40721C8.87208 6.8115 8.45974 7.38149 8.24941 8.03509C8.03909 8.6887 8.04163 9.3922 8.25667 10.0443C8.47171 10.6963 8.88815 11.2633 9.44602 11.6636C9.02753 11.9639 8.68658 12.3595 8.45138 12.8177C8.21618 13.2759 8.09351 13.7836 8.09351 14.2987C8.09351 14.8137 8.21618 15.3214 8.45138 15.7796C8.68658 16.2378 9.02753 16.6335 9.44602 16.9337C8.99453 17.2577 8.63385 17.6923 8.39859 18.1957C8.16334 18.6992 8.06139 19.2546 8.10253 19.8088C8.14368 20.363 8.32653 20.8973 8.63355 21.3605C8.94058 21.8237 9.36147 22.2002 9.85586 22.454C10.3502 22.7077 10.9015 22.8302 11.4569 22.8096C12.0122 22.789 12.5529 22.6261 13.0272 22.3365C13.5014 22.0468 13.8933 21.6402 14.1652 21.1555C14.4371 20.6709 14.5799 20.1245 14.5799 19.5688V16.8307ZM11.3368 7.00158C10.7992 7.00158 10.2836 7.21514 9.9035 7.59527C9.52337 7.9754 9.30981 8.49096 9.30981 9.02855C9.30981 9.56613 9.52337 10.0817 9.9035 10.4618C10.2836 10.842 10.7992 11.0555 11.3368 11.0555H13.3637V7.00158H11.3368ZM13.3637 17.5418H11.3368C10.9359 17.5418 10.544 17.6607 10.2107 17.8834C9.87732 18.1061 9.61752 18.4227 9.46411 18.7931C9.31069 19.1635 9.27055 19.571 9.34876 19.9642C9.42697 20.3574 9.62002 20.7186 9.9035 21.0021C10.187 21.2855 10.5481 21.4786 10.9413 21.5568C11.3345 21.635 11.7421 21.5949 12.1125 21.4414C12.4828 21.288 12.7994 21.0282 13.0221 20.6949C13.2449 20.3616 13.3637 19.9697 13.3637 19.5688V17.5418ZM11.3368 12.2717C10.7992 12.2717 10.2836 12.4852 9.9035 12.8654C9.52337 13.2455 9.30981 13.7611 9.30981 14.2987C9.30981 14.8362 9.52337 15.3518 9.9035 15.7319C10.2836 16.1121 10.7992 16.3256 11.3368 16.3256H13.3637V12.2717H11.3368ZM14.5799 14.2987C14.5799 14.8364 14.7935 15.352 15.1737 15.7322C15.5539 16.1124 16.0696 16.326 16.6073 16.326C17.145 16.326 17.6607 16.1124 18.0409 15.7322C18.4211 15.352 18.6347 14.8364 18.6347 14.2987C18.6347 13.761 18.4211 13.2453 18.0409 12.8651C17.6607 12.4849 17.145 12.2713 16.6073 12.2713C16.0696 12.2713 15.5539 12.4849 15.1737 12.8651C14.7935 13.2453 14.5799 13.761 14.5799 14.2987ZM16.6069 11.0555C17.1445 11.0555 17.66 10.842 18.0402 10.4618C18.4203 10.0817 18.6339 9.56613 18.6339 9.02855C18.6339 8.49096 18.4203 7.9754 18.0402 7.59527C17.66 7.21514 17.1445 7.00158 16.6069 7.00158H14.5799V11.0555H16.6069Z" fill="#FFFAF6"/>
</svg>
