<svg width="569" height="68" viewBox="0 0 569 68" fill="none" xmlns="http://www.w3.org/2000/svg">
<g clip-path="url(#clip0_96_403)">
<path fill-rule="evenodd" clip-rule="evenodd" d="M151.999 30.886H163.017V29.076C163.017 24.1969 161.081 20.2033 157.617 17.4524C154.178 14.7219 149.32 13.28 143.549 13.28C137.376 13.28 132.274 15.1831 128.711 18.6456C125.145 22.1106 123.217 27.0431 123.217 32.91C123.217 38.7769 125.145 43.7094 128.711 47.1745C132.274 50.6369 137.376 52.54 143.549 52.54C149.346 52.54 154.205 51.0986 157.638 48.367C161.096 45.6149 163.017 41.6207 163.017 36.744V34.934H151.999V36.744C151.999 38.9249 151.389 40.3343 150.213 41.2455C148.978 42.2027 146.928 42.764 143.711 42.764C139.813 42.764 137.427 42.0643 135.982 40.6417C134.54 39.2227 133.803 36.855 133.803 32.91C133.803 28.965 134.54 26.5973 135.982 25.1784C137.427 23.7558 139.813 23.056 143.711 23.056C146.928 23.056 148.978 23.6173 150.213 24.5745C151.389 25.4858 151.999 26.8952 151.999 29.076V30.886ZM143.549 51.54C154.757 51.54 161.917 46.0015 162.016 36.934C162.017 36.8709 162.017 36.8075 162.017 36.744V35.934H152.999V36.744C152.999 41.496 150.299 43.764 143.711 43.764C135.773 43.764 132.803 40.956 132.803 32.91C132.803 24.864 135.773 22.056 143.711 22.056C150.299 22.056 152.999 24.324 152.999 29.076V29.886H162.017V29.076C162.017 29.0125 162.017 28.9492 162.016 28.886C161.917 19.8186 154.703 14.28 143.549 14.28C131.615 14.28 124.217 21.624 124.217 32.91C124.217 44.196 131.615 51.54 143.549 51.54ZM433.371 29.698H422.353V28.266C422.353 26.41 421.769 25.2149 420.556 24.4169C419.248 23.5563 417.063 23.056 413.633 23.056C409.594 23.056 407.107 23.7579 405.601 25.1904C404.109 26.6101 403.347 28.9724 403.347 32.91C403.347 36.855 404.085 39.2227 405.526 40.6417C406.971 42.0643 409.357 42.764 413.255 42.764C417.428 42.764 419.905 42.4262 421.361 41.6579C422.047 41.2959 422.49 40.8447 422.786 40.2733C422.983 39.8945 423.129 39.4375 423.221 38.878H411.067V30.884H433.425V52H423.919V47.0352C423.201 48.1499 422.276 49.1472 421.113 49.9778C418.822 51.6144 415.699 52.54 411.635 52.54C405.871 52.54 401.125 50.6221 397.822 47.1461C394.525 43.6762 392.761 38.7529 392.761 32.91C392.761 27.0319 394.764 22.0951 398.464 18.6326C402.158 15.1764 407.444 13.28 413.849 13.28C419.66 13.28 424.525 14.6342 427.963 17.2128C431.432 19.8151 433.371 23.6105 433.371 28.266V29.698ZM423.919 44.8997C424.148 44.3615 424.336 43.8016 424.487 43.224H424.919V51H432.425V31.884H412.067V37.878H424.325C424.309 38.2305 424.278 38.5635 424.233 38.878C423.685 42.6594 420.933 43.764 413.255 43.764C405.317 43.764 402.347 40.956 402.347 32.91C402.347 24.864 405.425 22.056 413.633 22.056C420.599 22.056 423.353 24.054 423.353 28.266V28.698H432.371V28.266C432.371 28.075 432.368 27.8857 432.361 27.698C432.054 19.3421 424.94 14.28 413.849 14.28C401.429 14.28 393.761 21.624 393.761 32.91C393.761 44.196 400.565 51.54 411.635 51.54C418.514 51.54 422.267 48.7897 423.919 44.8997ZM469.088 51.9999H436.47V13.8199H469.088V23.1099H446.57V28.1839H468.278V37.4199H446.57V42.7099H469.088V51.9999ZM445.57 43.7099V36.4199H467.278V29.1839H445.57V22.1099H468.088V14.8199H437.47V50.9999H468.088V43.7099H445.57ZM353.31 51.9999H363.41V33.5336L363.217 29.5804L366.404 34.3057L380.062 51.9999H390.194V13.8199H380.094V32.2879L380.332 36.8858L376.728 31.3622L363.447 13.8199H353.31V51.9999ZM362.086 26.9159H362.626L367.216 33.7199L380.554 50.9999H389.194V14.8199H381.094V32.2619L381.42 38.5529L381.472 39.5519H380.878L375.91 31.9379L362.95 14.8199H354.31V50.9999H362.41V33.5579L362.086 26.9159ZM350.57 51.9999H317.952V13.8199H350.57V23.1099H328.052V28.1839H349.76V37.4199H328.052V42.7099H350.57V51.9999ZM327.052 43.7099V36.4199H348.76V29.1839H327.052V22.1099H349.57V14.8199H318.952V50.9999H349.57V43.7099H327.052ZM283.966 51.9999H315.612V42.7099H294.066V13.8199H283.966V51.9999ZM293.066 14.8199V43.7099H314.612V50.9999H284.966V14.8199H293.066ZM281.626 51.9999H249.98V13.8199H260.08V42.7099H281.626V51.9999ZM259.08 43.7099V14.8199H250.98V50.9999H280.626V43.7099H259.08ZM203.173 51.9999H214.431L217.887 44.0079H234.659L238.061 51.9999H249.543L232.733 13.8199H219.87L203.173 51.9999ZM235.32 43.0079H217.23L213.774 50.9999H204.702L220.524 14.8199H232.08L248.01 50.9999H238.722L235.32 43.0079ZM221.883 34.7179L224.689 28.2155L226.275 24.1912L227.862 28.2155L230.668 34.7179H221.883ZM226.572 22.2179H225.978L223.764 27.8339L220.362 35.7179H232.188L228.786 27.8339L226.572 22.2179ZM175.707 51.9999H165.607V13.8199H175.707V28.1839H192.607V13.8199H202.707V51.9999H192.607V37.4739H175.707V51.9999ZM193.607 36.4739V50.9999H201.707V14.8199H193.607V29.1839H174.707V14.8199H166.607V50.9999H174.707V36.4739H193.607ZM111.876 51.9999H79.2576V13.8199H111.876V23.1099H89.3576V28.1839H111.066V37.4199H89.3576V42.7099H111.876V51.9999ZM88.3576 43.7099V36.4199H110.066V29.1839H88.3576V22.1099H110.876V14.8199H80.2576V50.9999H110.876V43.7099H88.3576ZM38.7322 51.9999H48.8322V37.4739H65.7322V51.9999H75.8322V13.8199H65.7322V28.1839H48.8322V13.8199H38.7322V51.9999ZM66.7322 50.9999V36.4739H47.8322V50.9999H39.7322V14.8199H47.8322V29.1839H66.7322V14.8199H74.8322V50.9999H66.7322ZM23.302 51.9999H13.202V23.1099H-0.244019V13.8199H36.748V23.1099H23.302V51.9999ZM14.202 22.1099V50.9999H22.302V22.1099H35.748V14.8199H0.755981V22.1099H14.202ZM518.62 52H531.042V40.55H518.62V52ZM530.042 41.55V51H519.62V41.55H530.042Z" fill="black"/>
</g>
<defs>
<clipPath id="clip0_96_403">
<rect width="569" height="68" fill="white"/>
</clipPath>
</defs>
</svg>
