<svg width="430" height="68" viewBox="0 0 430 68" fill="none" xmlns="http://www.w3.org/2000/svg">
<g clip-path="url(#clip0_104_3578)">
<path fill-rule="evenodd" clip-rule="evenodd" d="M266.46 66.9199H249.36V0.939941H266.46V25.9439H279.857L296.589 0.939941H317.206L294.232 33.4782L316.854 66.9199H296.308L280.046 42.6679H266.46V66.9199ZM280.846 41.1679L297.108 65.4199H314.028L292.408 33.4599L314.31 2.43994H297.39L280.658 27.4439H264.96V2.43994H250.86V65.4199H264.96V41.1679H280.846Z" fill="black"/>
<path fill-rule="evenodd" clip-rule="evenodd" d="M199.496 66.9199H182.396V0.939941H218.676C226.625 0.939941 233.083 2.69481 237.585 6.19001C242.143 9.72753 244.522 14.9127 244.522 21.3339C244.522 26.755 242.947 31.2633 239.64 34.558C237.145 37.0423 233.77 38.7327 229.605 39.6589C230.751 40.2827 231.736 41.0175 232.61 41.8652C234.326 43.5289 235.544 45.5606 236.731 47.7927C236.732 47.7937 236.732 47.7946 236.733 47.7955L247.039 66.9199H227.267L218.191 49.7552C216.97 47.4026 215.918 46.0961 214.482 45.2996C213.006 44.4802 210.904 44.0779 207.302 44.0779H199.496V66.9199ZM235.408 48.4999C233.318 44.5706 231.377 41.7566 227.005 40.124C226.483 39.929 225.926 39.7509 225.33 39.5897C225.306 39.5831 225.281 39.5765 225.256 39.5699V38.8179C225.325 38.8114 225.394 38.8047 225.462 38.7978C226.043 38.7393 226.61 38.6686 227.162 38.586C237.736 37.0034 243.022 31.0148 243.022 21.3339C243.022 9.30194 234.186 2.43994 218.676 2.43994H183.896V65.4199H197.996V42.5779H207.302C214.634 42.5779 216.984 44.1759 219.522 49.0639L228.17 65.4199H244.526L235.408 48.4999ZM197.996 31.9559V15.1299H218.582C225.256 15.1299 228.264 17.2919 228.264 23.4959C228.264 30.0759 225.256 31.9559 218.582 31.9559H197.996ZM199.496 16.6299V30.4559H218.582C221.863 30.4559 223.821 29.9742 224.979 29.0306C226.054 28.1547 226.764 26.5962 226.764 23.4959C226.764 20.6116 226.067 19.0525 224.968 18.1409C223.799 17.1703 221.827 16.6299 218.582 16.6299H199.496Z" fill="black"/>
<path fill-rule="evenodd" clip-rule="evenodd" d="M115.864 58.5912C109.674 52.6129 106.312 44.0921 106.312 33.93C106.312 23.7679 109.674 15.2471 115.864 9.26883C122.049 3.29534 130.91 0 141.652 0C152.62 0 161.576 3.29045 167.8 9.26571C174.03 15.2466 177.368 23.7706 177.368 33.93C177.368 44.0894 174.03 52.6134 167.8 58.5943C161.576 64.5695 152.62 67.86 141.652 67.86C130.91 67.86 122.049 64.5647 115.864 58.5912ZM155.377 47.5522C158 45.0095 159.328 40.8043 159.328 33.93C159.328 27.0557 158 22.8505 155.377 20.3078C152.743 17.754 148.453 16.536 141.652 16.536C134.848 16.536 130.64 17.755 128.079 20.2956C125.521 22.8335 124.258 27.0382 124.258 33.93C124.258 40.8218 125.521 45.0265 128.079 47.5644C130.64 50.105 134.848 51.324 141.652 51.324C148.453 51.324 152.743 50.106 155.377 47.5522ZM107.812 33.93C107.812 53.576 120.784 66.36 141.652 66.36C162.99 66.36 175.868 53.576 175.868 33.93C175.868 14.284 162.99 1.5 141.652 1.5C120.784 1.5 107.812 14.284 107.812 33.93ZM160.828 33.93C160.828 47.936 155.47 52.824 141.652 52.824C127.834 52.824 122.758 47.936 122.758 33.93C122.758 19.924 127.834 15.036 141.652 15.036C155.47 15.036 160.828 19.924 160.828 33.93Z" fill="black"/>
<path fill-rule="evenodd" clip-rule="evenodd" d="M38.8201 66.9199H15.5595L0 0.939941H18.9008L26.7765 37.8874L28.1219 46.4866L29.9554 37.7926L40.8172 0.939941H64.0254L74.7908 37.7944L76.6238 46.4866L77.9693 37.8874L85.8449 0.939941H104.373L88.7146 66.9199H65.4492L55.7186 34.3222L52.2319 20.0045L48.7442 34.3262L38.8201 66.9199ZM51.7149 15.7879H52.7489L57.1669 33.9299L66.5669 65.4199H87.5289L102.475 2.43994H87.0589L79.4449 38.1599L77.2829 51.9779H76.2489L73.3349 38.1599L62.9009 2.43994H41.9389L31.4109 38.1599L28.4969 51.9779H27.4629L25.3009 38.1599L17.6869 2.43994H1.89488L16.7469 65.4199H37.7089L47.2969 33.9299L51.7149 15.7879Z" fill="black"/>
<path fill-rule="evenodd" clip-rule="evenodd" d="M385.348 67.8599H365.206V49.4099H385.348V67.8599ZM384.348 66.8599V50.4099H366.206V66.8599H384.348Z" fill="black"/>
</g>
<defs>
<clipPath id="clip0_104_3578">
<rect width="430" height="67.86" fill="white"/>
</clipPath>
</defs>
</svg>
