<svg width="33" height="16" viewBox="0 0 33 16" fill="none" xmlns="http://www.w3.org/2000/svg">
<path d="M1.39876e-06 -6.99382e-07C4.41809 -3.1314e-07 7.99989 3.58194 8 8C8 12.4182 4.41816 16 0 16L1.39876e-06 -6.99382e-07Z" fill="white"/>
<path d="M16.0001 16.0006C11.582 16.0006 8.00024 12.4187 8.00012 8.00061C8.00012 3.58245 11.582 0.000610352 16.0001 0.000610352V16.0006ZM24.0001 8.00061C24.0001 8.01299 23.9992 8.02536 23.9991 8.03772V7.96252C23.9992 7.97514 24.0001 7.98798 24.0001 8.00061Z" fill="white"/>
<path d="M24.1393 0.000610352C24.3842 0.00061671 24.6265 0.013231 24.8658 0.03479V8.00061H32.1393C32.1392 12.4186 28.5573 16.0005 24.1393 16.0006C19.7212 16.0006 16.1394 12.4187 16.1393 8.00061C16.1393 3.58245 19.7211 0.000610352 24.1393 0.000610352Z" fill="white"/>
</svg>
