<svg width="104" height="22" viewBox="0 0 104 22" fill="none" xmlns="http://www.w3.org/2000/svg">
<path d="M23.7164 15H21.7964L26.5804 4.28H29.0124L33.7964 15H31.8444L30.6124 12.216H24.9484L23.7164 15ZM27.0924 7.4L25.6364 10.664H29.9244L28.4684 7.4L27.8444 5.88H27.7164L27.0924 7.4ZM35.8604 15H34.2764V4.28H36.0044V9.208H36.1004C36.4204 7.864 37.4764 6.888 39.3804 6.888C41.8284 6.888 43.1724 8.552 43.1724 11.032C43.1724 13.48 41.8124 15.16 39.2844 15.16C37.4764 15.16 36.3084 14.296 35.9724 12.712H35.8604V15ZM36.0044 11.112C36.0044 12.776 37.0284 13.576 38.7404 13.576C40.4844 13.576 41.4444 12.936 41.4444 11.032C41.4444 9.112 40.4684 8.456 38.7724 8.456C36.9804 8.456 36.0044 9.288 36.0044 10.984V11.112ZM48.1142 15.16C45.4742 15.16 43.6982 13.48 43.6982 11.032C43.6982 8.552 45.4742 6.888 48.1142 6.888C50.7702 6.888 52.5462 8.552 52.5462 11.032C52.5462 13.48 50.7702 15.16 48.1142 15.16ZM48.1142 13.624C50.0502 13.624 50.8502 12.712 50.8502 11.032C50.8502 9.336 50.0502 8.408 48.1142 8.408C46.1942 8.408 45.3942 9.336 45.3942 11.032C45.3942 12.712 46.1942 13.624 48.1142 13.624ZM56.7922 15.16C54.5522 15.16 53.4642 13.672 53.4642 11.832V7.048H55.1762V11.368C55.1762 12.856 55.8642 13.608 57.5442 13.608C59.3042 13.608 60.1202 12.712 60.1202 10.984V7.048H61.8322V15H60.2482V12.536H60.1522C59.8962 13.88 58.8402 15.16 56.7922 15.16ZM68.298 15H66.474C64.762 15 63.706 14.248 63.706 12.312V8.488H62.362V7.048H63.706V5.304H65.418V7.048H68.298V8.488H65.418V12.216C65.418 13.192 65.866 13.448 66.858 13.448H68.298V15ZM73.2013 15H71.4733V7.048H73.0573V9.448H73.1533C73.3613 8.12 74.2253 6.888 76.2093 6.888C78.0173 6.888 78.9933 7.992 79.2173 9.512H79.3133C79.5213 8.152 80.4173 6.888 82.4333 6.888C84.4973 6.888 85.5373 8.296 85.5373 10.216V15H83.8253V10.68C83.8253 9.112 83.2013 8.44 81.6653 8.44C79.9693 8.44 79.3613 9.304 79.3613 11.064V15H77.6493V10.68C77.6493 9.112 77.0413 8.44 75.5053 8.44C73.7933 8.44 73.2013 9.304 73.2013 11.064V15ZM90.7627 15.16C88.1547 15.16 86.4427 13.688 86.4427 11.032C86.4427 8.552 88.1387 6.888 90.7307 6.888C93.1947 6.888 94.8747 8.248 94.8747 10.664C94.8747 10.952 94.8587 11.176 94.8107 11.416H88.0587C88.1227 12.952 88.8747 13.768 90.7147 13.768C92.3787 13.768 93.0667 13.224 93.0667 12.28V12.152H94.7947V12.296C94.7947 13.992 93.1307 15.16 90.7627 15.16ZM90.6987 8.248C88.9387 8.248 88.1707 9.032 88.0747 10.456H93.2427V10.424C93.2427 8.952 92.3947 8.248 90.6987 8.248Z" fill="black"/>
<path fill-rule="evenodd" clip-rule="evenodd" d="M8 16C11.3137 16 14 13.3137 14 10C14 6.68629 11.3137 4 8 4C4.68629 4 2 6.68629 2 10C2 13.3137 4.68629 16 8 16ZM8.00045 13.1431C9.7362 13.1431 11.1433 11.736 11.1433 10.0003C11.1433 8.26453 9.7362 6.85742 8.00045 6.85742C6.26469 6.85742 4.85759 8.26453 4.85759 10.0003C4.85759 11.736 6.26469 13.1431 8.00045 13.1431Z" fill="black"/>
</svg>
