<svg width="28" height="28" viewBox="0 0 28 28" fill="none" xmlns="http://www.w3.org/2000/svg">
<path d="M24.9712 0.755371H3.95073C2.29558 0.755371 0.94136 2.10959 0.94136 3.76474V24.8303C0.94136 26.4855 2.29558 27.8397 3.95073 27.8397H24.9712C26.6263 27.8397 27.9805 26.4855 27.9805 24.8303V3.76474C27.9805 2.96661 27.6635 2.20116 27.0991 1.63679C26.5347 1.07243 25.7693 0.755371 24.9712 0.755371ZM22.5787 21.7909C22.5336 21.8059 22.4734 21.821 22.4283 21.821H19.0277C18.8804 21.8234 18.7358 21.7818 18.6124 21.7013C18.489 21.6209 18.3926 21.5053 18.3355 21.3695L14.634 12.7327C14.6039 12.6424 14.5136 12.5972 14.4384 12.6273C14.4143 12.6364 14.3925 12.6505 14.3743 12.6686C14.3562 12.6868 14.3421 12.7086 14.3331 12.7327L12.0309 18.2248C11.9857 18.3301 12.0309 18.4354 12.1362 18.4806C12.1663 18.4956 12.1814 18.4956 12.2114 18.4956H14.7393C14.8898 18.4956 15.0403 18.5859 15.1004 18.7363L16.2139 21.204C16.3192 21.4297 16.1989 21.7006 15.9732 21.8059C15.8829 21.8059 15.8227 21.821 15.7625 21.821H6.55383C6.32813 21.821 6.13252 21.6253 6.13252 21.3996C6.13252 21.3395 6.14757 21.2943 6.16261 21.2341L12.0309 7.27065C12.1513 6.96972 12.4522 6.77411 12.7682 6.77411H16.1537C16.4847 6.77411 16.7706 6.96972 16.891 7.27065L22.7894 21.2341C22.8947 21.4448 22.8044 21.7006 22.5787 21.7909Z" fill="#1A1A1A"/>
</svg>
