<svg width="1097" height="118" viewBox="0 0 1097 118" fill="none" xmlns="http://www.w3.org/2000/svg">
<g clip-path="url(#clip0_144_6427)">
<mask id="mask0_144_6427" style="mask-type:luminance" maskUnits="userSpaceOnUse" x="0" y="0" width="1097" height="118">
<path d="M1097 0H0V118H1097V0Z" fill="white"/>
</mask>
<g mask="url(#mask0_144_6427)">
<mask id="mask1_144_6427" style="mask-type:luminance" maskUnits="userSpaceOnUse" x="-1" y="23" width="977" height="69">
<path d="M976 23H-1V92H976V23Z" fill="white"/>
<path d="M36.8481 89H15.8861L1.03406 26.02H16.8261L24.4401 61.74L26.6021 75.558H27.6361L30.5501 61.74L41.0781 26.02H62.0401L72.4741 61.74L75.3881 75.558H76.4221L78.5841 61.74L86.1981 26.02H101.614L86.6681 89H65.7061L56.3061 57.51L51.8881 39.368H50.8541L46.4361 57.51L36.8481 89ZM140.791 89.94C119.923 89.94 106.951 77.156 106.951 57.51C106.951 37.864 119.923 25.08 140.791 25.08C162.129 25.08 175.007 37.864 175.007 57.51C175.007 77.156 162.129 89.94 140.791 89.94ZM140.791 76.404C154.609 76.404 159.967 71.516 159.967 57.51C159.967 43.504 154.609 38.616 140.791 38.616C126.973 38.616 121.897 43.504 121.897 57.51C121.897 71.516 126.973 76.404 140.791 76.404ZM197.136 89H183.036V26.02H217.816C233.326 26.02 242.162 32.882 242.162 44.914C242.162 55.16 236.24 61.27 224.396 62.398V63.15C230.036 64.654 232.198 67.662 234.548 72.08L243.666 89H227.31L218.662 72.644C216.124 67.756 213.774 66.158 206.442 66.158H197.136V89ZM197.136 38.71V55.536H217.722C224.396 55.536 227.404 53.656 227.404 47.076C227.404 40.872 224.396 38.71 217.722 38.71H197.136ZM264.1 89H250V26.02H264.1V51.024H279.798L296.53 26.02H313.45L291.548 57.04L313.168 89H296.248L279.986 64.748H264.1V89ZM349.375 89H335.275V26.02H349.375V89ZM372.736 89H358.636V26.02H373.676L396.236 55.818L404.884 69.072H405.918L405.26 56.382V26.02H419.36V89H404.32L381.102 58.92L373.112 47.076H372.172L372.736 58.638V89ZM459.205 89H445.105V26.02H478.005C492.575 26.02 501.975 34.292 501.975 48.768C501.975 63.244 492.575 71.61 478.005 71.61H459.205V89ZM476.501 38.71H459.205V58.92H476.501C484.303 58.92 487.969 56.664 487.969 48.768C487.969 41.06 484.303 38.71 476.501 38.71ZM522.956 89H508.856V26.02H543.636C559.146 26.02 567.982 32.882 567.982 44.914C567.982 55.16 562.06 61.27 550.216 62.398V63.15C555.856 64.654 558.018 67.662 560.368 72.08L569.486 89H553.13L544.482 72.644C541.944 67.756 539.594 66.158 532.262 66.158H522.956V89ZM522.956 38.71V55.536H543.542C550.216 55.536 553.224 53.656 553.224 47.076C553.224 40.872 550.216 38.71 543.542 38.71H522.956ZM608.25 89.94C587.382 89.94 574.41 77.156 574.41 57.51C574.41 37.864 587.382 25.08 608.25 25.08C629.588 25.08 642.466 37.864 642.466 57.51C642.466 77.156 629.588 89.94 608.25 89.94ZM608.25 76.404C622.068 76.404 627.426 71.516 627.426 57.51C627.426 43.504 622.068 38.616 608.25 38.616C594.432 38.616 589.356 43.504 589.356 57.51C589.356 71.516 594.432 76.404 608.25 76.404ZM680.199 89.94C660.929 89.94 649.085 77.156 649.085 57.51C649.085 37.864 662.433 25.08 684.053 25.08C703.793 25.08 716.295 34.292 716.295 49.426V50.178H700.597V49.426C700.597 42.094 695.803 38.616 683.677 38.616C669.389 38.616 664.031 43.504 664.031 57.51C664.031 71.516 669.201 76.404 683.019 76.404C697.495 76.404 701.913 74.1479 702.289 66.158H680.951V55.724H716.389V89H703.323V75.464H702.571C700.409 83.736 693.829 89.94 680.199 89.94ZM739.27 89H725.17V26.02H759.95C775.46 26.02 784.296 32.882 784.296 44.914C784.296 55.16 778.374 61.27 766.53 62.398V63.15C772.17 64.654 774.332 67.662 776.682 72.08L785.8 89H769.444L760.796 72.644C758.258 67.756 755.908 66.158 748.576 66.158H739.27V89ZM739.27 38.71V55.536H759.856C766.53 55.536 769.538 53.656 769.538 47.076C769.538 40.872 766.53 38.71 759.856 38.71H739.27ZM845.432 89H792.134V26.02H845.432V38.71H806.234V51.024H844.022V63.62H806.234V76.31H845.432V89ZM882.258 89.94C863.176 89.94 852.46 82.42 852.46 67.756V67.192H866.56V68.884C866.56 74.712 869.474 77.062 882.258 77.062C893.538 77.062 896.17 75.37 896.17 71.14C896.17 67.286 894.008 65.876 887.522 64.748L869.85 62.21C858.57 60.424 851.896 54.784 851.896 44.538C851.896 35.044 859.604 25.08 880.754 25.08C900.118 25.08 909.142 34.01 909.142 47.264V47.828H894.948V46.512C894.948 40.496 891.846 37.958 879.344 37.958C869.192 37.958 866.09 39.932 866.09 43.974C866.09 47.64 868.158 48.956 873.422 49.896L891.094 52.716C905.194 54.972 910.27 61.834 910.27 70.482C910.27 80.728 902.28 89.94 882.258 89.94ZM946.468 89.94C927.386 89.94 916.67 82.42 916.67 67.756V67.192H930.77V68.884C930.77 74.712 933.684 77.062 946.468 77.062C957.748 77.062 960.38 75.37 960.38 71.14C960.38 67.286 958.218 65.876 951.732 64.748L934.06 62.21C922.78 60.424 916.106 54.784 916.106 44.538C916.106 35.044 923.814 25.08 944.964 25.08C964.328 25.08 973.352 34.01 973.352 47.264V47.828H959.158V46.512C959.158 40.496 956.056 37.958 943.554 37.958C933.402 37.958 930.3 39.932 930.3 43.974C930.3 47.64 932.368 48.956 937.632 49.896L955.304 52.716C969.404 54.972 974.48 61.834 974.48 70.482C974.48 80.728 966.49 89.94 946.468 89.94Z" fill="black"/>
</mask>
<g mask="url(#mask1_144_6427)">
<path d="M36.848 89V90.5H37.9593L38.283 89.4369L36.848 89ZM15.886 89L14.426 89.3443L14.6986 90.5H15.886V89ZM1.03404 26.02V24.52H-0.86084L-0.425918 26.3643L1.03404 26.02ZM16.826 26.02L18.293 25.7073L18.04 24.52H16.826V26.02ZM24.44 61.74L25.922 61.5081L25.9156 61.4675L25.907 61.4273L24.44 61.74ZM26.602 75.558L25.12 75.7899L25.3184 77.058H26.602V75.558ZM27.636 75.558V77.058H28.8527L29.1037 75.8675L27.636 75.558ZM30.55 61.74L29.1112 61.3159L29.0945 61.3726L29.0823 61.4305L30.55 61.74ZM41.078 26.02V24.52H39.9563L39.6392 25.5959L41.078 26.02ZM62.04 26.02L63.4798 25.5994L63.1645 24.52H62.04V26.02ZM72.474 61.74L73.9417 61.4305L73.9299 61.3744L73.9138 61.3194L72.474 61.74ZM75.388 75.558L73.9203 75.8675L74.1713 77.058H75.388V75.558ZM76.422 75.558V77.058H77.7056L77.904 75.7899L76.422 75.558ZM78.584 61.74L77.117 61.4273L77.1084 61.4675L77.102 61.5081L78.584 61.74ZM86.198 26.02V24.52H84.984L84.731 25.7073L86.198 26.02ZM101.614 26.02L103.073 26.3663L103.512 24.52H101.614V26.02ZM86.668 89V90.5H87.8537L88.1275 89.3464L86.668 89ZM65.706 89L64.2687 89.4291L64.5884 90.5H65.706V89ZM56.306 57.51L54.8486 57.8649L54.8577 57.9022L54.8687 57.9391L56.306 57.51ZM51.888 39.368L53.3454 39.0131L53.0666 37.868H51.888V39.368ZM50.854 39.368V37.868H49.6754L49.3966 39.0131L50.854 39.368ZM46.436 57.51L47.871 57.9469L47.8833 57.9062L47.8934 57.8649L46.436 57.51ZM36.848 89V87.5H15.886V89V90.5H36.848V89ZM15.886 89L17.346 88.6557L2.49399 25.6757L1.03404 26.02L-0.425918 26.3643L14.426 89.3443L15.886 89ZM1.03404 26.02V27.52H16.826V26.02V24.52H1.03404V26.02ZM16.826 26.02L15.359 26.3327L22.973 62.0527L24.44 61.74L25.907 61.4273L18.293 25.7073L16.826 26.02ZM24.44 61.74L22.958 61.9719L25.12 75.7899L26.602 75.558L28.084 75.3261L25.922 61.5081L24.44 61.74ZM26.602 75.558V77.058H27.636V75.558V74.058H26.602V75.558ZM27.636 75.558L29.1037 75.8675L32.0177 62.0495L30.55 61.74L29.0823 61.4305L26.1683 75.2485L27.636 75.558ZM30.55 61.74L31.9888 62.1641L42.5168 26.4441L41.078 26.02L39.6392 25.5959L29.1112 61.3159L30.55 61.74ZM41.078 26.02V27.52H62.04V26.02V24.52H41.078V26.02ZM62.04 26.02L60.6002 26.4406L71.0342 62.1606L72.474 61.74L73.9138 61.3194L63.4798 25.5994L62.04 26.02ZM72.474 61.74L71.0063 62.0495L73.9203 75.8675L75.388 75.558L76.8557 75.2485L73.9417 61.4305L72.474 61.74ZM75.388 75.558V77.058H76.422V75.558V74.058H75.388V75.558ZM76.422 75.558L77.904 75.7899L80.066 61.9719L78.584 61.74L77.102 61.5081L74.94 75.3261L76.422 75.558ZM78.584 61.74L80.051 62.0527L87.665 26.3327L86.198 26.02L84.731 25.7073L77.117 61.4273L78.584 61.74ZM86.198 26.02V27.52H101.614V26.02V24.52H86.198V26.02ZM101.614 26.02L100.155 25.6736L85.2085 88.6536L86.668 89L88.1275 89.3464L103.073 26.3663L101.614 26.02ZM86.668 89V87.5H65.706V89V90.5H86.668V89ZM65.706 89L67.1433 88.5709L57.7433 57.0809L56.306 57.51L54.8687 57.9391L64.2687 89.4291L65.706 89ZM56.306 57.51L57.7634 57.1551L53.3454 39.0131L51.888 39.368L50.4306 39.7229L54.8486 57.8649L56.306 57.51ZM51.888 39.368V37.868H50.854V39.368V40.868H51.888V39.368ZM50.854 39.368L49.3966 39.0131L44.9786 57.1551L46.436 57.51L47.8934 57.8649L52.3114 39.7229L50.854 39.368ZM46.436 57.51L45.001 57.0731L35.413 88.5631L36.848 89L38.283 89.4369L47.871 57.9469L46.436 57.51ZM140.791 89.94V88.44C130.664 88.44 122.606 85.3433 117.087 80.0133C111.574 74.6881 108.451 66.9939 108.451 57.51H106.951H105.451C105.451 67.6721 108.814 76.1929 115.003 82.1712C121.188 88.1447 130.049 91.44 140.791 91.44V89.94ZM106.951 57.51H108.451C108.451 48.0261 111.574 40.3319 117.087 35.0067C122.606 29.6767 130.664 26.58 140.791 26.58V25.08V23.58C130.049 23.58 121.188 26.8753 115.003 32.8488C108.814 38.8271 105.451 47.3479 105.451 57.51H106.951ZM140.791 25.08V26.58C151.16 26.58 159.312 29.6815 164.862 35.0098C170.406 40.3324 173.507 48.0234 173.507 57.51H175.007H176.507C176.507 47.3506 173.169 38.8266 166.939 32.8457C160.716 26.8705 151.759 23.58 140.791 23.58V25.08ZM175.007 57.51H173.507C173.507 66.9966 170.406 74.6876 164.862 80.0102C159.312 85.3385 151.16 88.44 140.791 88.44V89.94V91.44C151.759 91.44 160.716 88.1495 166.939 82.1743C173.169 76.1934 176.507 67.6694 176.507 57.51H175.007ZM140.791 76.404V77.904C147.807 77.904 153.106 76.678 156.604 73.2863C160.115 69.8835 161.467 64.6417 161.467 57.51H159.967H158.467C158.467 64.3843 157.14 68.5895 154.516 71.1322C151.882 73.686 147.592 74.904 140.791 74.904V76.404ZM159.967 57.51H161.467C161.467 50.3783 160.115 45.1365 156.604 41.7337C153.106 38.342 147.807 37.116 140.791 37.116V38.616V40.116C147.592 40.116 151.882 41.334 154.516 43.8878C157.14 46.4305 158.467 50.6357 158.467 57.51H159.967ZM140.791 38.616V37.116C133.777 37.116 128.537 38.341 125.105 41.7459C121.671 45.1535 120.397 50.3958 120.397 57.51H121.897H123.397C123.397 50.6182 124.66 46.4135 127.218 43.8756C129.779 41.335 133.987 40.116 140.791 40.116V38.616ZM121.897 57.51H120.397C120.397 64.6242 121.671 69.8665 125.105 73.2741C128.537 76.679 133.777 77.904 140.791 77.904V76.404V74.904C133.987 74.904 129.779 73.685 127.218 71.1444C124.66 68.6065 123.397 64.4018 123.397 57.51H121.897ZM197.136 89V90.5H198.636V89H197.136ZM183.036 89H181.536V90.5H183.036V89ZM183.036 26.02V24.52H181.536V26.02H183.036ZM224.396 62.398L224.253 60.9048L222.896 61.0341V62.398H224.396ZM224.396 63.15H222.896V64.3024L224.009 64.5994L224.396 63.15ZM234.548 72.08L233.223 72.7844L233.227 72.7916L234.548 72.08ZM243.666 89V90.5H246.178L244.986 88.2884L243.666 89ZM227.31 89L225.984 89.7011L226.406 90.5H227.31V89ZM218.662 72.644L217.33 73.3352L217.336 73.3451L218.662 72.644ZM197.136 66.158V64.658H195.636V66.158H197.136ZM197.136 38.71V37.21H195.636V38.71H197.136ZM197.136 55.536H195.636V57.036H197.136V55.536ZM197.136 89V87.5H183.036V89V90.5H197.136V89ZM183.036 89H184.536V26.02H183.036H181.536V89H183.036ZM183.036 26.02V27.52H217.816V26.02V24.52H183.036V26.02ZM217.816 26.02V27.52C225.377 27.52 231.093 29.1961 234.885 32.1399C238.623 35.0414 240.662 39.3032 240.662 44.914H242.162H243.662C243.662 38.4928 241.282 33.3076 236.725 29.7701C232.222 26.2749 225.765 24.52 217.816 24.52V26.02ZM242.162 44.914H240.662C240.662 49.739 239.276 53.4087 236.662 56.0125C234.026 58.6372 229.96 60.3612 224.253 60.9048L224.396 62.398L224.538 63.8912C230.675 63.3068 235.492 61.4118 238.779 58.138C242.086 54.8433 243.662 50.335 243.662 44.914H242.162ZM224.396 62.398H222.896V63.15H224.396H225.896V62.398H224.396ZM224.396 63.15L224.009 64.5994C226.616 65.2944 228.329 66.308 229.661 67.5992C231.023 68.9193 232.061 70.5996 233.223 72.7844L234.548 72.08L235.872 71.3756C234.684 69.1424 233.466 67.1096 231.749 65.4453C230.003 63.752 227.816 62.5096 224.782 61.7006L224.396 63.15ZM234.548 72.08L233.227 72.7916L242.345 89.7116L243.666 89L244.986 88.2884L235.868 71.3684L234.548 72.08ZM243.666 89V87.5H227.31V89V90.5H243.666V89ZM227.31 89L228.636 88.2989L219.988 71.9429L218.662 72.644L217.336 73.3451L225.984 89.7011L227.31 89ZM218.662 72.644L219.993 71.9528C218.676 69.4173 217.284 67.4808 215.077 66.2564C212.911 65.0547 210.172 64.658 206.442 64.658V66.158V67.658C210.043 67.658 212.145 68.0603 213.622 68.8796C215.057 69.6762 216.109 70.9827 217.33 73.3352L218.662 72.644ZM206.442 66.158V64.658H197.136V66.158V67.658H206.442V66.158ZM197.136 66.158H195.636V89H197.136H198.636V66.158H197.136ZM197.136 38.71H195.636V55.536H197.136H198.636V38.71H197.136ZM197.136 55.536V57.036H217.722V55.536V54.036H197.136V55.536ZM217.722 55.536V57.036C221.115 57.036 223.998 56.5778 226.013 54.9364C228.11 53.2272 228.904 50.5558 228.904 47.076H227.404H225.904C225.904 50.1762 225.193 51.7348 224.118 52.6106C222.96 53.5542 221.002 54.036 217.722 54.036V55.536ZM227.404 47.076H228.904C228.904 43.7564 228.097 41.1324 226.023 39.4121C224.021 37.7506 221.152 37.21 217.722 37.21V38.71V40.21C220.966 40.21 222.938 40.7503 224.108 41.7209C225.206 42.6326 225.904 44.1916 225.904 47.076H227.404ZM217.722 38.71V37.21H197.136V38.71V40.21H217.722V38.71ZM264.1 89V90.5H265.6V89H264.1ZM250 89H248.5V90.5H250V89ZM250 26.02V24.52H248.5V26.02H250ZM264.1 26.02H265.6V24.52H264.1V26.02ZM264.1 51.024H262.6V52.524H264.1V51.024ZM279.798 51.024V52.524H280.599L281.044 51.8582L279.798 51.024ZM296.53 26.02V24.52H295.729L295.283 25.1858L296.53 26.02ZM313.45 26.02L314.675 26.8852L316.345 24.52H313.45V26.02ZM291.548 57.04L290.322 56.1748L289.724 57.0217L290.305 57.8805L291.548 57.04ZM313.168 89V90.5H315.993L314.41 88.1595L313.168 89ZM296.248 89L295.002 89.8354L295.447 90.5H296.248V89ZM279.986 64.748L281.231 63.9126L280.786 63.248H279.986V64.748ZM264.1 64.748V63.248H262.6V64.748H264.1ZM264.1 89V87.5H250V89V90.5H264.1V89ZM250 89H251.5V26.02H250H248.5V89H250ZM250 26.02V27.52H264.1V26.02V24.52H250V26.02ZM264.1 26.02H262.6V51.024H264.1H265.6V26.02H264.1ZM264.1 51.024V52.524H279.798V51.024V49.524H264.1V51.024ZM279.798 51.024L281.044 51.8582L297.776 26.8542L296.53 26.02L295.283 25.1858L278.551 50.1898L279.798 51.024ZM296.53 26.02V27.52H313.45V26.02V24.52H296.53V26.02ZM313.45 26.02L312.224 25.1548L290.322 56.1748L291.548 57.04L292.773 57.9052L314.675 26.8852L313.45 26.02ZM291.548 57.04L290.305 57.8805L311.925 89.8405L313.168 89L314.41 88.1595L292.79 56.1995L291.548 57.04ZM313.168 89V87.5H296.248V89V90.5H313.168V89ZM296.248 89L297.493 88.1646L281.231 63.9126L279.986 64.748L278.74 65.5834L295.002 89.8354L296.248 89ZM279.986 64.748V63.248H264.1V64.748V66.248H279.986V64.748ZM264.1 64.748H262.6V89H264.1H265.6V64.748H264.1ZM349.375 89V90.5H350.875V89H349.375ZM335.275 89H333.775V90.5H335.275V89ZM335.275 26.02V24.52H333.775V26.02H335.275ZM349.375 26.02H350.875V24.52H349.375V26.02ZM349.375 89V87.5H335.275V89V90.5H349.375V89ZM335.275 89H336.775V26.02H335.275H333.775V89H335.275ZM335.275 26.02V27.52H349.375V26.02V24.52H335.275V26.02ZM349.375 26.02H347.875V89H349.375H350.875V26.02H349.375ZM372.736 89V90.5H374.236V89H372.736ZM358.636 89H357.136V90.5H358.636V89ZM358.636 26.02V24.52H357.136V26.02H358.636ZM373.676 26.02L374.872 25.1146L374.421 24.52H373.676V26.02ZM396.236 55.818L397.492 54.9983L397.463 54.9544L397.432 54.9126L396.236 55.818ZM404.884 69.072L403.627 69.8917L404.071 70.572H404.884V69.072ZM405.918 69.072V70.572H407.497L407.416 68.9943L405.918 69.072ZM405.26 56.382H403.76V56.4209L403.762 56.4597L405.26 56.382ZM405.26 26.02V24.52H403.76V26.02H405.26ZM419.36 26.02H420.86V24.52H419.36V26.02ZM419.36 89V90.5H420.86V89H419.36ZM404.32 89L403.132 89.9165L403.583 90.5H404.32V89ZM381.102 58.92L379.858 59.7589L379.885 59.7986L379.914 59.8365L381.102 58.92ZM373.112 47.076L374.355 46.2371L373.909 45.576H373.112V47.076ZM372.172 47.076V45.576H370.597L370.673 47.1491L372.172 47.076ZM372.736 58.638H374.236V58.6014L374.234 58.5649L372.736 58.638ZM372.736 89V87.5H358.636V89V90.5H372.736V89ZM358.636 89H360.136V26.02H358.636H357.136V89H358.636ZM358.636 26.02V27.52H373.676V26.02V24.52H358.636V26.02ZM373.676 26.02L372.48 26.9254L395.04 56.7234L396.236 55.818L397.432 54.9126L374.872 25.1146L373.676 26.02ZM396.236 55.818L394.979 56.6377L403.627 69.8917L404.884 69.072L406.14 68.2523L397.492 54.9983L396.236 55.818ZM404.884 69.072V70.572H405.918V69.072V67.572H404.884V69.072ZM405.918 69.072L407.416 68.9943L406.758 56.3043L405.26 56.382L403.762 56.4597L404.42 69.1497L405.918 69.072ZM405.26 56.382H406.76V26.02H405.26H403.76V56.382H405.26ZM405.26 26.02V27.52H419.36V26.02V24.52H405.26V26.02ZM419.36 26.02H417.86V89H419.36H420.86V26.02H419.36ZM419.36 89V87.5H404.32V89V90.5H419.36V89ZM404.32 89L405.507 88.0835L382.289 58.0035L381.102 58.92L379.914 59.8365L403.132 89.9165L404.32 89ZM381.102 58.92L382.345 58.0811L374.355 46.2371L373.112 47.076L371.868 47.9149L379.858 59.7589L381.102 58.92ZM373.112 47.076V45.576H372.172V47.076V48.576H373.112V47.076ZM372.172 47.076L370.673 47.1491L371.237 58.7111L372.736 58.638L374.234 58.5649L373.67 47.0029L372.172 47.076ZM372.736 58.638H371.236V89H372.736H374.236V58.638H372.736ZM459.205 89V90.5H460.705V89H459.205ZM445.105 89H443.605V90.5H445.105V89ZM445.105 26.02V24.52H443.605V26.02H445.105ZM459.205 71.61V70.11H457.705V71.61H459.205ZM459.205 38.71V37.21H457.705V38.71H459.205ZM459.205 58.92H457.705V60.42H459.205V58.92ZM459.205 89V87.5H445.105V89V90.5H459.205V89ZM445.105 89H446.605V26.02H445.105H443.605V89H445.105ZM445.105 26.02V27.52H478.005V26.02V24.52H445.105V26.02ZM478.005 26.02V27.52C485.013 27.52 490.605 29.5067 494.432 33.0641C498.244 36.6077 500.475 41.8669 500.475 48.768H501.975H503.475C503.475 41.1931 501.005 35.0783 496.475 30.8669C491.959 26.6693 485.566 24.52 478.005 24.52V26.02ZM501.975 48.768H500.475C500.475 55.6696 498.244 60.9543 494.429 64.5219C490.601 68.1021 485.009 70.11 478.005 70.11V71.61V73.11C485.571 73.11 491.964 70.9347 496.478 66.7131C501.006 62.4787 503.475 56.3424 503.475 48.768H501.975ZM478.005 71.61V70.11H459.205V71.61V73.11H478.005V71.61ZM459.205 71.61H457.705V89H459.205H460.705V71.61H459.205ZM476.501 38.71V37.21H459.205V38.71V40.21H476.501V38.71ZM459.205 38.71H457.705V58.92H459.205H460.705V38.71H459.205ZM459.205 58.92V60.42H476.501V58.92V57.42H459.205V58.92ZM476.501 58.92V60.42C480.465 60.42 483.793 59.8655 486.111 57.965C488.508 56.0001 489.469 52.9121 489.469 48.768H487.969H486.469C486.469 52.5199 485.596 54.5079 484.209 55.645C482.744 56.8465 480.338 57.42 476.501 57.42V58.92ZM487.969 48.768H489.469C489.469 44.7066 488.502 41.6487 486.111 39.6885C483.798 37.7915 480.476 37.21 476.501 37.21V38.71V40.21C480.327 40.21 482.74 40.8035 484.209 42.0085C485.602 43.1503 486.469 45.1214 486.469 48.768H487.969ZM522.956 89V90.5H524.456V89H522.956ZM508.856 89H507.356V90.5H508.856V89ZM508.856 26.02V24.52H507.356V26.02H508.856ZM550.216 62.398L550.074 60.9048L548.716 61.0341V62.398H550.216ZM550.216 63.15H548.716V64.3024L549.829 64.5994L550.216 63.15ZM560.368 72.08L559.043 72.7844L559.047 72.7916L560.368 72.08ZM569.486 89V90.5H571.998L570.806 88.2884L569.486 89ZM553.13 89L551.804 89.7011L552.226 90.5H553.13V89ZM544.482 72.644L543.151 73.3352L543.156 73.3451L544.482 72.644ZM522.956 66.158V64.658H521.456V66.158H522.956ZM522.956 38.71V37.21H521.456V38.71H522.956ZM522.956 55.536H521.456V57.036H522.956V55.536ZM522.956 89V87.5H508.856V89V90.5H522.956V89ZM508.856 89H510.356V26.02H508.856H507.356V89H508.856ZM508.856 26.02V27.52H543.636V26.02V24.52H508.856V26.02ZM543.636 26.02V27.52C551.197 27.52 556.913 29.1961 560.705 32.1399C564.443 35.0414 566.482 39.3032 566.482 44.914H567.982H569.482C569.482 38.4928 567.102 33.3076 562.545 29.7701C558.042 26.2749 551.585 24.52 543.636 24.52V26.02ZM567.982 44.914H566.482C566.482 49.739 565.096 53.4087 562.482 56.0125C559.847 58.6372 555.781 60.3612 550.074 60.9048L550.216 62.398L550.358 63.8912C556.495 63.3068 561.312 61.4118 564.599 58.138C567.907 54.8433 569.482 50.335 569.482 44.914H567.982ZM550.216 62.398H548.716V63.15H550.216H551.716V62.398H550.216ZM550.216 63.15L549.829 64.5994C552.436 65.2944 554.15 66.308 555.481 67.5992C556.843 68.9193 557.881 70.5996 559.043 72.7844L560.368 72.08L561.692 71.3756C560.504 69.1424 559.286 67.1096 557.57 65.4453C555.823 63.752 553.636 62.5096 550.602 61.7006L550.216 63.15ZM560.368 72.08L559.047 72.7916L568.165 89.7116L569.486 89L570.806 88.2884L561.688 71.3684L560.368 72.08ZM569.486 89V87.5H553.13V89V90.5H569.486V89ZM553.13 89L554.456 88.2989L545.808 71.9429L544.482 72.644L543.156 73.3451L551.804 89.7011L553.13 89ZM544.482 72.644L545.813 71.9528C544.497 69.4173 543.104 67.4808 540.897 66.2564C538.732 65.0547 535.992 64.658 532.262 64.658V66.158V67.658C535.863 67.658 537.965 68.0603 539.442 68.8796C540.877 69.6762 541.929 70.9827 543.151 73.3352L544.482 72.644ZM532.262 66.158V64.658H522.956V66.158V67.658H532.262V66.158ZM522.956 66.158H521.456V89H522.956H524.456V66.158H522.956ZM522.956 38.71H521.456V55.536H522.956H524.456V38.71H522.956ZM522.956 55.536V57.036H543.542V55.536V54.036H522.956V55.536ZM543.542 55.536V57.036C546.935 57.036 549.819 56.5778 551.833 54.9364C553.931 53.2272 554.724 50.5558 554.724 47.076H553.224H551.724C551.724 50.1762 551.013 51.7348 549.938 52.6106C548.78 53.5542 546.822 54.036 543.542 54.036V55.536ZM553.224 47.076H554.724C554.724 43.7564 553.917 41.1324 551.843 39.4121C549.841 37.7506 546.972 37.21 543.542 37.21V38.71V40.21C546.786 40.21 548.758 40.7503 549.928 41.7209C551.027 42.6326 551.724 44.1916 551.724 47.076H553.224ZM543.542 38.71V37.21H522.956V38.71V40.21H543.542V38.71ZM608.25 89.94V88.44C598.123 88.44 590.065 85.3433 584.546 80.0133C579.033 74.6881 575.91 66.9939 575.91 57.51H574.41H572.91C572.91 67.6721 576.273 76.1929 582.462 82.1712C588.647 88.1447 597.508 91.44 608.25 91.44V89.94ZM574.41 57.51H575.91C575.91 48.0261 579.033 40.3319 584.546 35.0067C590.065 29.6767 598.123 26.58 608.25 26.58V25.08V23.58C597.508 23.58 588.647 26.8753 582.462 32.8488C576.273 38.8271 572.91 47.3479 572.91 57.51H574.41ZM608.25 25.08V26.58C618.619 26.58 626.771 29.6815 632.321 35.0098C637.865 40.3324 640.966 48.0234 640.966 57.51H642.466H643.966C643.966 47.3506 640.628 38.8266 634.398 32.8457C628.175 26.8705 619.218 23.58 608.25 23.58V25.08ZM642.466 57.51H640.966C640.966 66.9966 637.865 74.6876 632.321 80.0102C626.771 85.3385 618.619 88.44 608.25 88.44V89.94V91.44C619.218 91.44 628.175 88.1495 634.398 82.1743C640.628 76.1934 643.966 67.6694 643.966 57.51H642.466ZM608.25 76.404V77.904C615.266 77.904 620.565 76.678 624.064 73.2863C627.574 69.8835 628.926 64.6417 628.926 57.51H627.426H625.926C625.926 64.3843 624.599 68.5895 621.975 71.1322C619.341 73.686 615.051 74.904 608.25 74.904V76.404ZM627.426 57.51H628.926C628.926 50.3783 627.574 45.1365 624.064 41.7337C620.565 38.342 615.266 37.116 608.25 37.116V38.616V40.116C615.051 40.116 619.341 41.334 621.975 43.8878C624.599 46.4305 625.926 50.6357 625.926 57.51H627.426ZM608.25 38.616V37.116C601.236 37.116 595.996 38.341 592.565 41.7459C589.13 45.1535 587.856 50.3958 587.856 57.51H589.356H590.856C590.856 50.6182 592.119 46.4135 594.677 43.8756C597.238 41.335 601.446 40.116 608.25 40.116V38.616ZM589.356 57.51H587.856C587.856 64.6242 589.13 69.8665 592.565 73.2741C595.996 76.679 601.236 77.904 608.25 77.904V76.404V74.904C601.446 74.904 597.238 73.685 594.677 71.1444C592.119 68.6065 590.856 64.4018 590.856 57.51H589.356ZM716.295 50.178V51.678H717.795V50.178H716.295ZM700.597 50.178H699.097V51.678H700.597V50.178ZM702.289 66.158L703.787 66.2285L703.861 64.658H702.289V66.158ZM680.951 66.158H679.451V67.658H680.951V66.158ZM680.951 55.724V54.224H679.451V55.724H680.951ZM716.389 55.724H717.889V54.224H716.389V55.724ZM716.389 89V90.5H717.889V89H716.389ZM703.323 89H701.823V90.5H703.323V89ZM703.323 75.464H704.823V73.964H703.323V75.464ZM702.571 75.464V73.964H701.412L701.119 75.0847L702.571 75.464ZM680.199 89.94V88.44C670.907 88.44 663.546 85.3669 658.503 80.0591C653.451 74.742 650.585 67.0333 650.585 57.51H649.085H647.585C647.585 67.6327 650.64 76.139 656.328 82.1254C662.024 88.121 670.22 91.44 680.199 91.44V89.94ZM649.085 57.51H650.585C650.585 48.0397 653.792 40.3511 659.486 35.023C665.19 29.6854 673.536 26.58 684.053 26.58V25.08V23.58C672.949 23.58 663.812 26.8666 657.436 32.8325C651.051 38.8079 647.585 47.3343 647.585 57.51H649.085ZM684.053 25.08V26.58C693.711 26.58 701.421 28.8362 706.676 32.7777C711.884 36.6837 714.795 42.3219 714.795 49.426H716.295H717.795C717.795 41.3961 714.454 34.8613 708.476 30.3777C702.546 25.9298 694.134 23.58 684.053 23.58V25.08ZM716.295 49.426H714.795V50.178H716.295H717.795V49.426H716.295ZM716.295 50.178V48.678H700.597V50.178V51.678H716.295V50.178ZM700.597 50.178H702.097V49.426H700.597H699.097V50.178H700.597ZM700.597 49.426H702.097C702.097 45.3851 700.742 42.1464 697.508 40.0184C694.417 37.9843 689.819 37.116 683.677 37.116V38.616V40.116C689.661 40.116 693.522 40.9867 695.859 42.5246C698.054 43.9686 699.097 46.1349 699.097 49.426H700.597ZM683.677 38.616V37.116C676.436 37.116 671.022 38.3382 667.462 41.7239C663.882 45.1286 662.531 50.3789 662.531 57.51H664.031H665.531C665.531 50.6351 666.858 46.4384 669.529 43.8976C672.221 41.3378 676.63 40.116 683.677 40.116V38.616ZM664.031 57.51H662.531C662.531 64.63 663.831 69.8722 667.291 73.2782C670.745 76.6787 676.004 77.904 683.019 77.904V76.404V74.904C676.216 74.904 671.981 73.6852 669.395 71.1403C666.816 68.6007 665.531 64.396 665.531 57.51H664.031ZM683.019 76.404V77.904C690.234 77.904 695.312 77.3608 698.641 75.6038C700.369 74.6921 701.64 73.4495 702.486 71.821C703.316 70.2235 703.687 68.3469 703.787 66.2285L702.289 66.158L700.79 66.0875C700.702 67.9641 700.381 69.3657 699.824 70.4385C699.283 71.4802 698.475 72.2997 697.241 72.9507C694.648 74.3192 690.279 74.904 683.019 74.904V76.404ZM702.289 66.158V64.658H680.951V66.158V67.658H702.289V66.158ZM680.951 66.158H682.451V55.724H680.951H679.451V66.158H680.951ZM680.951 55.724V57.224H716.389V55.724V54.224H680.951V55.724ZM716.389 55.724H714.889V89H716.389H717.889V55.724H716.389ZM716.389 89V87.5H703.323V89V90.5H716.389V89ZM703.323 89H704.823V75.464H703.323H701.823V89H703.323ZM703.323 75.464V73.964H702.571V75.464V76.964H703.323V75.464ZM702.571 75.464L701.119 75.0847C700.112 78.9384 698.102 82.2344 694.813 84.5834C691.513 86.9408 686.79 88.44 680.199 88.44V89.94V91.44C687.237 91.44 692.62 89.8371 696.557 87.0246C700.506 84.2036 702.867 80.2616 704.022 75.8433L702.571 75.464ZM739.27 89V90.5H740.77V89H739.27ZM725.17 89H723.67V90.5H725.17V89ZM725.17 26.02V24.52H723.67V26.02H725.17ZM766.53 62.398L766.387 60.9048L765.03 61.0341V62.398H766.53ZM766.53 63.15H765.03V64.3024L766.143 64.5994L766.53 63.15ZM776.682 72.08L775.357 72.7844L775.361 72.7916L776.682 72.08ZM785.8 89V90.5H788.312L787.12 88.2884L785.8 89ZM769.444 89L768.118 89.7011L768.54 90.5H769.444V89ZM760.796 72.644L759.464 73.3352L759.47 73.3451L760.796 72.644ZM739.27 66.158V64.658H737.77V66.158H739.27ZM739.27 38.71V37.21H737.77V38.71H739.27ZM739.27 55.536H737.77V57.036H739.27V55.536ZM739.27 89V87.5H725.17V89V90.5H739.27V89ZM725.17 89H726.67V26.02H725.17H723.67V89H725.17ZM725.17 26.02V27.52H759.95V26.02V24.52H725.17V26.02ZM759.95 26.02V27.52C767.511 27.52 773.227 29.1961 777.019 32.1399C780.757 35.0414 782.796 39.3032 782.796 44.914H784.296H785.796C785.796 38.4928 783.416 33.3076 778.859 29.7701C774.356 26.2749 767.899 24.52 759.95 24.52V26.02ZM784.296 44.914H782.796C782.796 49.739 781.41 53.4087 778.796 56.0125C776.16 58.6372 772.094 60.3612 766.387 60.9048L766.53 62.398L766.672 63.8912C772.809 63.3068 777.626 61.4118 780.913 58.138C784.22 54.8433 785.796 50.335 785.796 44.914H784.296ZM766.53 62.398H765.03V63.15H766.53H768.03V62.398H766.53ZM766.53 63.15L766.143 64.5994C768.75 65.2944 770.463 66.308 771.795 67.5992C773.157 68.9193 774.195 70.5996 775.357 72.7844L776.682 72.08L778.006 71.3756C776.818 69.1424 775.6 67.1096 773.883 65.4453C772.137 63.752 769.95 62.5096 766.916 61.7006L766.53 63.15ZM776.682 72.08L775.361 72.7916L784.479 89.7116L785.8 89L787.12 88.2884L778.002 71.3684L776.682 72.08ZM785.8 89V87.5H769.444V89V90.5H785.8V89ZM769.444 89L770.77 88.2989L762.122 71.9429L760.796 72.644L759.47 73.3451L768.118 89.7011L769.444 89ZM760.796 72.644L762.127 71.9528C760.81 69.4173 759.418 67.4808 757.211 66.2564C755.045 65.0547 752.306 64.658 748.576 64.658V66.158V67.658C752.177 67.658 754.279 68.0603 755.756 68.8796C757.191 69.6762 758.243 70.9827 759.464 73.3352L760.796 72.644ZM748.576 66.158V64.658H739.27V66.158V67.658H748.576V66.158ZM739.27 66.158H737.77V89H739.27H740.77V66.158H739.27ZM739.27 38.71H737.77V55.536H739.27H740.77V38.71H739.27ZM739.27 55.536V57.036H759.856V55.536V54.036H739.27V55.536ZM759.856 55.536V57.036C763.249 57.036 766.132 56.5778 768.147 54.9364C770.244 53.2272 771.038 50.5558 771.038 47.076H769.538H768.038C768.038 50.1762 767.327 51.7348 766.252 52.6106C765.094 53.5542 763.136 54.036 759.856 54.036V55.536ZM769.538 47.076H771.038C771.038 43.7564 770.231 41.1324 768.157 39.4121C766.155 37.7506 763.286 37.21 759.856 37.21V38.71V40.21C763.1 40.21 765.072 40.7503 766.242 41.7209C767.34 42.6326 768.038 44.1916 768.038 47.076H769.538ZM759.856 38.71V37.21H739.27V38.71V40.21H759.856V38.71ZM845.432 89V90.5H846.932V89H845.432ZM792.134 89H790.634V90.5H792.134V89ZM792.134 26.02V24.52H790.634V26.02H792.134ZM845.432 26.02H846.932V24.52H845.432V26.02ZM845.432 38.71V40.21H846.932V38.71H845.432ZM806.234 38.71V37.21H804.734V38.71H806.234ZM806.234 51.024H804.734V52.524H806.234V51.024ZM844.022 51.024H845.522V49.524H844.022V51.024ZM844.022 63.62V65.12H845.522V63.62H844.022ZM806.234 63.62V62.12H804.734V63.62H806.234ZM806.234 76.31H804.734V77.81H806.234V76.31ZM845.432 76.31H846.932V74.81H845.432V76.31ZM845.432 89V87.5H792.134V89V90.5H845.432V89ZM792.134 89H793.634V26.02H792.134H790.634V89H792.134ZM792.134 26.02V27.52H845.432V26.02V24.52H792.134V26.02ZM845.432 26.02H843.932V38.71H845.432H846.932V26.02H845.432ZM845.432 38.71V37.21H806.234V38.71V40.21H845.432V38.71ZM806.234 38.71H804.734V51.024H806.234H807.734V38.71H806.234ZM806.234 51.024V52.524H844.022V51.024V49.524H806.234V51.024ZM844.022 51.024H842.522V63.62H844.022H845.522V51.024H844.022ZM844.022 63.62V62.12H806.234V63.62V65.12H844.022V63.62ZM806.234 63.62H804.734V76.31H806.234H807.734V63.62H806.234ZM806.234 76.31V77.81H845.432V76.31V74.81H806.234V76.31ZM845.432 76.31H843.932V89H845.432H846.932V76.31H845.432ZM852.46 67.192V65.692H850.96V67.192H852.46ZM866.56 67.192H868.06V65.692H866.56V67.192ZM887.522 64.748L887.779 63.2702L887.757 63.2664L887.735 63.2632L887.522 64.748ZM869.85 62.21L869.615 63.6915L869.626 63.6932L869.636 63.6948L869.85 62.21ZM909.142 47.828V49.328H910.642V47.828H909.142ZM894.948 47.828H893.448V49.328H894.948V47.828ZM873.422 49.896L873.158 51.3726L873.172 51.3751L873.185 51.3773L873.422 49.896ZM882.258 89.94V88.44C872.877 88.44 865.793 86.5857 861.09 83.1373C856.462 79.7443 853.96 74.6771 853.96 67.756H852.46H850.96C850.96 75.4989 853.815 81.5237 859.316 85.5567C864.741 89.5343 872.556 91.44 882.258 91.44V89.94ZM852.46 67.756H853.96V67.192H852.46H850.96V67.756H852.46ZM852.46 67.192V68.692H866.56V67.192V65.692H852.46V67.192ZM866.56 67.192H865.06V68.884H866.56H868.06V67.192H866.56ZM866.56 68.884H865.06C865.06 70.4493 865.252 71.929 865.849 73.2415C866.463 74.5912 867.458 75.6617 868.876 76.4641C871.582 77.9948 875.876 78.562 882.258 78.562V77.062V75.562C875.855 75.562 872.3 74.9542 870.353 73.8529C869.445 73.3393 868.912 72.7295 868.58 71.9995C868.231 71.2323 868.06 70.2327 868.06 68.884H866.56ZM882.258 77.062V78.562C887.882 78.562 891.669 78.1551 894.071 77.0499C895.33 76.4701 896.282 75.6676 896.89 74.5841C897.485 73.5245 897.67 72.3407 897.67 71.14H896.17H894.67C894.67 72.0543 894.525 72.6683 894.274 73.1155C894.036 73.539 893.625 73.9527 892.816 74.3246C891.082 75.1229 887.914 75.562 882.258 75.562V77.062ZM896.17 71.14H897.67C897.67 70.0427 897.517 69.0102 897.104 68.0704C896.682 67.1119 896.028 66.3349 895.156 65.7055C893.496 64.5076 891.018 63.8336 887.779 63.2702L887.522 64.748L887.265 66.2258C890.511 66.7904 892.357 67.3854 893.4 68.138C893.879 68.4839 894.17 68.8524 894.357 69.2775C894.552 69.7213 894.67 70.3103 894.67 71.14H896.17ZM887.522 64.748L887.735 63.2632L870.063 60.7252L869.85 62.21L869.636 63.6948L887.308 66.2328L887.522 64.748ZM869.85 62.21L870.084 60.7285C864.618 59.8629 860.455 58.0901 857.674 55.4571C854.932 52.8623 853.396 49.3041 853.396 44.538H851.896H850.396C850.396 50.0179 852.196 54.4027 855.611 57.6359C858.987 60.8308 863.801 62.771 869.615 63.6915L869.85 62.21ZM851.896 44.538H853.396C853.396 40.218 855.137 35.7938 859.334 32.4174C863.556 29.0203 870.398 26.58 880.754 26.58V25.08V23.58C869.96 23.58 862.372 26.1217 857.453 30.0801C852.508 34.0592 850.396 39.364 850.396 44.538H851.896ZM880.754 25.08V26.58C890.229 26.58 896.936 28.7671 901.25 32.355C905.524 35.9098 907.642 40.999 907.642 47.264H909.142H910.642C910.642 40.275 908.247 34.2722 903.168 30.0485C898.129 25.8579 890.642 23.58 880.754 23.58V25.08ZM909.142 47.264H907.642V47.828H909.142H910.642V47.264H909.142ZM909.142 47.828V46.328H894.948V47.828V49.328H909.142V47.828ZM894.948 47.828H896.448V46.512H894.948H893.448V47.828H894.948ZM894.948 46.512H896.448C896.448 44.8933 896.241 43.3729 895.636 42.0236C895.016 40.6416 894.019 39.5308 892.599 38.6888C889.876 37.0741 885.599 36.458 879.344 36.458V37.958V39.458C885.59 39.458 889.115 40.1109 891.069 41.2692C891.987 41.8137 892.546 42.4654 892.899 43.2513C893.266 44.0699 893.448 45.1226 893.448 46.512H894.948ZM879.344 37.958V36.458C874.242 36.458 870.627 36.9418 868.251 38.1025C867.023 38.7026 866.072 39.5085 865.445 40.5604C864.821 41.6059 864.59 42.7721 864.59 43.974H866.09H867.59C867.59 43.1549 867.746 42.5586 868.021 42.0972C868.293 41.6421 868.752 41.1966 869.568 40.798C871.281 39.9611 874.293 39.458 879.344 39.458V37.958ZM866.09 43.974H864.59C864.59 46.1367 865.227 47.8833 866.866 49.1457C868.355 50.2921 870.514 50.9004 873.158 51.3726L873.422 49.896L873.685 48.4194C871.066 47.9516 869.558 47.4319 868.697 46.7688C867.986 46.2217 867.59 45.4773 867.59 43.974H866.09ZM873.422 49.896L873.185 51.3773L890.857 54.1973L891.094 52.716L891.331 51.2348L873.658 48.4147L873.422 49.896ZM891.094 52.716L890.857 54.1973C897.719 55.2952 902.17 57.4815 904.9 60.2545C907.602 62.9983 908.77 66.4689 908.77 70.482H910.27H911.77C911.77 65.8471 910.399 61.5627 907.038 58.1495C903.705 54.7655 898.569 52.3929 891.331 51.2348L891.094 52.716ZM910.27 70.482H908.77C908.77 75.1873 906.951 79.6043 902.837 82.8799C898.689 86.1835 892.059 88.44 882.258 88.44V89.94V91.44C892.478 91.44 899.854 89.0905 904.706 85.2266C909.593 81.3347 911.77 76.0227 911.77 70.482H910.27ZM916.67 67.192V65.692H915.17V67.192H916.67ZM930.77 67.192H932.27V65.692H930.77V67.192ZM951.732 64.748L951.989 63.2702L951.967 63.2664L951.945 63.2632L951.732 64.748ZM934.06 62.21L933.825 63.6915L933.836 63.6932L933.846 63.6948L934.06 62.21ZM973.352 47.828V49.328H974.852V47.828H973.352ZM959.158 47.828H957.658V49.328H959.158V47.828ZM937.632 49.896L937.368 51.3726L937.382 51.3751L937.395 51.3773L937.632 49.896ZM955.304 52.716L955.541 51.2348L955.54 51.2347L955.304 52.716ZM946.468 89.94V88.44C937.087 88.44 930.003 86.5857 925.3 83.1373C920.672 79.7443 918.17 74.6771 918.17 67.756H916.67H915.17C915.17 75.4989 918.025 81.5237 923.526 85.5567C928.951 89.5343 936.766 91.44 946.468 91.44V89.94ZM916.67 67.756H918.17V67.192H916.67H915.17V67.756H916.67ZM916.67 67.192V68.692H930.77V67.192V65.692H916.67V67.192ZM930.77 67.192H929.27V68.884H930.77H932.27V67.192H930.77ZM930.77 68.884H929.27C929.27 70.4493 929.462 71.929 930.059 73.2415C930.673 74.5912 931.668 75.6617 933.086 76.4641C935.792 77.9948 940.086 78.562 946.468 78.562V77.062V75.562C940.065 75.562 936.51 74.9542 934.563 73.8529C933.655 73.3393 933.122 72.7295 932.79 71.9995C932.441 71.2323 932.27 70.2327 932.27 68.884H930.77ZM946.468 77.062V78.562C952.092 78.562 955.879 78.1551 958.281 77.0499C959.541 76.4701 960.492 75.6676 961.1 74.5841C961.695 73.5245 961.88 72.3407 961.88 71.14H960.38H958.88C958.88 72.0543 958.735 72.6683 958.484 73.1155C958.246 73.539 957.835 73.9527 957.027 74.3246C955.292 75.1229 952.124 75.562 946.468 75.562V77.062ZM960.38 71.14H961.88C961.88 70.0427 961.727 69.0102 961.314 68.0704C960.892 67.1119 960.238 66.3349 959.366 65.7055C957.706 64.5076 955.228 63.8336 951.989 63.2702L951.732 64.748L951.475 66.2258C954.721 66.7904 956.567 67.3854 957.61 68.138C958.089 68.4839 958.38 68.8524 958.567 69.2775C958.762 69.7213 958.88 70.3103 958.88 71.14H960.38ZM951.732 64.748L951.945 63.2632L934.273 60.7252L934.06 62.21L933.846 63.6948L951.518 66.2328L951.732 64.748ZM934.06 62.21L934.294 60.7285C928.828 59.8629 924.665 58.0901 921.884 55.4571C919.142 52.8623 917.606 49.3041 917.606 44.538H916.106H914.606C914.606 50.0179 916.406 54.4027 919.821 57.6359C923.197 60.8308 928.011 62.771 933.825 63.6915L934.06 62.21ZM916.106 44.538H917.606C917.606 40.218 919.348 35.7938 923.544 32.4174C927.766 29.0203 934.608 26.58 944.964 26.58V25.08V23.58C934.17 23.58 926.583 26.1217 921.663 30.0801C916.718 34.0592 914.606 39.364 914.606 44.538H916.106ZM944.964 25.08V26.58C954.439 26.58 961.146 28.7671 965.46 32.355C969.734 35.9098 971.852 40.999 971.852 47.264H973.352H974.852C974.852 40.275 972.457 34.2722 967.378 30.0485C962.339 25.8579 954.852 23.58 944.964 23.58V25.08ZM973.352 47.264H971.852V47.828H973.352H974.852V47.264H973.352ZM973.352 47.828V46.328H959.158V47.828V49.328H973.352V47.828ZM959.158 47.828H960.658V46.512H959.158H957.658V47.828H959.158ZM959.158 46.512H960.658C960.658 44.8933 960.451 43.3729 959.846 42.0236C959.226 40.6416 958.229 39.5308 956.809 38.6888C954.086 37.0741 949.809 36.458 943.554 36.458V37.958V39.458C949.8 39.458 953.325 40.1109 955.279 41.2692C956.197 41.8137 956.757 42.4654 957.109 43.2513C957.476 44.0699 957.658 45.1226 957.658 46.512H959.158ZM943.554 37.958V36.458C938.452 36.458 934.837 36.9418 932.461 38.1025C931.233 38.7026 930.282 39.5085 929.655 40.5604C929.031 41.6059 928.8 42.7721 928.8 43.974H930.3H931.8C931.8 43.1549 931.956 42.5586 932.231 42.0972C932.503 41.6421 932.962 41.1966 933.778 40.798C935.491 39.9611 938.503 39.458 943.554 39.458V37.958ZM930.3 43.974H928.8C928.8 46.1367 929.437 47.8833 931.077 49.1457C932.565 50.2921 934.724 50.9004 937.368 51.3726L937.632 49.896L937.895 48.4194C935.276 47.9516 933.768 47.4319 932.907 46.7688C932.196 46.2217 931.8 45.4773 931.8 43.974H930.3ZM937.632 49.896L937.395 51.3773L955.067 54.1973L955.304 52.716L955.54 51.2347L937.868 48.4147L937.632 49.896ZM955.304 52.716L955.067 54.1973C961.929 55.2952 966.38 57.4815 969.11 60.2545C971.812 62.9983 972.98 66.4689 972.98 70.482H974.48H975.98C975.98 65.8471 974.609 61.5627 971.248 58.1495C967.916 54.7655 962.779 52.3929 955.541 51.2348L955.304 52.716ZM974.48 70.482H972.98C972.98 75.1873 971.161 79.6043 967.047 82.8799C962.899 86.1835 956.269 88.44 946.468 88.44V89.94V91.44C956.689 91.44 964.064 89.0905 968.916 85.2266C973.804 81.3347 975.98 76.0227 975.98 70.482H974.48Z" fill="black"/>
</g>
<mask id="mask2_144_6427" style="mask-type:luminance" maskUnits="userSpaceOnUse" x="1026" y="71" width="21" height="19">
<path d="M1047 71H1026V90H1047V71Z" fill="white"/>
<path d="M1045.96 89H1027.82V72.55H1045.96V89Z" fill="black"/>
</mask>
<g mask="url(#mask2_144_6427)">
<path d="M1045.96 89V90H1046.96V89H1045.96ZM1027.82 89H1026.82V90H1027.82V89ZM1027.82 72.55V71.55H1026.82V72.55H1027.82ZM1045.96 72.55H1046.96V71.55H1045.96V72.55ZM1045.96 89V88H1027.82V89V90H1045.96V89ZM1027.82 89H1028.82V72.55H1027.82H1026.82V89H1027.82ZM1027.82 72.55V73.55H1045.96V72.55V71.55H1027.82V72.55ZM1045.96 72.55H1044.96V89H1045.96H1046.96V72.55H1045.96Z" fill="black"/>
</g>
<mask id="mask3_144_6427" style="mask-type:luminance" maskUnits="userSpaceOnUse" x="1096" y="23" width="977" height="69">
<path d="M2073 23H1096V92H2073V23Z" fill="white"/>
</mask>
<g mask="url(#mask3_144_6427)">
<path d="M1133.85 89V90.5H1134.96L1135.28 89.4369L1133.85 89ZM1112.89 89L1111.43 89.3443L1111.7 90.5H1112.89V89ZM1098.03 26.02V24.52H1096.14L1096.57 26.3643L1098.03 26.02ZM1113.83 26.02L1115.29 25.7073L1115.04 24.52H1113.83V26.02ZM1121.44 61.74L1122.92 61.5081V61.4675L1122.91 61.4273L1121.44 61.74ZM1123.6 75.558L1122.12 75.7899L1122.32 77.058H1123.6V75.558ZM1124.64 75.558V77.058H1125.85L1126.1 75.8675L1124.64 75.558ZM1127.55 61.74L1126.11 61.3159L1126.09 61.3726L1126.08 61.4305L1127.55 61.74ZM1138.08 26.02V24.52H1136.96L1136.64 25.5959L1138.08 26.02ZM1159.04 26.02L1160.48 25.5994L1160.16 24.52H1159.04V26.02ZM1169.47 61.74L1170.94 61.4305L1170.93 61.3744L1170.91 61.3194L1169.47 61.74ZM1172.39 75.558L1170.92 75.8675L1171.17 77.058H1172.39V75.558ZM1173.42 75.558V77.058H1174.71L1174.9 75.7899L1173.42 75.558ZM1175.58 61.74L1174.12 61.4273L1174.11 61.4675L1174.1 61.5081L1175.58 61.74ZM1183.2 26.02V24.52H1181.98L1181.73 25.7073L1183.2 26.02ZM1198.61 26.02L1200.07 26.3663L1200.51 24.52H1198.61V26.02ZM1183.67 89V90.5H1184.85L1185.13 89.3464L1183.67 89ZM1162.71 89L1161.27 89.4291L1161.59 90.5H1162.71V89ZM1153.31 57.51L1151.85 57.8649L1151.86 57.9022L1151.87 57.9391L1153.31 57.51ZM1148.89 39.368L1150.35 39.0131L1150.07 37.868H1148.89V39.368ZM1147.85 39.368V37.868H1146.68L1146.4 39.0131L1147.85 39.368ZM1143.44 57.51L1144.87 57.9469L1144.88 57.9062L1144.89 57.8649L1143.44 57.51ZM1133.85 89V87.5H1112.89V89V90.5H1133.85V89ZM1112.89 89L1114.35 88.6557L1099.49 25.6757L1098.03 26.02L1096.57 26.3643L1111.43 89.3443L1112.89 89ZM1098.03 26.02V27.52H1113.83V26.02V24.52H1098.03V26.02ZM1113.83 26.02L1112.36 26.3327L1119.97 62.0527L1121.44 61.74L1122.91 61.4273L1115.29 25.7073L1113.83 26.02ZM1121.44 61.74L1119.96 61.9719L1122.12 75.7899L1123.6 75.558L1125.08 75.3261L1122.92 61.5081L1121.44 61.74ZM1123.6 75.558V77.058H1124.64V75.558V74.058H1123.6V75.558ZM1124.64 75.558L1126.1 75.8675L1129.02 62.0495L1127.55 61.74L1126.08 61.4305L1123.17 75.2485L1124.64 75.558ZM1127.55 61.74L1128.99 62.1641L1139.52 26.4441L1138.08 26.02L1136.64 25.5959L1126.11 61.3159L1127.55 61.74ZM1138.08 26.02V27.52H1159.04V26.02V24.52H1138.08V26.02ZM1159.04 26.02L1157.6 26.4406L1168.03 62.1606L1169.47 61.74L1170.91 61.3194L1160.48 25.5994L1159.04 26.02ZM1169.47 61.74L1168.01 62.0495L1170.92 75.8675L1172.39 75.558L1173.86 75.2485L1170.94 61.4305L1169.47 61.74ZM1172.39 75.558V77.058H1173.42V75.558V74.058H1172.39V75.558ZM1173.42 75.558L1174.9 75.7899L1177.07 61.9719L1175.58 61.74L1174.1 61.5081L1171.94 75.3261L1173.42 75.558ZM1175.58 61.74L1177.05 62.0527L1184.67 26.3327L1183.2 26.02L1181.73 25.7073L1174.12 61.4273L1175.58 61.74ZM1183.2 26.02V27.52H1198.61V26.02V24.52H1183.2V26.02ZM1198.61 26.02L1197.15 25.6736L1182.21 88.6536L1183.67 89L1185.13 89.3464L1200.07 26.3663L1198.61 26.02ZM1183.67 89V87.5H1162.71V89V90.5H1183.67V89ZM1162.71 89L1164.14 88.5709L1154.74 57.0809L1153.31 57.51L1151.87 57.9391L1161.27 89.4291L1162.71 89ZM1153.31 57.51L1154.76 57.1551L1150.35 39.0131L1148.89 39.368L1147.43 39.7229L1151.85 57.8649L1153.31 57.51ZM1148.89 39.368V37.868H1147.85V39.368V40.868H1148.89V39.368ZM1147.85 39.368L1146.4 39.0131L1141.98 57.1551L1143.44 57.51L1144.89 57.8649L1149.31 39.7229L1147.85 39.368ZM1143.44 57.51L1142 57.0731L1132.41 88.5631L1133.85 89L1135.28 89.4369L1144.87 57.9469L1143.44 57.51ZM1237.79 89.94V88.44C1227.66 88.44 1219.61 85.3433 1214.09 80.0133C1208.57 74.6881 1205.45 66.9939 1205.45 57.51H1203.95H1202.45C1202.45 67.6721 1205.81 76.1929 1212 82.1712C1218.19 88.1447 1227.05 91.44 1237.79 91.44V89.94ZM1203.95 57.51H1205.45C1205.45 48.0261 1208.57 40.3319 1214.09 35.0067C1219.61 29.6767 1227.66 26.58 1237.79 26.58V25.08V23.58C1227.05 23.58 1218.19 26.8753 1212 32.8488C1205.81 38.8271 1202.45 47.3479 1202.45 57.51H1203.95ZM1237.79 25.08V26.58C1248.16 26.58 1256.31 29.6815 1261.86 35.0098C1267.41 40.3324 1270.51 48.0234 1270.51 57.51H1272.01H1273.51C1273.51 47.3506 1270.17 38.8266 1263.94 32.8457C1257.72 26.8705 1248.76 23.58 1237.79 23.58V25.08ZM1272.01 57.51H1270.51C1270.51 66.9966 1267.41 74.6876 1261.86 80.0102C1256.31 85.3385 1248.16 88.44 1237.79 88.44V89.94V91.44C1248.76 91.44 1257.72 88.1495 1263.94 82.1743C1270.17 76.1934 1273.51 67.6694 1273.51 57.51H1272.01ZM1237.79 76.404V77.904C1244.81 77.904 1250.11 76.678 1253.6 73.2863C1257.11 69.8835 1258.47 64.6417 1258.47 57.51H1256.97H1255.47C1255.47 64.3843 1254.14 68.5895 1251.52 71.1322C1248.88 73.686 1244.59 74.904 1237.79 74.904V76.404ZM1256.97 57.51H1258.47C1258.47 50.3783 1257.11 45.1365 1253.6 41.7337C1250.11 38.342 1244.81 37.116 1237.79 37.116V38.616V40.116C1244.59 40.116 1248.88 41.334 1251.52 43.8878C1254.14 46.4305 1255.47 50.6357 1255.47 57.51H1256.97ZM1237.79 38.616V37.116C1230.78 37.116 1225.54 38.341 1222.11 41.7459C1218.67 45.1535 1217.4 50.3958 1217.4 57.51H1218.9H1220.4C1220.4 50.6182 1221.66 46.4135 1224.22 43.8756C1226.78 41.335 1230.99 40.116 1237.79 40.116V38.616ZM1218.9 57.51H1217.4C1217.4 64.6242 1218.67 69.8665 1222.11 73.2741C1225.54 76.679 1230.78 77.904 1237.79 77.904V76.404V74.904C1230.99 74.904 1226.78 73.685 1224.22 71.1444C1221.66 68.6065 1220.4 64.4018 1220.4 57.51H1218.9ZM1294.14 89V90.5H1295.64V89H1294.14ZM1280.04 89H1278.54V90.5H1280.04V89ZM1280.04 26.02V24.52H1278.54V26.02H1280.04ZM1321.4 62.398L1321.25 60.9048L1319.9 61.0341V62.398H1321.4ZM1321.4 63.15H1319.9V64.3024L1321.01 64.5994L1321.4 63.15ZM1331.55 72.08L1330.22 72.7844L1330.23 72.7916L1331.55 72.08ZM1340.67 89V90.5H1343.18L1341.99 88.2884L1340.67 89ZM1324.31 89L1322.98 89.7011L1323.41 90.5H1324.31V89ZM1315.66 72.644L1314.33 73.3352L1314.34 73.3451L1315.66 72.644ZM1294.14 66.158V64.658H1292.64V66.158H1294.14ZM1294.14 38.71V37.21H1292.64V38.71H1294.14ZM1294.14 55.536H1292.64V57.036H1294.14V55.536ZM1294.14 89V87.5H1280.04V89V90.5H1294.14V89ZM1280.04 89H1281.54V26.02H1280.04H1278.54V89H1280.04ZM1280.04 26.02V27.52H1314.82V26.02V24.52H1280.04V26.02ZM1314.82 26.02V27.52C1322.38 27.52 1328.09 29.1961 1331.89 32.1399C1335.62 35.0414 1337.66 39.3032 1337.66 44.914H1339.16H1340.66C1340.66 38.4928 1338.28 33.3076 1333.72 29.7701C1329.22 26.2749 1322.76 24.52 1314.82 24.52V26.02ZM1339.16 44.914H1337.66C1337.66 49.739 1336.28 53.4087 1333.66 56.0125C1331.03 58.6372 1326.96 60.3612 1321.25 60.9048L1321.4 62.398L1321.54 63.8912C1327.67 63.3068 1332.49 61.4118 1335.78 58.138C1339.09 54.8433 1340.66 50.335 1340.66 44.914H1339.16ZM1321.4 62.398H1319.9V63.15H1321.4H1322.9V62.398H1321.4ZM1321.4 63.15L1321.01 64.5994C1323.62 65.2944 1325.33 66.308 1326.66 67.5992C1328.02 68.9193 1329.06 70.5996 1330.22 72.7844L1331.55 72.08L1332.87 71.3756C1331.68 69.1424 1330.47 67.1096 1328.75 65.4453C1327 63.752 1324.82 62.5096 1321.78 61.7006L1321.4 63.15ZM1331.55 72.08L1330.23 72.7916L1339.35 89.7116L1340.67 89L1341.99 88.2884L1332.87 71.3684L1331.55 72.08ZM1340.67 89V87.5H1324.31V89V90.5H1340.67V89ZM1324.31 89L1325.64 88.2989L1316.99 71.9429L1315.66 72.644L1314.34 73.3451L1322.98 89.7011L1324.31 89ZM1315.66 72.644L1316.99 71.9528C1315.68 69.4173 1314.28 67.4808 1312.08 66.2564C1309.91 65.0547 1307.17 64.658 1303.44 64.658V66.158V67.658C1307.04 67.658 1309.14 68.0603 1310.62 68.8796C1312.06 69.6762 1313.11 70.9827 1314.33 73.3352L1315.66 72.644ZM1303.44 66.158V64.658H1294.14V66.158V67.658H1303.44V66.158ZM1294.14 66.158H1292.64V89H1294.14H1295.64V66.158H1294.14ZM1294.14 38.71H1292.64V55.536H1294.14H1295.64V38.71H1294.14ZM1294.14 55.536V57.036H1314.72V55.536V54.036H1294.14V55.536ZM1314.72 55.536V57.036C1318.12 57.036 1321 56.5778 1323.01 54.9364C1325.11 53.2272 1325.9 50.5558 1325.9 47.076H1324.4H1322.9C1322.9 50.1762 1322.19 51.7348 1321.12 52.6106C1319.96 53.5542 1318 54.036 1314.72 54.036V55.536ZM1324.4 47.076H1325.9C1325.9 43.7564 1325.1 41.1324 1323.02 39.4121C1321.02 37.7506 1318.15 37.21 1314.72 37.21V38.71V40.21C1317.97 40.21 1319.94 40.7503 1321.11 41.7209C1322.21 42.6326 1322.9 44.1916 1322.9 47.076H1324.4ZM1314.72 38.71V37.21H1294.14V38.71V40.21H1314.72V38.71ZM1361.1 89V90.5H1362.6V89H1361.1ZM1347 89H1345.5V90.5H1347V89ZM1347 26.02V24.52H1345.5V26.02H1347ZM1361.1 26.02H1362.6V24.52H1361.1V26.02ZM1361.1 51.024H1359.6V52.524H1361.1V51.024ZM1376.8 51.024V52.524H1377.6L1378.04 51.8582L1376.8 51.024ZM1393.53 26.02V24.52H1392.73L1392.28 25.1858L1393.53 26.02ZM1410.45 26.02L1411.67 26.8852L1413.34 24.52H1410.45V26.02ZM1388.55 57.04L1387.32 56.1748L1386.72 57.0217L1387.31 57.8805L1388.55 57.04ZM1410.17 89V90.5H1412.99L1411.41 88.1595L1410.17 89ZM1393.25 89L1392 89.8354L1392.45 90.5H1393.25V89ZM1376.99 64.748L1378.23 63.9126L1377.79 63.248H1376.99V64.748ZM1361.1 64.748V63.248H1359.6V64.748H1361.1ZM1361.1 89V87.5H1347V89V90.5H1361.1V89ZM1347 89H1348.5V26.02H1347H1345.5V89H1347ZM1347 26.02V27.52H1361.1V26.02V24.52H1347V26.02ZM1361.1 26.02H1359.6V51.024H1361.1H1362.6V26.02H1361.1ZM1361.1 51.024V52.524H1376.8V51.024V49.524H1361.1V51.024ZM1376.8 51.024L1378.04 51.8582L1394.78 26.8542L1393.53 26.02L1392.28 25.1858L1375.55 50.1898L1376.8 51.024ZM1393.53 26.02V27.52H1410.45V26.02V24.52H1393.53V26.02ZM1410.45 26.02L1409.22 25.1548L1387.32 56.1748L1388.55 57.04L1389.77 57.9052L1411.67 26.8852L1410.45 26.02ZM1388.55 57.04L1387.31 57.8805L1408.93 89.8405L1410.17 89L1411.41 88.1595L1389.79 56.1995L1388.55 57.04ZM1410.17 89V87.5H1393.25V89V90.5H1410.17V89ZM1393.25 89L1394.49 88.1646L1378.23 63.9126L1376.99 64.748L1375.74 65.5834L1392 89.8354L1393.25 89ZM1376.99 64.748V63.248H1361.1V64.748V66.248H1376.99V64.748ZM1361.1 64.748H1359.6V89H1361.1H1362.6V64.748H1361.1ZM1446.38 89V90.5H1447.88V89H1446.38ZM1432.28 89H1430.78V90.5H1432.28V89ZM1432.28 26.02V24.52H1430.78V26.02H1432.28ZM1446.38 26.02H1447.88V24.52H1446.38V26.02ZM1446.38 89V87.5H1432.28V89V90.5H1446.38V89ZM1432.28 89H1433.78V26.02H1432.28H1430.78V89H1432.28ZM1432.28 26.02V27.52H1446.38V26.02V24.52H1432.28V26.02ZM1446.38 26.02H1444.88V89H1446.38H1447.88V26.02H1446.38ZM1469.74 89V90.5H1471.24V89H1469.74ZM1455.64 89H1454.14V90.5H1455.64V89ZM1455.64 26.02V24.52H1454.14V26.02H1455.64ZM1470.68 26.02L1471.87 25.1146L1471.42 24.52H1470.68V26.02ZM1493.24 55.818L1494.49 54.9983L1494.46 54.9544L1494.43 54.9126L1493.24 55.818ZM1501.88 69.072L1500.63 69.8917L1501.07 70.572H1501.88V69.072ZM1502.92 69.072V70.572H1504.5L1504.42 68.9943L1502.92 69.072ZM1502.26 56.382H1500.76V56.4209V56.4597L1502.26 56.382ZM1502.26 26.02V24.52H1500.76V26.02H1502.26ZM1516.36 26.02H1517.86V24.52H1516.36V26.02ZM1516.36 89V90.5H1517.86V89H1516.36ZM1501.32 89L1500.13 89.9165L1500.58 90.5H1501.32V89ZM1478.1 58.92L1476.86 59.7589L1476.89 59.7986L1476.91 59.8365L1478.1 58.92ZM1470.11 47.076L1471.36 46.2371L1470.91 45.576H1470.11V47.076ZM1469.17 47.076V45.576H1467.6L1467.67 47.1491L1469.17 47.076ZM1469.74 58.638H1471.24V58.6014L1471.23 58.5649L1469.74 58.638ZM1469.74 89V87.5H1455.64V89V90.5H1469.74V89ZM1455.64 89H1457.14V26.02H1455.64H1454.14V89H1455.64ZM1455.64 26.02V27.52H1470.68V26.02V24.52H1455.64V26.02ZM1470.68 26.02L1469.48 26.9254L1492.04 56.7234L1493.24 55.818L1494.43 54.9126L1471.87 25.1146L1470.68 26.02ZM1493.24 55.818L1491.98 56.6377L1500.63 69.8917L1501.88 69.072L1503.14 68.2523L1494.49 54.9983L1493.24 55.818ZM1501.88 69.072V70.572H1502.92V69.072V67.572H1501.88V69.072ZM1502.92 69.072L1504.42 68.9943L1503.76 56.3043L1502.26 56.382L1500.76 56.4597L1501.42 69.1497L1502.92 69.072ZM1502.26 56.382H1503.76V26.02H1502.26H1500.76V56.382H1502.26ZM1502.26 26.02V27.52H1516.36V26.02V24.52H1502.26V26.02ZM1516.36 26.02H1514.86V89H1516.36H1517.86V26.02H1516.36ZM1516.36 89V87.5H1501.32V89V90.5H1516.36V89ZM1501.32 89L1502.51 88.0835L1479.29 58.0035L1478.1 58.92L1476.91 59.8365L1500.13 89.9165L1501.32 89ZM1478.1 58.92L1479.35 58.0811L1471.36 46.2371L1470.11 47.076L1468.87 47.9149L1476.86 59.7589L1478.1 58.92ZM1470.11 47.076V45.576H1469.17V47.076V48.576H1470.11V47.076ZM1469.17 47.076L1467.67 47.1491L1468.24 58.7111L1469.74 58.638L1471.23 58.5649L1470.67 47.0029L1469.17 47.076ZM1469.74 58.638H1468.24V89H1469.74H1471.24V58.638H1469.74ZM1556.2 89V90.5H1557.7V89H1556.2ZM1542.1 89H1540.6V90.5H1542.1V89ZM1542.1 26.02V24.52H1540.6V26.02H1542.1ZM1556.2 71.61V70.11H1554.7V71.61H1556.2ZM1556.2 38.71V37.21H1554.7V38.71H1556.2ZM1556.2 58.92H1554.7V60.42H1556.2V58.92ZM1556.2 89V87.5H1542.1V89V90.5H1556.2V89ZM1542.1 89H1543.6V26.02H1542.1H1540.6V89H1542.1ZM1542.1 26.02V27.52H1575V26.02V24.52H1542.1V26.02ZM1575 26.02V27.52C1582.01 27.52 1587.61 29.5067 1591.43 33.0641C1595.24 36.6077 1597.47 41.8669 1597.47 48.768H1598.97H1600.47C1600.47 41.1931 1598.01 35.0783 1593.47 30.8669C1588.96 26.6693 1582.57 24.52 1575 24.52V26.02ZM1598.97 48.768H1597.47C1597.47 55.6696 1595.24 60.9543 1591.43 64.5219C1587.6 68.1021 1582.01 70.11 1575 70.11V71.61V73.11C1582.57 73.11 1588.96 70.9347 1593.48 66.7131C1598.01 62.4787 1600.47 56.3424 1600.47 48.768H1598.97ZM1575 71.61V70.11H1556.2V71.61V73.11H1575V71.61ZM1556.2 71.61H1554.7V89H1556.2H1557.7V71.61H1556.2ZM1573.5 38.71V37.21H1556.2V38.71V40.21H1573.5V38.71ZM1556.2 38.71H1554.7V58.92H1556.2H1557.7V38.71H1556.2ZM1556.2 58.92V60.42H1573.5V58.92V57.42H1556.2V58.92ZM1573.5 58.92V60.42C1577.47 60.42 1580.79 59.8655 1583.11 57.965C1585.51 56.0001 1586.47 52.9121 1586.47 48.768H1584.97H1583.47C1583.47 52.5199 1582.6 54.5079 1581.21 55.645C1579.74 56.8465 1577.34 57.42 1573.5 57.42V58.92ZM1584.97 48.768H1586.47C1586.47 44.7066 1585.5 41.6487 1583.11 39.6885C1580.8 37.7915 1577.48 37.21 1573.5 37.21V38.71V40.21C1577.33 40.21 1579.74 40.8035 1581.21 42.0085C1582.6 43.1503 1583.47 45.1214 1583.47 48.768H1584.97ZM1619.96 89V90.5H1621.46V89H1619.96ZM1605.86 89H1604.36V90.5H1605.86V89ZM1605.86 26.02V24.52H1604.36V26.02H1605.86ZM1647.22 62.398L1647.07 60.9048L1645.72 61.0341V62.398H1647.22ZM1647.22 63.15H1645.72V64.3024L1646.83 64.5994L1647.22 63.15ZM1657.37 72.08L1656.04 72.7844L1656.05 72.7916L1657.37 72.08ZM1666.49 89V90.5H1669L1667.81 88.2884L1666.49 89ZM1650.13 89L1648.8 89.7011L1649.23 90.5H1650.13V89ZM1641.48 72.644L1640.15 73.3352L1640.16 73.3451L1641.48 72.644ZM1619.96 66.158V64.658H1618.46V66.158H1619.96ZM1619.96 38.71V37.21H1618.46V38.71H1619.96ZM1619.96 55.536H1618.46V57.036H1619.96V55.536ZM1619.96 89V87.5H1605.86V89V90.5H1619.96V89ZM1605.86 89H1607.36V26.02H1605.86H1604.36V89H1605.86ZM1605.86 26.02V27.52H1640.64V26.02V24.52H1605.86V26.02ZM1640.64 26.02V27.52C1648.2 27.52 1653.91 29.1961 1657.71 32.1399C1661.44 35.0414 1663.48 39.3032 1663.48 44.914H1664.98H1666.48C1666.48 38.4928 1664.1 33.3076 1659.54 29.7701C1655.04 26.2749 1648.58 24.52 1640.64 24.52V26.02ZM1664.98 44.914H1663.48C1663.48 49.739 1662.1 53.4087 1659.48 56.0125C1656.85 58.6372 1652.78 60.3612 1647.07 60.9048L1647.22 62.398L1647.36 63.8912C1653.5 63.3068 1658.31 61.4118 1661.6 58.138C1664.91 54.8433 1666.48 50.335 1666.48 44.914H1664.98ZM1647.22 62.398H1645.72V63.15H1647.22H1648.72V62.398H1647.22ZM1647.22 63.15L1646.83 64.5994C1649.44 65.2944 1651.15 66.308 1652.48 67.5992C1653.84 68.9193 1654.88 70.5996 1656.04 72.7844L1657.37 72.08L1658.69 71.3756C1657.5 69.1424 1656.29 67.1096 1654.57 65.4453C1652.82 63.752 1650.64 62.5096 1647.6 61.7006L1647.22 63.15ZM1657.37 72.08L1656.05 72.7916L1665.17 89.7116L1666.49 89L1667.81 88.2884L1658.69 71.3684L1657.37 72.08ZM1666.49 89V87.5H1650.13V89V90.5H1666.49V89ZM1650.13 89L1651.46 88.2989L1642.81 71.9429L1641.48 72.644L1640.16 73.3451L1648.8 89.7011L1650.13 89ZM1641.48 72.644L1642.81 71.9528C1641.5 69.4173 1640.1 67.4808 1637.9 66.2564C1635.73 65.0547 1632.99 64.658 1629.26 64.658V66.158V67.658C1632.86 67.658 1634.97 68.0603 1636.44 68.8796C1637.88 69.6762 1638.93 70.9827 1640.15 73.3352L1641.48 72.644ZM1629.26 66.158V64.658H1619.96V66.158V67.658H1629.26V66.158ZM1619.96 66.158H1618.46V89H1619.96H1621.46V66.158H1619.96ZM1619.96 38.71H1618.46V55.536H1619.96H1621.46V38.71H1619.96ZM1619.96 55.536V57.036H1640.54V55.536V54.036H1619.96V55.536ZM1640.54 55.536V57.036C1643.94 57.036 1646.82 56.5778 1648.83 54.9364C1650.93 53.2272 1651.72 50.5558 1651.72 47.076H1650.22H1648.72C1648.72 50.1762 1648.01 51.7348 1646.94 52.6106C1645.78 53.5542 1643.82 54.036 1640.54 54.036V55.536ZM1650.22 47.076H1651.72C1651.72 43.7564 1650.92 41.1324 1648.84 39.4121C1646.84 37.7506 1643.97 37.21 1640.54 37.21V38.71V40.21C1643.79 40.21 1645.76 40.7503 1646.93 41.7209C1648.03 42.6326 1648.72 44.1916 1648.72 47.076H1650.22ZM1640.54 38.71V37.21H1619.96V38.71V40.21H1640.54V38.71ZM1705.25 89.94V88.44C1695.12 88.44 1687.06 85.3433 1681.55 80.0133C1676.03 74.6881 1672.91 66.9939 1672.91 57.51H1671.41H1669.91C1669.91 67.6721 1673.27 76.1929 1679.46 82.1712C1685.65 88.1447 1694.51 91.44 1705.25 91.44V89.94ZM1671.41 57.51H1672.91C1672.91 48.0261 1676.03 40.3319 1681.55 35.0067C1687.06 29.6767 1695.12 26.58 1705.25 26.58V25.08V23.58C1694.51 23.58 1685.65 26.8753 1679.46 32.8488C1673.27 38.8271 1669.91 47.3479 1669.91 57.51H1671.41ZM1705.25 25.08V26.58C1715.62 26.58 1723.77 29.6815 1729.32 35.0098C1734.86 40.3324 1737.97 48.0234 1737.97 57.51H1739.47H1740.97C1740.97 47.3506 1737.63 38.8266 1731.4 32.8457C1725.17 26.8705 1716.22 23.58 1705.25 23.58V25.08ZM1739.47 57.51H1737.97C1737.97 66.9966 1734.86 74.6876 1729.32 80.0102C1723.77 85.3385 1715.62 88.44 1705.25 88.44V89.94V91.44C1716.22 91.44 1725.17 88.1495 1731.4 82.1743C1737.63 76.1934 1740.97 67.6694 1740.97 57.51H1739.47ZM1705.25 76.404V77.904C1712.27 77.904 1717.56 76.678 1721.06 73.2863C1724.57 69.8835 1725.93 64.6417 1725.93 57.51H1724.43H1722.93C1722.93 64.3843 1721.6 68.5895 1718.98 71.1322C1716.34 73.686 1712.05 74.904 1705.25 74.904V76.404ZM1724.43 57.51H1725.93C1725.93 50.3783 1724.57 45.1365 1721.06 41.7337C1717.56 38.342 1712.27 37.116 1705.25 37.116V38.616V40.116C1712.05 40.116 1716.34 41.334 1718.98 43.8878C1721.6 46.4305 1722.93 50.6357 1722.93 57.51H1724.43ZM1705.25 38.616V37.116C1698.24 37.116 1693 38.341 1689.56 41.7459C1686.13 45.1535 1684.86 50.3958 1684.86 57.51H1686.36H1687.86C1687.86 50.6182 1689.12 46.4135 1691.68 43.8756C1694.24 41.335 1698.45 40.116 1705.25 40.116V38.616ZM1686.36 57.51H1684.86C1684.86 64.6242 1686.13 69.8665 1689.56 73.2741C1693 76.679 1698.24 77.904 1705.25 77.904V76.404V74.904C1698.45 74.904 1694.24 73.685 1691.68 71.1444C1689.12 68.6065 1687.86 64.4018 1687.86 57.51H1686.36ZM1813.29 50.178V51.678H1814.79V50.178H1813.29ZM1797.6 50.178H1796.1V51.678H1797.6V50.178ZM1799.29 66.158L1800.79 66.2285L1800.86 64.658H1799.29V66.158ZM1777.95 66.158H1776.45V67.658H1777.95V66.158ZM1777.95 55.724V54.224H1776.45V55.724H1777.95ZM1813.39 55.724H1814.89V54.224H1813.39V55.724ZM1813.39 89V90.5H1814.89V89H1813.39ZM1800.32 89H1798.82V90.5H1800.32V89ZM1800.32 75.464H1801.82V73.964H1800.32V75.464ZM1799.57 75.464V73.964H1798.41L1798.12 75.0847L1799.57 75.464ZM1777.2 89.94V88.44C1767.91 88.44 1760.55 85.3669 1755.5 80.0591C1750.45 74.742 1747.58 67.0333 1747.58 57.51H1746.08H1744.58C1744.58 67.6327 1747.64 76.139 1753.33 82.1254C1759.02 88.121 1767.22 91.44 1777.2 91.44V89.94ZM1746.08 57.51H1747.58C1747.58 48.0397 1750.79 40.3511 1756.49 35.023C1762.19 29.6854 1770.54 26.58 1781.05 26.58V25.08V23.58C1769.95 23.58 1760.81 26.8666 1754.44 32.8325C1748.05 38.8079 1744.58 47.3343 1744.58 57.51H1746.08ZM1781.05 25.08V26.58C1790.71 26.58 1798.42 28.8362 1803.68 32.7777C1808.88 36.6837 1811.79 42.3219 1811.79 49.426H1813.29H1814.79C1814.79 41.3961 1811.45 34.8613 1805.48 30.3777C1799.55 25.9298 1791.13 23.58 1781.05 23.58V25.08ZM1813.29 49.426H1811.79V50.178H1813.29H1814.79V49.426H1813.29ZM1813.29 50.178V48.678H1797.6V50.178V51.678H1813.29V50.178ZM1797.6 50.178H1799.1V49.426H1797.6H1796.1V50.178H1797.6ZM1797.6 49.426H1799.1C1799.1 45.3851 1797.74 42.1464 1794.51 40.0184C1791.42 37.9843 1786.82 37.116 1780.68 37.116V38.616V40.116C1786.66 40.116 1790.52 40.9867 1792.86 42.5246C1795.05 43.9686 1796.1 46.1349 1796.1 49.426H1797.6ZM1780.68 38.616V37.116C1773.44 37.116 1768.02 38.3382 1764.46 41.7239C1760.88 45.1286 1759.53 50.3789 1759.53 57.51H1761.03H1762.53C1762.53 50.6351 1763.86 46.4384 1766.53 43.8976C1769.22 41.3378 1773.63 40.116 1780.68 40.116V38.616ZM1761.03 57.51H1759.53C1759.53 64.63 1760.83 69.8722 1764.29 73.2782C1767.74 76.6787 1773 77.904 1780.02 77.904V76.404V74.904C1773.22 74.904 1768.98 73.6852 1766.4 71.1403C1763.82 68.6007 1762.53 64.396 1762.53 57.51H1761.03ZM1780.02 76.404V77.904C1787.23 77.904 1792.31 77.3608 1795.64 75.6038C1797.37 74.6921 1798.64 73.4495 1799.49 71.821C1800.32 70.2235 1800.69 68.3469 1800.79 66.2285L1799.29 66.158L1797.79 66.0875C1797.7 67.9641 1797.38 69.3657 1796.82 70.4385C1796.28 71.4802 1795.47 72.2997 1794.24 72.9507C1791.65 74.3192 1787.28 74.904 1780.02 74.904V76.404ZM1799.29 66.158V64.658H1777.95V66.158V67.658H1799.29V66.158ZM1777.95 66.158H1779.45V55.724H1777.95H1776.45V66.158H1777.95ZM1777.95 55.724V57.224H1813.39V55.724V54.224H1777.95V55.724ZM1813.39 55.724H1811.89V89H1813.39H1814.89V55.724H1813.39ZM1813.39 89V87.5H1800.32V89V90.5H1813.39V89ZM1800.32 89H1801.82V75.464H1800.32H1798.82V89H1800.32ZM1800.32 75.464V73.964H1799.57V75.464V76.964H1800.32V75.464ZM1799.57 75.464L1798.12 75.0847C1797.11 78.9384 1795.1 82.2344 1791.81 84.5834C1788.51 86.9408 1783.79 88.44 1777.2 88.44V89.94V91.44C1784.24 91.44 1789.62 89.8371 1793.56 87.0246C1797.51 84.2036 1799.87 80.2616 1801.02 75.8433L1799.57 75.464ZM1836.27 89V90.5H1837.77V89H1836.27ZM1822.17 89H1820.67V90.5H1822.17V89ZM1822.17 26.02V24.52H1820.67V26.02H1822.17ZM1863.53 62.398L1863.39 60.9048L1862.03 61.0341V62.398H1863.53ZM1863.53 63.15H1862.03V64.3024L1863.14 64.5994L1863.53 63.15ZM1873.68 72.08L1872.36 72.7844V72.7916L1873.68 72.08ZM1882.8 89V90.5H1885.31L1884.12 88.2884L1882.8 89ZM1866.44 89L1865.12 89.7011L1865.54 90.5H1866.44V89ZM1857.8 72.644L1856.46 73.3352L1856.47 73.3451L1857.8 72.644ZM1836.27 66.158V64.658H1834.77V66.158H1836.27ZM1836.27 38.71V37.21H1834.77V38.71H1836.27ZM1836.27 55.536H1834.77V57.036H1836.27V55.536ZM1836.27 89V87.5H1822.17V89V90.5H1836.27V89ZM1822.17 89H1823.67V26.02H1822.17H1820.67V89H1822.17ZM1822.17 26.02V27.52H1856.95V26.02V24.52H1822.17V26.02ZM1856.95 26.02V27.52C1864.51 27.52 1870.23 29.1961 1874.02 32.1399C1877.76 35.0414 1879.8 39.3032 1879.8 44.914H1881.3H1882.8C1882.8 38.4928 1880.42 33.3076 1875.86 29.7701C1871.36 26.2749 1864.9 24.52 1856.95 24.52V26.02ZM1881.3 44.914H1879.8C1879.8 49.739 1878.41 53.4087 1875.8 56.0125C1873.16 58.6372 1869.09 60.3612 1863.39 60.9048L1863.53 62.398L1863.67 63.8912C1869.81 63.3068 1874.63 61.4118 1877.91 58.138C1881.22 54.8433 1882.8 50.335 1882.8 44.914H1881.3ZM1863.53 62.398H1862.03V63.15H1863.53H1865.03V62.398H1863.53ZM1863.53 63.15L1863.14 64.5994C1865.75 65.2944 1867.46 66.308 1868.8 67.5992C1870.16 68.9193 1871.2 70.5996 1872.36 72.7844L1873.68 72.08L1875.01 71.3756C1873.82 69.1424 1872.6 67.1096 1870.88 65.4453C1869.14 63.752 1866.95 62.5096 1863.92 61.7006L1863.53 63.15ZM1873.68 72.08L1872.36 72.7916L1881.48 89.7116L1882.8 89L1884.12 88.2884L1875 71.3684L1873.68 72.08ZM1882.8 89V87.5H1866.44V89V90.5H1882.8V89ZM1866.44 89L1867.77 88.2989L1859.12 71.9429L1857.8 72.644L1856.47 73.3451L1865.12 89.7011L1866.44 89ZM1857.8 72.644L1859.13 71.9528C1857.81 69.4173 1856.42 67.4808 1854.21 66.2564C1852.05 65.0547 1849.31 64.658 1845.58 64.658V66.158V67.658C1849.18 67.658 1851.28 68.0603 1852.76 68.8796C1854.19 69.6762 1855.24 70.9827 1856.46 73.3352L1857.8 72.644ZM1845.58 66.158V64.658H1836.27V66.158V67.658H1845.58V66.158ZM1836.27 66.158H1834.77V89H1836.27H1837.77V66.158H1836.27ZM1836.27 38.71H1834.77V55.536H1836.27H1837.77V38.71H1836.27ZM1836.27 55.536V57.036H1856.86V55.536V54.036H1836.27V55.536ZM1856.86 55.536V57.036C1860.25 57.036 1863.13 56.5778 1865.15 54.9364C1867.24 53.2272 1868.04 50.5558 1868.04 47.076H1866.54H1865.04C1865.04 50.1762 1864.33 51.7348 1863.25 52.6106C1862.09 53.5542 1860.14 54.036 1856.86 54.036V55.536ZM1866.54 47.076H1868.04C1868.04 43.7564 1867.23 41.1324 1865.16 39.4121C1863.15 37.7506 1860.29 37.21 1856.86 37.21V38.71V40.21C1860.1 40.21 1862.07 40.7503 1863.24 41.7209C1864.34 42.6326 1865.04 44.1916 1865.04 47.076H1866.54ZM1856.86 38.71V37.21H1836.27V38.71V40.21H1856.86V38.71ZM1942.43 89V90.5H1943.93V89H1942.43ZM1889.13 89H1887.63V90.5H1889.13V89ZM1889.13 26.02V24.52H1887.63V26.02H1889.13ZM1942.43 26.02H1943.93V24.52H1942.43V26.02ZM1942.43 38.71V40.21H1943.93V38.71H1942.43ZM1903.23 38.71V37.21H1901.73V38.71H1903.23ZM1903.23 51.024H1901.73V52.524H1903.23V51.024ZM1941.02 51.024H1942.52V49.524H1941.02V51.024ZM1941.02 63.62V65.12H1942.52V63.62H1941.02ZM1903.23 63.62V62.12H1901.73V63.62H1903.23ZM1903.23 76.31H1901.73V77.81H1903.23V76.31ZM1942.43 76.31H1943.93V74.81H1942.43V76.31ZM1942.43 89V87.5H1889.13V89V90.5H1942.43V89ZM1889.13 89H1890.63V26.02H1889.13H1887.63V89H1889.13ZM1889.13 26.02V27.52H1942.43V26.02V24.52H1889.13V26.02ZM1942.43 26.02H1940.93V38.71H1942.43H1943.93V26.02H1942.43ZM1942.43 38.71V37.21H1903.23V38.71V40.21H1942.43V38.71ZM1903.23 38.71H1901.73V51.024H1903.23H1904.73V38.71H1903.23ZM1903.23 51.024V52.524H1941.02V51.024V49.524H1903.23V51.024ZM1941.02 51.024H1939.52V63.62H1941.02H1942.52V51.024H1941.02ZM1941.02 63.62V62.12H1903.23V63.62V65.12H1941.02V63.62ZM1903.23 63.62H1901.73V76.31H1903.23H1904.73V63.62H1903.23ZM1903.23 76.31V77.81H1942.43V76.31V74.81H1903.23V76.31ZM1942.43 76.31H1940.93V89H1942.43H1943.93V76.31H1942.43ZM1949.46 67.192V65.692H1947.96V67.192H1949.46ZM1963.56 67.192H1965.06V65.692H1963.56V67.192ZM1984.52 64.748L1984.78 63.2702L1984.76 63.2664L1984.73 63.2632L1984.52 64.748ZM1966.85 62.21L1966.61 63.6915L1966.63 63.6932L1966.64 63.6948L1966.85 62.21ZM2006.14 47.828V49.328H2007.64V47.828H2006.14ZM1991.95 47.828H1990.45V49.328H1991.95V47.828ZM1970.42 49.896L1970.16 51.3726L1970.17 51.3751L1970.19 51.3773L1970.42 49.896ZM1979.26 89.94V88.44C1969.88 88.44 1962.79 86.5857 1958.09 83.1373C1953.46 79.7443 1950.96 74.6771 1950.96 67.756H1949.46H1947.96C1947.96 75.4989 1950.82 81.5237 1956.32 85.5567C1961.74 89.5343 1969.56 91.44 1979.26 91.44V89.94ZM1949.46 67.756H1950.96V67.192H1949.46H1947.96V67.756H1949.46ZM1949.46 67.192V68.692H1963.56V67.192V65.692H1949.46V67.192ZM1963.56 67.192H1962.06V68.884H1963.56H1965.06V67.192H1963.56ZM1963.56 68.884H1962.06C1962.06 70.4493 1962.25 71.929 1962.85 73.2415C1963.46 74.5912 1964.46 75.6617 1965.88 76.4641C1968.58 77.9948 1972.88 78.562 1979.26 78.562V77.062V75.562C1972.86 75.562 1969.3 74.9542 1967.35 73.8529C1966.45 73.3393 1965.91 72.7295 1965.58 71.9995C1965.23 71.2323 1965.06 70.2327 1965.06 68.884H1963.56ZM1979.26 77.062V78.562C1984.88 78.562 1988.67 78.1551 1991.07 77.0499C1992.33 76.4701 1993.28 75.6676 1993.89 74.5841C1994.48 73.5245 1994.67 72.3407 1994.67 71.14H1993.17H1991.67C1991.67 72.0543 1991.53 72.6683 1991.27 73.1155C1991.04 73.539 1990.62 73.9527 1989.82 74.3246C1988.08 75.1229 1984.91 75.562 1979.26 75.562V77.062ZM1993.17 71.14H1994.67C1994.67 70.0427 1994.52 69.0102 1994.1 68.0704C1993.68 67.1119 1993.03 66.3349 1992.16 65.7055C1990.5 64.5076 1988.02 63.8336 1984.78 63.2702L1984.52 64.748L1984.26 66.2258C1987.51 66.7904 1989.36 67.3854 1990.4 68.138C1990.88 68.4839 1991.17 68.8524 1991.36 69.2775C1991.55 69.7213 1991.67 70.3103 1991.67 71.14H1993.17ZM1984.52 64.748L1984.73 63.2632L1967.06 60.7252L1966.85 62.21L1966.64 63.6948L1984.31 66.2328L1984.52 64.748ZM1966.85 62.21L1967.08 60.7285C1961.62 59.8629 1957.46 58.0901 1954.67 55.4571C1951.93 52.8623 1950.4 49.3041 1950.4 44.538H1948.9H1947.4C1947.4 50.0179 1949.2 54.4027 1952.61 57.6359C1955.99 60.8308 1960.8 62.771 1966.61 63.6915L1966.85 62.21ZM1948.9 44.538H1950.4C1950.4 40.218 1952.14 35.7938 1956.33 32.4174C1960.56 29.0203 1967.4 26.58 1977.75 26.58V25.08V23.58C1966.96 23.58 1959.37 26.1217 1954.45 30.0801C1949.51 34.0592 1947.4 39.364 1947.4 44.538H1948.9ZM1977.75 25.08V26.58C1987.23 26.58 1993.94 28.7671 1998.25 32.355C2002.52 35.9098 2004.64 40.999 2004.64 47.264H2006.14H2007.64C2007.64 40.275 2005.25 34.2722 2000.17 30.0485C1995.13 25.8579 1987.64 23.58 1977.75 23.58V25.08ZM2006.14 47.264H2004.64V47.828H2006.14H2007.64V47.264H2006.14ZM2006.14 47.828V46.328H1991.95V47.828V49.328H2006.14V47.828ZM1991.95 47.828H1993.45V46.512H1991.95H1990.45V47.828H1991.95ZM1991.95 46.512H1993.45C1993.45 44.8933 1993.24 43.3729 1992.64 42.0236C1992.02 40.6416 1991.02 39.5308 1989.6 38.6888C1986.88 37.0741 1982.6 36.458 1976.34 36.458V37.958V39.458C1982.59 39.458 1986.12 40.1109 1988.07 41.2692C1988.99 41.8137 1989.55 42.4654 1989.9 43.2513C1990.27 44.0699 1990.45 45.1226 1990.45 46.512H1991.95ZM1976.34 37.958V36.458C1971.24 36.458 1967.63 36.9418 1965.25 38.1025C1964.02 38.7026 1963.07 39.5085 1962.44 40.5604C1961.82 41.6059 1961.59 42.7721 1961.59 43.974H1963.09H1964.59C1964.59 43.1549 1964.75 42.5586 1965.02 42.0972C1965.29 41.6421 1965.75 41.1966 1966.57 40.798C1968.28 39.9611 1971.29 39.458 1976.34 39.458V37.958ZM1963.09 43.974H1961.59C1961.59 46.1367 1962.23 47.8833 1963.87 49.1457C1965.36 50.2921 1967.51 50.9004 1970.16 51.3726L1970.42 49.896L1970.69 48.4194C1968.07 47.9516 1966.56 47.4319 1965.7 46.7688C1964.99 46.2217 1964.59 45.4773 1964.59 43.974H1963.09ZM1970.42 49.896L1970.19 51.3773L1987.86 54.1973L1988.09 52.716L1988.33 51.2348L1970.66 48.4147L1970.42 49.896ZM1988.09 52.716L1987.86 54.1973C1994.72 55.2952 1999.17 57.4815 2001.9 60.2545C2004.6 62.9983 2005.77 66.4689 2005.77 70.482H2007.27H2008.77C2008.77 65.8471 2007.4 61.5627 2004.04 58.1495C2000.71 54.7655 1995.57 52.3929 1988.33 51.2348L1988.09 52.716ZM2007.27 70.482H2005.77C2005.77 75.1873 2003.95 79.6043 1999.84 82.8799C1995.69 86.1835 1989.06 88.44 1979.26 88.44V89.94V91.44C1989.48 91.44 1996.85 89.0905 2001.71 85.2266C2006.59 81.3347 2008.77 76.0227 2008.77 70.482H2007.27ZM2013.67 67.192V65.692H2012.17V67.192H2013.67ZM2027.77 67.192H2029.27V65.692H2027.77V67.192ZM2048.73 64.748L2048.99 63.2702L2048.97 63.2664L2048.94 63.2632L2048.73 64.748ZM2031.06 62.21L2030.83 63.6915L2030.84 63.6932L2030.85 63.6948L2031.06 62.21ZM2070.35 47.828V49.328H2071.85V47.828H2070.35ZM2056.16 47.828H2054.66V49.328H2056.16V47.828ZM2034.63 49.896L2034.37 51.3726L2034.38 51.3751L2034.4 51.3773L2034.63 49.896ZM2043.47 89.94V88.44C2034.09 88.44 2027 86.5857 2022.3 83.1373C2017.67 79.7443 2015.17 74.6771 2015.17 67.756H2013.67H2012.17C2012.17 75.4989 2015.03 81.5237 2020.53 85.5567C2025.95 89.5343 2033.77 91.44 2043.47 91.44V89.94ZM2013.67 67.756H2015.17V67.192H2013.67H2012.17V67.756H2013.67ZM2013.67 67.192V68.692H2027.77V67.192V65.692H2013.67V67.192ZM2027.77 67.192H2026.27V68.884H2027.77H2029.27V67.192H2027.77ZM2027.77 68.884H2026.27C2026.27 70.4493 2026.46 71.929 2027.06 73.2415C2027.67 74.5912 2028.67 75.6617 2030.09 76.4641C2032.79 77.9948 2037.09 78.562 2043.47 78.562V77.062V75.562C2037.07 75.562 2033.51 74.9542 2031.56 73.8529C2030.66 73.3393 2030.12 72.7295 2029.79 71.9995C2029.44 71.2323 2029.27 70.2327 2029.27 68.884H2027.77ZM2043.47 77.062V78.562C2049.09 78.562 2052.88 78.1551 2055.28 77.0499C2056.54 76.4701 2057.49 75.6676 2058.1 74.5841C2058.7 73.5245 2058.88 72.3407 2058.88 71.14H2057.38H2055.88C2055.88 72.0543 2055.74 72.6683 2055.48 73.1155C2055.25 73.539 2054.83 73.9527 2054.03 74.3246C2052.29 75.1229 2049.12 75.562 2043.47 75.562V77.062ZM2057.38 71.14H2058.88C2058.88 70.0427 2058.73 69.0102 2058.31 68.0704C2057.89 67.1119 2057.24 66.3349 2056.37 65.7055C2054.71 64.5076 2052.23 63.8336 2048.99 63.2702L2048.73 64.748L2048.47 66.2258C2051.72 66.7904 2053.57 67.3854 2054.61 68.138C2055.09 68.4839 2055.38 68.8524 2055.57 69.2775C2055.76 69.7213 2055.88 70.3103 2055.88 71.14H2057.38ZM2048.73 64.748L2048.94 63.2632L2031.27 60.7252L2031.06 62.21L2030.85 63.6948L2048.52 66.2328L2048.73 64.748ZM2031.06 62.21L2031.29 60.7285C2025.83 59.8629 2021.67 58.0901 2018.88 55.4571C2016.14 52.8623 2014.61 49.3041 2014.61 44.538H2013.11H2011.61C2011.61 50.0179 2013.41 54.4027 2016.82 57.6359C2020.2 60.8308 2025.01 62.771 2030.83 63.6915L2031.06 62.21ZM2013.11 44.538H2014.61C2014.61 40.218 2016.35 35.7938 2020.54 32.4174C2024.77 29.0203 2031.61 26.58 2041.96 26.58V25.08V23.58C2031.17 23.58 2023.58 26.1217 2018.66 30.0801C2013.72 34.0592 2011.61 39.364 2011.61 44.538H2013.11ZM2041.96 25.08V26.58C2051.44 26.58 2058.15 28.7671 2062.46 32.355C2066.73 35.9098 2068.85 40.999 2068.85 47.264H2070.35H2071.85C2071.85 40.275 2069.46 34.2722 2064.38 30.0485C2059.34 25.8579 2051.85 23.58 2041.96 23.58V25.08ZM2070.35 47.264H2068.85V47.828H2070.35H2071.85V47.264H2070.35ZM2070.35 47.828V46.328H2056.16V47.828V49.328H2070.35V47.828ZM2056.16 47.828H2057.66V46.512H2056.16H2054.66V47.828H2056.16ZM2056.16 46.512H2057.66C2057.66 44.8933 2057.45 43.3729 2056.85 42.0236C2056.23 40.6416 2055.23 39.5308 2053.81 38.6888C2051.09 37.0741 2046.81 36.458 2040.55 36.458V37.958V39.458C2046.8 39.458 2050.33 40.1109 2052.28 41.2692C2053.2 41.8137 2053.76 42.4654 2054.11 43.2513C2054.48 44.0699 2054.66 45.1226 2054.66 46.512H2056.16ZM2040.55 37.958V36.458C2035.45 36.458 2031.84 36.9418 2029.46 38.1025C2028.23 38.7026 2027.28 39.5085 2026.65 40.5604C2026.03 41.6059 2025.8 42.7721 2025.8 43.974H2027.3H2028.8C2028.8 43.1549 2028.96 42.5586 2029.23 42.0972C2029.5 41.6421 2029.96 41.1966 2030.78 40.798C2032.49 39.9611 2035.5 39.458 2040.55 39.458V37.958ZM2027.3 43.974H2025.8C2025.8 46.1367 2026.44 47.8833 2028.08 49.1457C2029.57 50.2921 2031.72 50.9004 2034.37 51.3726L2034.63 49.896L2034.9 48.4194C2032.28 47.9516 2030.77 47.4319 2029.91 46.7688C2029.2 46.2217 2028.8 45.4773 2028.8 43.974H2027.3ZM2034.63 49.896L2034.4 51.3773L2052.07 54.1973L2052.3 52.716L2052.54 51.2348L2034.87 48.4147L2034.63 49.896ZM2052.3 52.716L2052.07 54.1973C2058.93 55.2952 2063.38 57.4815 2066.11 60.2545C2068.81 62.9983 2069.98 66.4689 2069.98 70.482H2071.48H2072.98C2072.98 65.8471 2071.61 61.5627 2068.25 58.1495C2064.92 54.7655 2059.78 52.3929 2052.54 51.2348L2052.3 52.716ZM2071.48 70.482H2069.98C2069.98 75.1873 2068.16 79.6043 2064.05 82.8799C2059.9 86.1835 2053.27 88.44 2043.47 88.44V89.94V91.44C2053.69 91.44 2061.06 89.0905 2065.92 85.2266C2070.8 81.3347 2072.98 76.0227 2072.98 70.482H2071.48Z" fill="black"/>
</g>
</g>
</g>
<defs>
<clipPath id="clip0_144_6427">
<rect width="1097" height="118" fill="white"/>
</clipPath>
</defs>
</svg>
