<svg width="796" height="120" viewBox="0 0 796 120" fill="none" xmlns="http://www.w3.org/2000/svg">
<path fill-rule="evenodd" clip-rule="evenodd" d="M794.107 117V87.25H761.297V117H794.107ZM795.107 118H760.297V86.25H795.107V118Z" fill="black"/>
<path fill-rule="evenodd" clip-rule="evenodd" d="M620.832 76.5604H648.332V80.6204C648.332 83.1832 648.655 85.265 649.427 86.9639C650.189 88.638 651.416 90.0037 653.35 91.0975C657.304 93.3343 664.155 94.4104 675.722 94.4104C685.933 94.4104 692.016 93.6347 695.534 92.0157C697.254 91.2244 698.306 90.2543 698.948 89.1116C699.598 87.9531 699.882 86.5174 699.882 84.7004C699.882 83.0471 699.65 81.7287 699.172 80.6429C698.701 79.5696 697.967 78.6698 696.876 77.8825C694.639 76.2685 690.944 75.1479 685.086 74.1282C685.081 74.1273 685.076 74.1264 685.071 74.1256L653.133 69.5392L653.126 69.5381C642.81 67.9047 634.475 64.4915 628.71 59.0341C622.917 53.5514 619.812 46.0933 619.812 36.5904C619.812 27.7207 623.421 18.6297 631.937 11.7775C640.435 4.93921 653.731 0.400391 673.002 0.400391C690.65 0.400391 703.745 4.46815 712.444 11.7028C721.17 18.9595 725.342 29.294 725.342 41.5204V43.5404H697.672V40.1604C697.672 37.5168 697.33 35.3459 696.53 33.5624C695.74 31.8008 694.478 30.3601 692.531 29.2055C688.559 26.8502 681.754 25.6904 670.452 25.6904C661.289 25.6904 655.498 26.5893 652.021 28.2877C650.31 29.1236 649.199 30.135 648.504 31.2988C647.808 32.4667 647.482 33.8705 647.482 35.5704C647.482 38.6656 648.337 40.584 650.152 41.9818C652.067 43.456 655.162 44.4461 659.909 45.2943C659.912 45.2949 659.915 45.2954 659.918 45.296L691.86 50.3929C704.735 52.4529 713.634 56.6376 719.317 62.4087C725.019 68.1993 727.382 75.4831 727.382 83.5104C727.382 93.0538 723.651 102.15 715.254 108.836C706.881 115.504 693.967 119.7 675.722 119.7C658.36 119.7 644.644 116.283 635.245 109.392C625.795 102.464 620.832 92.1143 620.832 78.5804V76.5604ZM659.742 46.2804C650.222 44.5804 646.482 42.2004 646.482 35.5704C646.482 28.2604 652.092 24.6904 670.452 24.6904C693.062 24.6904 698.672 29.2804 698.672 40.1604V42.5404H724.342V41.5204C724.342 17.5504 708.022 1.40039 673.002 1.40039C634.752 1.40039 620.812 19.4204 620.812 36.5904C620.812 55.1204 632.882 65.3204 653.282 68.5504L685.242 73.1404C696.972 75.1804 700.882 77.7304 700.882 84.7004C700.882 92.3504 696.122 95.4104 675.722 95.4104C652.602 95.4104 647.332 91.1604 647.332 80.6204V77.5604H621.832V78.5804C621.832 105.1 641.212 118.7 675.722 118.7C711.932 118.7 726.382 102.04 726.382 83.5104C726.382 67.8704 717.202 55.4604 691.702 51.3804L659.742 46.2804Z" fill="black"/>
<path fill-rule="evenodd" clip-rule="evenodd" d="M528.351 117V73.1396H557.081L586.491 117H617.091L577.991 59.1996L617.601 3.09961H587.001L556.741 48.3196H528.351V3.09961H502.851V117H528.351ZM529.351 47.3196V2.09961H501.851V118H529.351V74.1396H556.547L585.957 118H618.975L579.206 59.2118L619.531 2.09961H586.467L556.207 47.3196H529.351Z" fill="black"/>
<path fill-rule="evenodd" clip-rule="evenodd" d="M405.001 117V62.0896L403.981 41.1796H405.681L420.131 62.5996L462.121 117H489.321V3.09961H463.821V58.0096L465.011 80.9596H463.141L447.501 56.9896L406.701 3.09961H379.501V117H405.001ZM463.683 79.9596L448.32 56.4139L407.198 2.09961H378.501V118H406.001V62.0652L406 62.0409L405.031 42.1796H405.15L419.32 63.1853L461.63 118H490.321V2.09961H462.821V58.0355L463.958 79.9596H463.683Z" fill="black"/>
<path fill-rule="evenodd" clip-rule="evenodd" d="M265.772 117L276.652 91.8396H333.602L344.312 117H373.552L323.402 3.09961H287.022L237.212 117H265.772ZM332.941 92.8396L343.651 118H375.085L324.055 2.09961H286.368L235.684 118H266.43L277.31 92.8396H332.941ZM297.222 44.0696L304.192 26.3896H306.062L313.032 44.0696L323.742 68.8896H286.512L297.222 44.0696ZM288.033 67.8896H322.222L312.108 44.4512L312.102 44.4364L305.382 27.3896H304.873L298.153 44.4364L298.147 44.4512L288.033 67.8896Z" fill="black"/>
<path fill-rule="evenodd" clip-rule="evenodd" d="M146.183 117V71.2696H205.683V117H231.183V3.09961H205.683V48.3196H146.183V3.09961H120.683V117H146.183ZM147.183 47.3196V2.09961H119.683V118H147.183V72.2696H204.683V118H232.183V2.09961H204.683V47.3196H147.183Z" fill="black"/>
<path fill-rule="evenodd" clip-rule="evenodd" d="M69.21 117V26.0496H111.54V3.09961H1.38V26.0496H43.71V117H69.21ZM42.71 27.0496H0.380005V2.09961H112.54V27.0496H70.21V118H42.71V27.0496Z" fill="black"/>
</svg>
