<svg width="498" height="40" viewBox="0 0 498 40" fill="none" xmlns="http://www.w3.org/2000/svg">
<g clip-path="url(#clip0_104_3547)">
<path fill-rule="evenodd" clip-rule="evenodd" d="M355.383 24.192H365.483V26.164C365.483 26.9288 365.58 27.4809 365.769 27.8965C365.947 28.2873 366.232 28.6164 366.73 28.8981C367.814 29.5109 369.822 29.862 373.501 29.862C376.751 29.862 378.543 29.6083 379.509 29.1638C379.952 28.9597 380.164 28.74 380.283 28.5272C380.412 28.2985 380.493 27.9721 380.493 27.46C380.493 26.9957 380.427 26.6778 380.325 26.4457C380.229 26.2261 380.078 26.0332 379.821 25.8476C379.252 25.4368 378.224 25.0993 376.368 24.7757C376.363 24.7749 376.358 24.774 376.353 24.7732L366.224 23.3188L366.216 23.3177C362.861 22.7864 360.065 21.6641 358.098 19.8027C356.105 17.916 355.059 15.3589 355.059 12.178C355.059 9.16635 356.289 6.0783 359.165 3.76464C362.023 1.46482 366.416 0 372.637 0C378.337 0 382.674 1.31276 385.602 3.7479C388.556 6.20512 389.945 9.69564 389.945 13.744V15.068H379.791V13.312C379.791 12.5244 379.688 11.9412 379.488 11.4954C379.298 11.0714 378.996 10.7182 378.492 10.4191C377.405 9.77479 375.415 9.398 371.827 9.398C368.928 9.398 367.225 9.68793 366.272 10.1538C365.822 10.3735 365.581 10.6128 365.441 10.8467C365.299 11.0848 365.213 11.4011 365.213 11.854C365.213 12.6872 365.43 13.0686 365.795 13.3499C366.26 13.7079 367.093 14.0018 368.591 14.2699C368.594 14.2705 368.598 14.271 368.601 14.2716L378.734 15.8885C382.91 16.5566 385.893 17.9282 387.835 19.9004C389.796 21.8919 390.593 24.3907 390.593 27.082C390.593 30.3034 389.326 33.3963 386.483 35.6605C383.663 37.906 379.392 39.26 373.501 39.26C367.913 39.26 363.39 38.1629 360.24 35.8535C357.04 33.5072 355.383 30.0019 355.383 25.516V24.192ZM368.425 15.256C365.401 14.716 364.213 13.96 364.213 11.854C364.213 9.532 365.995 8.398 371.827 8.398C379.009 8.398 380.791 9.856 380.791 13.312V14.068H388.945V13.744C388.945 13.5164 388.94 13.2911 388.931 13.068C388.63 5.82792 383.428 1 372.637 1C360.487 1 356.059 6.724 356.059 12.178C356.059 18.064 359.893 21.304 366.373 22.33L376.525 23.788C380.251 24.436 381.493 25.246 381.493 27.46C381.493 29.89 379.981 30.862 373.501 30.862C366.157 30.862 364.483 29.512 364.483 26.164V25.192H356.383V25.516C356.383 25.7444 356.387 25.9697 356.396 26.192C356.72 34.171 362.836 38.26 373.501 38.26C385.003 38.26 389.593 32.968 389.593 27.082C389.593 22.114 386.677 18.172 378.577 16.876L368.425 15.256Z" fill="black"/>
<path fill-rule="evenodd" clip-rule="evenodd" d="M318.496 24.192H328.596V26.164C328.596 26.9288 328.694 27.4809 328.883 27.8965C329.061 28.2873 329.345 28.6164 329.844 28.8981C330.927 29.5109 332.935 29.862 336.614 29.862C339.865 29.862 341.656 29.6083 342.622 29.1638C343.066 28.9597 343.277 28.74 343.397 28.5272C343.525 28.2985 343.606 27.9721 343.606 27.46C343.606 26.9957 343.54 26.6778 343.438 26.4457C343.342 26.2261 343.191 26.0332 342.934 25.8476C342.365 25.4368 341.337 25.0993 339.481 24.7757C339.476 24.7749 339.472 24.774 339.467 24.7732L329.337 23.3188L329.33 23.3177C325.974 22.7864 323.178 21.6641 321.212 19.8027C319.219 17.916 318.172 15.3589 318.172 12.178C318.172 9.16635 319.403 6.0783 322.278 3.76464C325.136 1.46482 329.529 0 335.75 0C341.45 0 345.787 1.31276 348.715 3.7479C351.67 6.20512 353.058 9.69564 353.058 13.744V15.068H342.904V13.312C342.904 12.5244 342.801 11.9412 342.601 11.4954C342.411 11.0714 342.11 10.7182 341.605 10.4191C340.519 9.77479 338.528 9.398 334.94 9.398C332.041 9.398 330.339 9.68793 329.385 10.1538C328.935 10.3735 328.694 10.6128 328.555 10.8467C328.413 11.0848 328.326 11.4011 328.326 11.854C328.326 12.6872 328.543 13.0686 328.908 13.3499C329.373 13.7079 330.207 14.0018 331.705 14.2699C331.708 14.2705 331.711 14.271 331.714 14.2716L341.848 15.8885C346.023 16.5566 349.006 17.9282 350.948 19.9004C352.909 21.8919 353.706 24.3907 353.706 27.082C353.706 30.3034 352.44 33.3963 349.596 35.6605C346.777 37.906 342.505 39.26 336.614 39.26C331.026 39.26 326.503 38.1629 323.353 35.8535C320.153 33.5072 318.496 30.0019 318.496 25.516V24.192ZM331.538 15.256C328.514 14.716 327.326 13.96 327.326 11.854C327.326 9.532 329.108 8.398 334.94 8.398C342.122 8.398 343.904 9.856 343.904 13.312V14.068H352.058V13.744C352.058 13.5164 352.054 13.2911 352.044 13.068C351.743 5.82792 346.542 1 335.75 1C323.6 1 319.172 6.724 319.172 12.178C319.172 18.064 323.006 21.304 329.486 22.33L339.638 23.788C343.364 24.436 344.606 25.246 344.606 27.46C344.606 29.89 343.094 30.862 336.614 30.862C329.27 30.862 327.596 29.512 327.596 26.164V25.192H319.496V25.516C319.496 25.7444 319.501 25.9697 319.51 26.192C319.834 34.171 325.949 38.26 336.614 38.26C348.116 38.26 352.706 32.968 352.706 27.082C352.706 22.114 349.79 18.172 341.69 16.876L331.538 15.256Z" fill="black"/>
<path fill-rule="evenodd" clip-rule="evenodd" d="M316.459 38.72H283.841V0.540039H316.459V9.83004H293.941V14.904H315.649V24.14H293.941V29.43H316.459V38.72ZM292.941 30.43V23.14H314.649V15.904H292.941V8.83004H315.459V1.54004H284.841V37.72H315.459V30.43H292.941Z" fill="black"/>
<path fill-rule="evenodd" clip-rule="evenodd" d="M281.251 17.606H270.233V15.796C270.233 13.6151 269.623 12.2057 268.447 11.2945C267.211 10.3373 265.162 9.776 261.945 9.776C258.046 9.776 255.661 10.4758 254.216 11.8984C252.774 13.3173 252.037 15.685 252.037 19.63C252.037 23.575 252.774 25.9427 254.216 27.3616C255.661 28.7842 258.046 29.484 261.945 29.484C265.162 29.484 267.211 28.9227 268.447 27.9655C269.623 27.0543 270.233 25.6449 270.233 23.464V21.654H281.251V23.464C281.251 28.3407 279.33 32.3348 275.872 35.087C272.439 37.8186 267.58 39.26 261.783 39.26C255.609 39.26 250.508 37.3569 246.945 33.8944C243.379 30.4294 241.451 25.4969 241.451 19.63C241.451 13.7631 243.379 8.83061 246.945 5.36557C250.508 1.90308 255.609 0 261.783 0C267.554 0 272.412 1.44186 275.851 4.17239C279.315 6.92325 281.251 10.9168 281.251 15.796V17.606ZM280.25 23.654C280.151 32.7214 272.991 38.26 261.783 38.26C249.849 38.26 242.451 30.916 242.451 19.63C242.451 8.344 249.849 1 261.783 1C272.937 1 280.151 6.53857 280.25 15.606C280.251 15.6692 280.251 15.7325 280.251 15.796V16.606H271.233V15.796C271.233 11.044 268.533 8.776 261.945 8.776C254.007 8.776 251.037 11.584 251.037 19.63C251.037 27.676 254.007 30.484 261.945 30.484C268.533 30.484 271.233 28.216 271.233 23.464V22.654H280.251V23.464C280.251 23.5275 280.25 23.5908 280.25 23.654Z" fill="black"/>
<path fill-rule="evenodd" clip-rule="evenodd" d="M204.082 33.8965C200.495 30.4321 198.552 25.4991 198.552 19.63C198.552 13.7609 200.495 8.82788 204.082 5.36347C207.666 1.90223 212.793 0 218.992 0C225.321 0 230.503 1.89897 234.11 5.36139C237.72 8.82756 239.648 13.7627 239.648 19.63C239.648 25.4973 237.72 30.4324 234.11 33.8986C230.503 37.361 225.321 39.26 218.992 39.26C212.793 39.26 207.666 37.3578 204.082 33.8965ZM226.781 27.3562C228.247 25.9352 229.008 23.5672 229.008 19.63C229.008 15.6928 228.247 13.3248 226.781 11.9038C225.308 10.4753 222.89 9.776 218.992 9.776C215.094 9.776 212.724 10.476 211.293 11.8956C209.864 13.3135 209.138 15.6811 209.138 19.63C209.138 23.5789 209.864 25.9465 211.293 27.3644C212.724 28.784 215.094 29.484 218.992 29.484C222.89 29.484 225.308 28.7847 226.781 27.3562ZM199.552 19.63C199.552 30.916 207.004 38.26 218.992 38.26C231.25 38.26 238.648 30.916 238.648 19.63C238.648 8.344 231.25 1 218.992 1C207.004 1 199.552 8.344 199.552 19.63ZM230.008 19.63C230.008 27.676 226.93 30.484 218.992 30.484C211.054 30.484 208.138 27.676 208.138 19.63C208.138 11.584 211.054 8.776 218.992 8.776C226.93 8.776 230.008 11.584 230.008 19.63Z" fill="black"/>
<path fill-rule="evenodd" clip-rule="evenodd" d="M170.994 38.72H160.894V0.540039H181.874C186.458 0.540039 190.202 1.55179 192.821 3.58509C195.477 5.6466 196.86 8.6679 196.86 12.394C196.86 15.5357 195.946 18.1643 194.014 20.0888C192.628 21.4691 190.781 22.4245 188.526 22.9758C189.066 23.3 189.543 23.6709 189.975 24.0893C190.977 25.0609 191.684 26.2442 192.368 27.5287C192.368 27.5292 192.368 27.5298 192.369 27.5304L198.399 38.72H186.725L181.476 28.7915L181.472 28.7849C180.775 27.4418 180.187 26.7203 179.397 26.2825C178.581 25.8294 177.403 25.598 175.34 25.598H170.994V38.72ZM191.486 28C190.328 25.8225 189.249 24.2412 186.919 23.2903C186.546 23.1377 186.14 23.0014 185.696 22.8814C185.682 22.8776 185.668 22.8738 185.654 22.87V22.438C185.693 22.4343 185.733 22.4304 185.772 22.4264C186.206 22.3828 186.626 22.3273 187.031 22.2603C192.917 21.2875 195.86 17.8684 195.86 12.394C195.86 5.48204 190.784 1.54004 181.874 1.54004H161.894V37.72H169.994V24.598H175.34C179.552 24.598 180.902 25.516 182.36 28.324L187.328 37.72H196.724L191.486 28ZM169.994 18.496V8.83004H181.82C185.654 8.83004 187.382 10.072 187.382 13.636C187.382 17.416 185.654 18.496 181.82 18.496H169.994ZM170.994 9.83004V17.496H181.82C183.699 17.496 184.781 17.2182 185.407 16.7083C185.977 16.2435 186.382 15.3995 186.382 13.636C186.382 11.9991 185.986 11.1526 185.4 10.6662C184.766 10.1404 183.675 9.83004 181.82 9.83004H170.994Z" fill="black"/>
<path fill-rule="evenodd" clip-rule="evenodd" d="M134.371 38.72H124.271V0.540039H144.171C148.54 0.540039 152.25 1.78222 154.875 4.22311C157.511 6.67326 158.941 10.2254 158.941 14.608C158.941 18.9903 157.512 22.5547 154.878 25.0179C152.253 27.4727 148.543 28.73 144.171 28.73H134.371V38.72ZM133.371 8.83004H143.307C147.789 8.83004 149.895 10.18 149.895 14.608C149.895 19.144 147.789 20.44 143.307 20.44H133.371V8.83004ZM134.371 19.44H143.307C145.505 19.44 146.845 19.1097 147.648 18.4517C148.398 17.8366 148.895 16.7453 148.895 14.608C148.895 12.5323 148.402 11.45 147.648 10.8319C146.842 10.1715 145.498 9.83004 143.307 9.83004H134.371V19.44ZM133.371 37.72V27.73H144.171C152.541 27.73 157.941 22.924 157.941 14.608C157.941 6.29204 152.541 1.54004 144.171 1.54004H125.271V37.72H133.371Z" fill="black"/>
<path fill-rule="evenodd" clip-rule="evenodd" d="M112.12 38.72H79.5015V0.540039H112.12V9.83004H89.6015V14.904H111.31V24.14H89.6015V29.43H112.12V38.72ZM88.6015 30.43V23.14H110.31V15.904H88.6015V8.83004H111.12V1.54004H80.5015V37.72H111.12V30.43H88.6015Z" fill="black"/>
<path fill-rule="evenodd" clip-rule="evenodd" d="M49.0762 38.72H38.9762V0.540039H49.0762V14.904H65.9762V0.540039H76.0762V38.72H65.9762V24.194H49.0762V38.72ZM66.9762 23.194V37.72H75.0762V1.54004H66.9762V15.904H48.0762V1.54004H39.9762V37.72H48.0762V23.194H66.9762Z" fill="black"/>
<path fill-rule="evenodd" clip-rule="evenodd" d="M23.546 38.72H13.446V9.83004H0V0.540039H36.992V9.83004H23.546V38.72ZM14.446 8.83004V37.72H22.546V8.83004H35.992V1.54004H1V8.83004H14.446Z" fill="black"/>
<path fill-rule="evenodd" clip-rule="evenodd" d="M451.015 39.2601H438.593V27.8101H451.015V39.2601ZM450.015 38.2601V28.8101H439.593V38.2601H450.015Z" fill="black"/>
</g>
<defs>
<clipPath id="clip0_104_3547">
<rect width="498" height="39.26" fill="white"/>
</clipPath>
</defs>
</svg>
