<svg width="1246" height="118" viewBox="0 0 1246 118" fill="none" xmlns="http://www.w3.org/2000/svg">
<g clip-path="url(#clip0_144_6469)">
<mask id="mask0_144_6469" style="mask-type:luminance" maskUnits="userSpaceOnUse" x="0" y="0" width="1246" height="118">
<path d="M1246 0H0V118H1246V0Z" fill="white"/>
</mask>
<g mask="url(#mask0_144_6469)">
<mask id="mask1_144_6469" style="mask-type:luminance" maskUnits="userSpaceOnUse" x="1" y="23" width="1143" height="69">
<path d="M1144 23H1V92H1144V23Z" fill="white"/>
<path d="M34.216 89.94C13.724 89.94 3.29004 79.6 3.29004 62.68V26.02H17.39V61.646C17.39 72.362 21.432 76.216 34.216 76.216C47.094 76.216 51.042 72.362 51.042 61.646V26.02H65.142V62.68C65.142 79.6 54.802 89.94 34.216 89.94ZM88.2205 89H74.1205V26.02H89.1605L111.72 55.818L120.368 69.072H121.402L120.744 56.382V26.02H134.844V89H119.804L96.5865 58.92L88.5965 47.076H87.6565L88.2205 58.638V89ZM175.32 89H144.958V26.02H175.32C195.53 26.02 208.314 37.77 208.314 57.51C208.314 77.25 195.53 89 175.32 89ZM175.32 38.71H159.058V76.31H175.32C188.104 76.31 193.274 72.644 193.274 57.51C193.274 42.376 188.104 38.71 175.32 38.71ZM269.608 89H216.31V26.02H269.608V38.71H230.41V51.024H268.198V63.62H230.41V76.31H269.608V89ZM291.958 89H277.858V26.02H312.638C328.148 26.02 336.984 32.882 336.984 44.914C336.984 55.16 331.062 61.27 319.218 62.398V63.15C324.858 64.654 327.02 67.662 329.37 72.08L338.488 89H322.132L313.484 72.644C310.946 67.756 308.596 66.158 301.264 66.158H291.958V89ZM291.958 38.71V55.536H312.544C319.218 55.536 322.226 53.656 322.226 47.076C322.226 40.872 319.218 38.71 312.544 38.71H291.958ZM393.448 89.94C372.674 89.94 359.796 77.156 359.796 57.51C359.796 37.864 372.674 25.08 393.448 25.08C413 25.08 425.596 34.856 425.596 50.836V52.246H409.898V50.836C409.898 42.564 405.198 38.616 393.73 38.616C379.912 38.616 374.742 43.504 374.742 57.51C374.742 71.516 379.912 76.404 393.73 76.404C405.198 76.404 409.898 72.456 409.898 64.184V62.774H425.596V64.184C425.596 80.164 413.094 89.94 393.448 89.94ZM466.016 89.94C445.148 89.94 432.176 77.156 432.176 57.51C432.176 37.864 445.148 25.08 466.016 25.08C487.354 25.08 500.232 37.864 500.232 57.51C500.232 77.156 487.354 89.94 466.016 89.94ZM466.016 76.404C479.834 76.404 485.192 71.516 485.192 57.51C485.192 43.504 479.834 38.616 466.016 38.616C452.198 38.616 447.122 43.504 447.122 57.51C447.122 71.516 452.198 76.404 466.016 76.404ZM522.361 89H508.261V26.02H523.301L545.861 55.818L554.509 69.072H555.543L554.885 56.382V26.02H568.985V89H553.945L530.727 58.92L522.737 47.076H521.797L522.361 58.638V89ZM606.922 89.94C587.84 89.94 577.124 82.42 577.124 67.756V67.192H591.224V68.884C591.224 74.712 594.138 77.062 606.922 77.062C618.202 77.062 620.834 75.37 620.834 71.14C620.834 67.286 618.672 65.876 612.186 64.748L594.514 62.21C583.234 60.424 576.56 54.784 576.56 44.538C576.56 35.044 584.268 25.08 605.418 25.08C624.782 25.08 633.806 34.01 633.806 47.264V47.828H619.612V46.512C619.612 40.496 616.51 37.958 604.008 37.958C593.856 37.958 590.754 39.932 590.754 43.974C590.754 47.64 592.822 48.956 598.086 49.896L615.758 52.716C629.858 54.972 634.934 61.834 634.934 70.482C634.934 80.728 626.944 89.94 606.922 89.94ZM677.618 89H663.518V38.71H640.112V26.02H701.024V38.71H677.618V89ZM722.06 89H707.96V26.02H742.74C758.25 26.02 767.086 32.882 767.086 44.914C767.086 55.16 761.164 61.27 749.32 62.398V63.15C754.96 64.654 757.122 67.662 759.472 72.08L768.59 89H752.234L743.586 72.644C741.048 67.756 738.698 66.158 731.366 66.158H722.06V89ZM722.06 38.71V55.536H742.646C749.32 55.536 752.328 53.656 752.328 47.076C752.328 40.872 749.32 38.71 742.646 38.71H722.06ZM805.38 89.94C784.888 89.94 774.454 79.6 774.454 62.68V26.02H788.554V61.646C788.554 72.362 792.596 76.216 805.38 76.216C818.258 76.216 822.206 72.362 822.206 61.646V26.02H836.306V62.68C836.306 79.6 825.966 89.94 805.38 89.94ZM877.526 89.94C856.752 89.94 843.874 77.156 843.874 57.51C843.874 37.864 856.752 25.08 877.526 25.08C897.078 25.08 909.674 34.856 909.674 50.836V52.246H893.976V50.836C893.976 42.564 889.276 38.616 877.808 38.616C863.99 38.616 858.82 43.504 858.82 57.51C858.82 71.516 863.99 76.404 877.808 76.404C889.276 76.404 893.976 72.456 893.976 64.184V62.774H909.674V64.184C909.674 80.164 897.172 89.94 877.526 89.94ZM952.726 89H938.626V38.71H915.22V26.02H976.132V38.71H952.726V89ZM997.167 89H983.067V26.02H997.167V89ZM1038.86 89.94C1017.99 89.94 1005.02 77.156 1005.02 57.51C1005.02 37.864 1017.99 25.08 1038.86 25.08C1060.2 25.08 1073.07 37.864 1073.07 57.51C1073.07 77.156 1060.2 89.94 1038.86 89.94ZM1038.86 76.404C1052.68 76.404 1058.03 71.516 1058.03 57.51C1058.03 43.504 1052.68 38.616 1038.86 38.616C1025.04 38.616 1019.96 43.504 1019.96 57.51C1019.96 71.516 1025.04 76.404 1038.86 76.404ZM1095.2 89H1081.1V26.02H1096.14L1118.7 55.818L1127.35 69.072H1128.38L1127.73 56.382V26.02H1141.83V89H1126.79L1103.57 58.92L1095.58 47.076H1094.64L1095.2 58.638V89Z" fill="black"/>
</mask>
<g mask="url(#mask1_144_6469)">
<path d="M3.29004 26.02V24.52H1.79004V26.02H3.29004ZM17.39 26.02H18.89V24.52H17.39V26.02ZM51.042 26.02V24.52H49.542V26.02H51.042ZM65.142 26.02H66.642V24.52H65.142V26.02ZM34.216 89.94V88.44C24.2057 88.44 16.8843 85.9149 12.0775 81.5451C7.29169 77.1943 4.79004 70.8247 4.79004 62.68H3.29004H1.79004C1.79004 71.4553 4.50539 78.7157 10.0595 83.7649C15.5927 88.7951 23.7343 91.44 34.216 91.44V89.94ZM3.29004 62.68H4.79004V26.02H3.29004H1.79004V62.68H3.29004ZM3.29004 26.02V27.52H17.39V26.02V24.52H3.29004V26.02ZM17.39 26.02H15.89V61.646H17.39H18.89V26.02H17.39ZM17.39 61.646H15.89C15.89 67.1272 16.9105 71.332 20.0162 74.074C23.0638 76.7646 27.7644 77.716 34.216 77.716V76.216V74.716C27.8836 74.716 24.1712 73.7404 22.0018 71.825C19.8905 69.961 18.89 66.8808 18.89 61.646H17.39ZM34.216 76.216V77.716C40.7113 77.716 45.4158 76.7658 48.4535 74.0717C51.5484 71.327 52.542 67.1192 52.542 61.646H51.042H49.542C49.542 66.8888 48.5616 69.966 46.463 71.8273C44.3072 73.7392 40.5987 74.716 34.216 74.716V76.216ZM51.042 61.646H52.542V26.02H51.042H49.542V61.646H51.042ZM51.042 26.02V27.52H65.142V26.02V24.52H51.042V26.02ZM65.142 26.02H63.642V62.68H65.142H66.642V26.02H65.142ZM65.142 62.68H63.642C63.642 70.8285 61.1615 77.1972 56.3885 81.5462C51.5948 85.9141 44.2749 88.44 34.216 88.44V89.94V91.44C44.7431 91.44 52.8862 88.7959 58.409 83.7638C63.9525 78.7128 66.642 71.4515 66.642 62.68H65.142ZM88.2205 89V90.5H89.7205V89H88.2205ZM74.1205 89H72.6205V90.5H74.1205V89ZM74.1205 26.02V24.52H72.6205V26.02H74.1205ZM89.1605 26.02L90.3564 25.1146L89.9062 24.52H89.1605V26.02ZM111.72 55.818L112.977 54.9983L112.948 54.9544L112.916 54.9126L111.72 55.818ZM120.368 69.072L119.112 69.8917L119.556 70.572H120.368V69.072ZM121.402 69.072V70.572H122.982L122.9 68.9943L121.402 69.072ZM120.744 56.382H119.244V56.4209L119.246 56.4597L120.744 56.382ZM120.744 26.02V24.52H119.244V26.02H120.744ZM134.844 26.02H136.344V24.52H134.844V26.02ZM134.844 89V90.5H136.344V89H134.844ZM119.804 89L118.617 89.9165L119.067 90.5H119.804V89ZM96.5865 58.92L95.343 59.7589L95.3698 59.7986L95.3991 59.8365L96.5865 58.92ZM88.5965 47.076L89.84 46.2371L89.394 45.576H88.5965V47.076ZM87.6565 47.076V45.576H86.0815L86.1582 47.1491L87.6565 47.076ZM88.2205 58.638H89.7205V58.6014L89.7187 58.5649L88.2205 58.638ZM88.2205 89V87.5H74.1205V89V90.5H88.2205V89ZM74.1205 89H75.6205V26.02H74.1205H72.6205V89H74.1205ZM74.1205 26.02V27.52H89.1605V26.02V24.52H74.1205V26.02ZM89.1605 26.02L87.9646 26.9254L110.525 56.7234L111.72 55.818L112.916 54.9126L90.3564 25.1146L89.1605 26.02ZM111.72 55.818L110.464 56.6377L119.112 69.8917L120.368 69.072L121.625 68.2523L112.977 54.9983L111.72 55.818ZM120.368 69.072V70.572H121.402V69.072V67.572H120.368V69.072ZM121.402 69.072L122.9 68.9943L122.242 56.3043L120.744 56.382L119.246 56.4597L119.904 69.1497L121.402 69.072ZM120.744 56.382H122.244V26.02H120.744H119.244V56.382H120.744ZM120.744 26.02V27.52H134.844V26.02V24.52H120.744V26.02ZM134.844 26.02H133.344V89H134.844H136.344V26.02H134.844ZM134.844 89V87.5H119.804V89V90.5H134.844V89ZM119.804 89L120.992 88.0835L97.7739 58.0035L96.5865 58.92L95.3991 59.8365L118.617 89.9165L119.804 89ZM96.5865 58.92L97.83 58.0811L89.84 46.2371L88.5965 47.076L87.353 47.9149L95.343 59.7589L96.5865 58.92ZM88.5965 47.076V45.576H87.6565V47.076V48.576H88.5965V47.076ZM87.6565 47.076L86.1582 47.1491L86.7222 58.7111L88.2205 58.638L89.7187 58.5649L89.1547 47.0029L87.6565 47.076ZM88.2205 58.638H86.7205V89H88.2205H89.7205V58.638H88.2205ZM144.958 89H143.458V90.5H144.958V89ZM144.958 26.02V24.52H143.458V26.02H144.958ZM159.058 38.71V37.21H157.558V38.71H159.058ZM159.058 76.31H157.558V77.81H159.058V76.31ZM175.32 89V87.5H144.958V89V90.5H175.32V89ZM144.958 89H146.458V26.02H144.958H143.458V89H144.958ZM144.958 26.02V27.52H175.32V26.02V24.52H144.958V26.02ZM175.32 26.02V27.52C185.138 27.52 192.985 30.3707 198.365 35.453C203.735 40.5249 206.814 47.9742 206.814 57.51H208.314H209.814C209.814 47.3058 206.5 39.0101 200.425 33.272C194.361 27.5443 185.711 24.52 175.32 24.52V26.02ZM208.314 57.51H206.814C206.814 67.0458 203.735 74.4951 198.365 79.567C192.985 84.6493 185.138 87.5 175.32 87.5V89V90.5C185.711 90.5 194.361 87.4757 200.425 81.748C206.5 76.0099 209.814 67.7142 209.814 57.51H208.314ZM175.32 38.71V37.21H159.058V38.71V40.21H175.32V38.71ZM159.058 38.71H157.558V76.31H159.058H160.558V38.71H159.058ZM159.058 76.31V77.81H175.32V76.31V74.81H159.058V76.31ZM175.32 76.31V77.81C181.758 77.81 186.79 76.9116 190.136 73.6611C193.488 70.4047 194.774 65.1581 194.774 57.51H193.274H191.774C191.774 64.9959 190.475 69.1493 188.045 71.5094C185.61 73.8754 181.665 74.81 175.32 74.81V76.31ZM193.274 57.51H194.774C194.774 49.8619 193.488 44.6153 190.136 41.3589C186.79 38.1084 181.758 37.21 175.32 37.21V38.71V40.21C181.665 40.21 185.61 41.1446 188.045 43.5106C190.475 45.8707 191.774 50.0241 191.774 57.51H193.274ZM269.608 89V90.5H271.108V89H269.608ZM216.31 89H214.81V90.5H216.31V89ZM216.31 26.02V24.52H214.81V26.02H216.31ZM269.608 26.02H271.108V24.52H269.608V26.02ZM269.608 38.71V40.21H271.108V38.71H269.608ZM230.41 38.71V37.21H228.91V38.71H230.41ZM230.41 51.024H228.91V52.524H230.41V51.024ZM268.198 51.024H269.698V49.524H268.198V51.024ZM268.198 63.62V65.12H269.698V63.62H268.198ZM230.41 63.62V62.12H228.91V63.62H230.41ZM230.41 76.31H228.91V77.81H230.41V76.31ZM269.608 76.31H271.108V74.81H269.608V76.31ZM269.608 89V87.5H216.31V89V90.5H269.608V89ZM216.31 89H217.81V26.02H216.31H214.81V89H216.31ZM216.31 26.02V27.52H269.608V26.02V24.52H216.31V26.02ZM269.608 26.02H268.108V38.71H269.608H271.108V26.02H269.608ZM269.608 38.71V37.21H230.41V38.71V40.21H269.608V38.71ZM230.41 38.71H228.91V51.024H230.41H231.91V38.71H230.41ZM230.41 51.024V52.524H268.198V51.024V49.524H230.41V51.024ZM268.198 51.024H266.698V63.62H268.198H269.698V51.024H268.198ZM268.198 63.62V62.12H230.41V63.62V65.12H268.198V63.62ZM230.41 63.62H228.91V76.31H230.41H231.91V63.62H230.41ZM230.41 76.31V77.81H269.608V76.31V74.81H230.41V76.31ZM269.608 76.31H268.108V89H269.608H271.108V76.31H269.608ZM291.958 89V90.5H293.458V89H291.958ZM277.858 89H276.358V90.5H277.858V89ZM277.858 26.02V24.52H276.358V26.02H277.858ZM319.218 62.398L319.076 60.9048L317.718 61.0341V62.398H319.218ZM319.218 63.15H317.718V64.3024L318.832 64.5994L319.218 63.15ZM329.37 72.08L328.046 72.7844L328.05 72.7916L329.37 72.08ZM338.488 89V90.5H341L339.809 88.2884L338.488 89ZM322.132 89L320.806 89.7011L321.228 90.5H322.132V89ZM313.484 72.644L312.153 73.3352L312.158 73.3451L313.484 72.644ZM291.958 66.158V64.658H290.458V66.158H291.958ZM291.958 38.71V37.21H290.458V38.71H291.958ZM291.958 55.536H290.458V57.036H291.958V55.536ZM291.958 89V87.5H277.858V89V90.5H291.958V89ZM277.858 89H279.358V26.02H277.858H276.358V89H277.858ZM277.858 26.02V27.52H312.638V26.02V24.52H277.858V26.02ZM312.638 26.02V27.52C320.199 27.52 325.915 29.1961 329.708 32.1399C333.446 35.0414 335.484 39.3032 335.484 44.914H336.984H338.484C338.484 38.4928 336.105 33.3076 331.547 29.7701C327.044 26.2749 320.587 24.52 312.638 24.52V26.02ZM336.984 44.914H335.484C335.484 49.739 334.098 53.4087 331.484 56.0125C328.849 58.6372 324.783 60.3612 319.076 60.9048L319.218 62.398L319.36 63.8912C325.497 63.3068 330.314 61.4118 333.601 58.138C336.909 54.8433 338.484 50.335 338.484 44.914H336.984ZM319.218 62.398H317.718V63.15H319.218H320.718V62.398H319.218ZM319.218 63.15L318.832 64.5994C321.438 65.2944 323.152 66.308 324.484 67.5992C325.845 68.9194 326.884 70.5996 328.046 72.7844L329.37 72.08L330.694 71.3756C329.507 69.1424 328.289 67.1096 326.572 65.4453C324.825 63.752 322.638 62.5096 319.605 61.7006L319.218 63.15ZM329.37 72.08L328.05 72.7916L337.168 89.7116L338.488 89L339.809 88.2884L330.691 71.3684L329.37 72.08ZM338.488 89V87.5H322.132V89V90.5H338.488V89ZM322.132 89L323.458 88.2989L314.81 71.9429L313.484 72.644L312.158 73.3451L320.806 89.7011L322.132 89ZM313.484 72.644L314.815 71.9528C313.499 69.4173 312.107 67.4808 309.9 66.2564C307.734 65.0547 304.995 64.658 301.264 64.658V66.158V67.658C304.866 67.658 306.967 68.0603 308.444 68.8796C309.88 69.6762 310.931 70.9827 312.153 73.3352L313.484 72.644ZM301.264 66.158V64.658H291.958V66.158V67.658H301.264V66.158ZM291.958 66.158H290.458V89H291.958H293.458V66.158H291.958ZM291.958 38.71H290.458V55.536H291.958H293.458V38.71H291.958ZM291.958 55.536V57.036H312.544V55.536V54.036H291.958V55.536ZM312.544 55.536V57.036C315.938 57.036 318.821 56.5778 320.835 54.9364C322.933 53.2272 323.726 50.5558 323.726 47.076H322.226H320.726C320.726 50.1762 320.015 51.7348 318.94 52.6106C317.782 53.5542 315.825 54.036 312.544 54.036V55.536ZM322.226 47.076H323.726C323.726 43.7564 322.919 41.1324 320.846 39.4121C318.843 37.7506 315.974 37.21 312.544 37.21V38.71V40.21C315.788 40.21 317.76 40.7503 318.93 41.7209C320.029 42.6326 320.726 44.1916 320.726 47.076H322.226ZM312.544 38.71V37.21H291.958V38.71V40.21H312.544V38.71ZM425.596 52.246V53.746H427.096V52.246H425.596ZM409.898 52.246H408.398V53.746H409.898V52.246ZM409.898 62.774V61.274H408.398V62.774H409.898ZM425.596 62.774H427.096V61.274H425.596V62.774ZM393.448 89.94V88.44C383.371 88.44 375.36 85.3446 369.877 80.0165C364.398 74.6922 361.296 66.9972 361.296 57.51H359.796H358.296C358.296 67.6688 361.633 76.1888 367.786 82.168C373.936 88.1434 382.751 91.44 393.448 91.44V89.94ZM359.796 57.51H361.296C361.296 48.0228 364.398 40.3278 369.877 35.0035C375.36 29.6754 383.371 26.58 393.448 26.58V25.08V23.58C382.751 23.58 373.936 26.8766 367.786 32.852C361.633 38.8312 358.296 47.3512 358.296 57.51H359.796ZM393.448 25.08V26.58C402.992 26.58 410.666 28.9672 415.921 33.1402C421.138 37.2826 424.096 43.2797 424.096 50.836H425.596H427.096C427.096 42.4123 423.756 35.5314 417.787 30.7908C411.856 26.0808 403.456 23.58 393.448 23.58V25.08ZM425.596 50.836H424.096V52.246H425.596H427.096V50.836H425.596ZM425.596 52.246V50.746H409.898V52.246V53.746H425.596V52.246ZM409.898 52.246H411.398V50.836H409.898H408.398V52.246H409.898ZM409.898 50.836H411.398C411.398 46.4073 410.125 42.8339 407.033 40.4382C404.03 38.1115 399.579 37.116 393.73 37.116V38.616V40.116C399.349 40.116 402.982 41.0945 405.196 42.8098C407.321 44.4561 408.398 46.9927 408.398 50.836H409.898ZM393.73 38.616V37.116C386.715 37.116 381.456 38.3413 378.002 41.7418C374.542 45.1478 373.242 50.39 373.242 57.51H374.742H376.242C376.242 50.624 377.527 46.4192 380.107 43.8797C382.692 41.3347 386.927 40.116 393.73 40.116V38.616ZM374.742 57.51H373.242C373.242 64.63 374.542 69.8722 378.002 73.2782C381.456 76.6787 386.715 77.904 393.73 77.904V76.404V74.904C386.927 74.904 382.692 73.6853 380.107 71.1403C377.527 68.6008 376.242 64.396 376.242 57.51H374.742ZM393.73 76.404V77.904C399.579 77.904 404.03 76.9085 407.033 74.5818C410.125 72.1861 411.398 68.6127 411.398 64.184H409.898H408.398C408.398 68.0273 407.321 70.5639 405.196 72.2102C402.982 73.9255 399.349 74.904 393.73 74.904V76.404ZM409.898 64.184H411.398V62.774H409.898H408.398V64.184H409.898ZM409.898 62.774V64.274H425.596V62.774V61.274H409.898V62.774ZM425.596 62.774H424.096V64.184H425.596H427.096V62.774H425.596ZM425.596 64.184H424.096C424.096 71.7439 421.158 77.7403 415.955 81.8808C410.713 86.0521 403.04 88.44 393.448 88.44V89.94V91.44C403.502 91.44 411.903 88.9399 417.823 84.2282C423.783 79.4857 427.096 72.6041 427.096 64.184H425.596ZM466.016 89.94V88.44C455.89 88.44 447.831 85.3433 442.313 80.0133C436.799 74.6881 433.676 66.9939 433.676 57.51H432.176H430.676C430.676 67.6721 434.039 76.1929 440.228 82.1712C446.413 88.1447 455.274 91.44 466.016 91.44V89.94ZM432.176 57.51H433.676C433.676 48.0261 436.799 40.3319 442.313 35.0067C447.831 29.6767 455.89 26.58 466.016 26.58V25.08V23.58C455.274 23.58 446.413 26.8753 440.228 32.8488C434.039 38.8271 430.676 47.3479 430.676 57.51H432.176ZM466.016 25.08V26.58C476.386 26.58 484.537 29.6815 490.087 35.0098C495.631 40.3324 498.732 48.0234 498.732 57.51H500.232H501.732C501.732 47.3506 498.394 38.8266 492.165 32.8457C485.941 26.8705 476.984 23.58 466.016 23.58V25.08ZM500.232 57.51H498.732C498.732 66.9966 495.631 74.6876 490.087 80.0102C484.537 85.3385 476.386 88.44 466.016 88.44V89.94V91.44C476.984 91.44 485.941 88.1495 492.165 82.1743C498.394 76.1934 501.732 67.6694 501.732 57.51H500.232ZM466.016 76.404V77.904C473.032 77.904 478.331 76.678 481.83 73.2863C485.34 69.8835 486.692 64.6417 486.692 57.51H485.192H483.692C483.692 64.3843 482.365 68.5895 479.742 71.1322C477.107 73.686 472.818 74.904 466.016 74.904V76.404ZM485.192 57.51H486.692C486.692 50.3783 485.34 45.1365 481.83 41.7337C478.331 38.342 473.032 37.116 466.016 37.116V38.616V40.116C472.818 40.116 477.107 41.334 479.742 43.8878C482.365 46.4305 483.692 50.6357 483.692 57.51H485.192ZM466.016 38.616V37.116C459.002 37.116 453.763 38.341 450.331 41.7459C446.896 45.1535 445.622 50.3958 445.622 57.51H447.122H448.622C448.622 50.6182 449.886 46.4135 452.444 43.8756C455.004 41.335 459.212 40.116 466.016 40.116V38.616ZM447.122 57.51H445.622C445.622 64.6242 446.896 69.8665 450.331 73.2741C453.763 76.679 459.002 77.904 466.016 77.904V76.404V74.904C459.212 74.904 455.004 73.685 452.444 71.1444C449.886 68.6065 448.622 64.4018 448.622 57.51H447.122ZM522.361 89V90.5H523.861V89H522.361ZM508.261 89H506.761V90.5H508.261V89ZM508.261 26.02V24.52H506.761V26.02H508.261ZM523.301 26.02L524.497 25.1146L524.047 24.52H523.301V26.02ZM545.861 55.818L547.117 54.9983L547.089 54.9544L547.057 54.9126L545.861 55.818ZM554.509 69.072L553.253 69.8917L553.697 70.572H554.509V69.072ZM555.543 69.072V70.572H557.123L557.041 68.9943L555.543 69.072ZM554.885 56.382H553.385V56.4209L553.387 56.4597L554.885 56.382ZM554.885 26.02V24.52H553.385V26.02H554.885ZM568.985 26.02H570.485V24.52H568.985V26.02ZM568.985 89V90.5H570.485V89H568.985ZM553.945 89L552.758 89.9165L553.208 90.5H553.945V89ZM530.727 58.92L529.483 59.7589L529.51 59.7986L529.54 59.8365L530.727 58.92ZM522.737 47.076L523.98 46.2371L523.534 45.576H522.737V47.076ZM521.797 47.076V45.576H520.222L520.299 47.1491L521.797 47.076ZM522.361 58.638H523.861V58.6014L523.859 58.5649L522.361 58.638ZM522.361 89V87.5H508.261V89V90.5H522.361V89ZM508.261 89H509.761V26.02H508.261H506.761V89H508.261ZM508.261 26.02V27.52H523.301V26.02V24.52H508.261V26.02ZM523.301 26.02L522.105 26.9254L544.665 56.7234L545.861 55.818L547.057 54.9126L524.497 25.1146L523.301 26.02ZM545.861 55.818L544.605 56.6377L553.253 69.8917L554.509 69.072L555.765 68.2523L547.117 54.9983L545.861 55.818ZM554.509 69.072V70.572H555.543V69.072V67.572H554.509V69.072ZM555.543 69.072L557.041 68.9943L556.383 56.3043L554.885 56.382L553.387 56.4597L554.045 69.1497L555.543 69.072ZM554.885 56.382H556.385V26.02H554.885H553.385V56.382H554.885ZM554.885 26.02V27.52H568.985V26.02V24.52H554.885V26.02ZM568.985 26.02H567.485V89H568.985H570.485V26.02H568.985ZM568.985 89V87.5H553.945V89V90.5H568.985V89ZM553.945 89L555.132 88.0835L531.914 58.0035L530.727 58.92L529.54 59.8365L552.758 89.9165L553.945 89ZM530.727 58.92L531.97 58.0811L523.98 46.2371L522.737 47.076L521.493 47.9149L529.483 59.7589L530.727 58.92ZM522.737 47.076V45.576H521.797V47.076V48.576H522.737V47.076ZM521.797 47.076L520.299 47.1491L520.863 58.7111L522.361 58.638L523.859 58.5649L523.295 47.0029L521.797 47.076ZM522.361 58.638H520.861V89H522.361H523.861V58.638H522.361ZM577.124 67.192V65.692H575.624V67.192H577.124ZM591.224 67.192H592.724V65.692H591.224V67.192ZM612.186 64.748L612.443 63.2702L612.421 63.2664L612.399 63.2632L612.186 64.748ZM594.514 62.21L594.279 63.6915L594.29 63.6932L594.301 63.6948L594.514 62.21ZM633.806 47.828V49.328H635.306V47.828H633.806ZM619.612 47.828H618.112V49.328H619.612V47.828ZM598.086 49.896L597.822 51.3726L597.836 51.3751L597.85 51.3773L598.086 49.896ZM606.922 89.94V88.44C597.541 88.44 590.457 86.5857 585.754 83.1373C581.126 79.7443 578.624 74.6771 578.624 67.756H577.124H575.624C575.624 75.4989 578.48 81.5237 583.98 85.5567C589.406 89.5343 597.221 91.44 606.922 91.44V89.94ZM577.124 67.756H578.624V67.192H577.124H575.624V67.756H577.124ZM577.124 67.192V68.692H591.224V67.192V65.692H577.124V67.192ZM591.224 67.192H589.724V68.884H591.224H592.724V67.192H591.224ZM591.224 68.884H589.724C589.724 70.4493 589.917 71.929 590.514 73.2415C591.127 74.5912 592.122 75.6617 593.54 76.4641C596.247 77.9948 600.54 78.562 606.922 78.562V77.062V75.562C600.52 75.562 596.964 74.9542 595.018 73.8529C594.11 73.3393 593.577 72.7296 593.244 71.9995C592.896 71.2323 592.724 70.2327 592.724 68.884H591.224ZM606.922 77.062V78.562C612.546 78.562 616.334 78.1551 618.735 77.0499C619.995 76.4701 620.946 75.6676 621.554 74.5841C622.149 73.5245 622.334 72.3407 622.334 71.14H620.834H619.334C619.334 72.0543 619.19 72.6683 618.939 73.1155C618.701 73.539 618.289 73.9527 617.481 74.3246C615.746 75.1229 612.578 75.562 606.922 75.562V77.062ZM620.834 71.14H622.334C622.334 70.0427 622.181 69.0102 621.768 68.0704C621.347 67.1119 620.692 66.3349 619.82 65.7055C618.16 64.5076 615.683 63.8336 612.443 63.2702L612.186 64.748L611.929 66.2258C615.175 66.7904 617.022 67.3854 618.064 68.138C618.544 68.4839 618.835 68.8524 619.022 69.2775C619.217 69.7213 619.334 70.3103 619.334 71.14H620.834ZM612.186 64.748L612.399 63.2632L594.727 60.7252L594.514 62.21L594.301 63.6948L611.973 66.2328L612.186 64.748ZM594.514 62.21L594.749 60.7285C589.282 59.8629 585.12 58.0901 582.338 55.4571C579.597 52.8623 578.06 49.3041 578.06 44.538H576.56H575.06C575.06 50.0179 576.86 54.4027 580.276 57.6359C583.651 60.8308 588.466 62.771 594.279 63.6915L594.514 62.21ZM576.56 44.538H578.06C578.06 40.218 579.802 35.7938 583.998 32.4174C588.22 29.0203 595.062 26.58 605.418 26.58V25.08V23.58C594.624 23.58 587.037 26.1217 582.117 30.0801C577.172 34.0592 575.06 39.364 575.06 44.538H576.56ZM605.418 25.08V26.58C614.893 26.58 621.6 28.7671 625.914 32.355C630.189 35.9098 632.306 40.999 632.306 47.264H633.806H635.306C635.306 40.275 632.911 34.2722 627.833 30.0485C622.794 25.8579 615.307 23.58 605.418 23.58V25.08ZM633.806 47.264H632.306V47.828H633.806H635.306V47.264H633.806ZM633.806 47.828V46.328H619.612V47.828V49.328H633.806V47.828ZM619.612 47.828H621.112V46.512H619.612H618.112V47.828H619.612ZM619.612 46.512H621.112C621.112 44.8933 620.906 43.3729 620.301 42.0236C619.681 40.6416 618.683 39.5308 617.263 38.6888C614.54 37.0741 610.263 36.458 604.008 36.458V37.958V39.458C610.255 39.458 613.78 40.1109 615.733 41.2692C616.651 41.8137 617.211 42.4654 617.563 43.2513C617.93 44.0699 618.112 45.1226 618.112 46.512H619.612ZM604.008 37.958V36.458C598.907 36.458 595.291 36.9418 592.916 38.1025C591.687 38.7026 590.737 39.5085 590.109 40.5604C589.485 41.6059 589.254 42.7721 589.254 43.974H590.754H592.254C592.254 43.1549 592.41 42.5586 592.686 42.0972C592.957 41.6421 593.416 41.1966 594.232 40.798C595.946 39.9611 598.957 39.458 604.008 39.458V37.958ZM590.754 43.974H589.254C589.254 46.1367 589.891 47.8833 591.531 49.1457C593.02 50.2921 595.178 50.9004 597.822 51.3726L598.086 49.896L598.35 48.4194C595.73 47.9516 594.222 47.4319 593.361 46.7688C592.651 46.2217 592.254 45.4773 592.254 43.974H590.754ZM598.086 49.896L597.85 51.3773L615.522 54.1973L615.758 52.716L615.995 51.2348L598.322 48.4147L598.086 49.896ZM615.758 52.716L615.522 54.1973C622.384 55.2952 626.834 57.4815 629.565 60.2545C632.267 62.9983 633.434 66.4689 633.434 70.482H634.934H636.434C636.434 65.8471 635.063 61.5627 631.702 58.1495C628.37 54.7655 623.233 52.3929 615.995 51.2348L615.758 52.716ZM634.934 70.482H633.434C633.434 75.1873 631.615 79.6043 627.502 82.8799C623.353 86.1835 616.723 88.44 606.922 88.44V89.94V91.44C617.143 91.44 624.519 89.0905 629.371 85.2266C634.258 81.3347 636.434 76.0227 636.434 70.482H634.934ZM677.618 89V90.5H679.118V89H677.618ZM663.518 89H662.018V90.5H663.518V89ZM663.518 38.71H665.018V37.21H663.518V38.71ZM640.112 38.71H638.612V40.21H640.112V38.71ZM640.112 26.02V24.52H638.612V26.02H640.112ZM701.024 26.02H702.524V24.52H701.024V26.02ZM701.024 38.71V40.21H702.524V38.71H701.024ZM677.618 38.71V37.21H676.118V38.71H677.618ZM677.618 89V87.5H663.518V89V90.5H677.618V89ZM663.518 89H665.018V38.71H663.518H662.018V89H663.518ZM663.518 38.71V37.21H640.112V38.71V40.21H663.518V38.71ZM640.112 38.71H641.612V26.02H640.112H638.612V38.71H640.112ZM640.112 26.02V27.52H701.024V26.02V24.52H640.112V26.02ZM701.024 26.02H699.524V38.71H701.024H702.524V26.02H701.024ZM701.024 38.71V37.21H677.618V38.71V40.21H701.024V38.71ZM677.618 38.71H676.118V89H677.618H679.118V38.71H677.618ZM722.06 89V90.5H723.56V89H722.06ZM707.96 89H706.46V90.5H707.96V89ZM707.96 26.02V24.52H706.46V26.02H707.96ZM749.32 62.398L749.177 60.9048L747.82 61.0341V62.398H749.32ZM749.32 63.15H747.82V64.3024L748.933 64.5994L749.32 63.15ZM759.472 72.08L758.147 72.7844L758.151 72.7916L759.472 72.08ZM768.59 89V90.5H771.102L769.91 88.2884L768.59 89ZM752.234 89L750.907 89.7011L751.33 90.5H752.234V89ZM743.586 72.644L742.254 73.3352L742.259 73.3451L743.586 72.644ZM722.06 66.158V64.658H720.56V66.158H722.06ZM722.06 38.71V37.21H720.56V38.71H722.06ZM722.06 55.536H720.56V57.036H722.06V55.536ZM722.06 89V87.5H707.96V89V90.5H722.06V89ZM707.96 89H709.46V26.02H707.96H706.46V89H707.96ZM707.96 26.02V27.52H742.74V26.02V24.52H707.96V26.02ZM742.74 26.02V27.52C750.301 27.52 756.016 29.1961 759.809 32.1399C763.547 35.0414 765.586 39.3032 765.586 44.914H767.086H768.586C768.586 38.4928 766.206 33.3076 761.649 29.7701C757.146 26.2749 750.688 24.52 742.74 24.52V26.02ZM767.086 44.914H765.586C765.586 49.739 764.2 53.4087 761.585 56.0125C758.95 58.6372 754.884 60.3612 749.177 60.9048L749.32 62.398L749.462 63.8912C755.599 63.3068 760.416 61.4118 763.703 58.138C767.01 54.8433 768.586 50.335 768.586 44.914H767.086ZM749.32 62.398H747.82V63.15H749.32H750.82V62.398H749.32ZM749.32 63.15L748.933 64.5994C751.539 65.2944 753.253 66.308 754.585 67.5992C755.947 68.9194 756.985 70.5996 758.147 72.7844L759.472 72.08L760.796 71.3756C759.608 69.1424 758.39 67.1096 756.673 65.4453C754.927 63.752 752.74 62.5096 749.706 61.7006L749.32 63.15ZM759.472 72.08L758.151 72.7916L767.269 89.7116L768.59 89L769.91 88.2884L760.792 71.3684L759.472 72.08ZM768.59 89V87.5H752.234V89V90.5H768.59V89ZM752.234 89L753.56 88.2989L744.912 71.9429L743.586 72.644L742.259 73.3451L750.907 89.7011L752.234 89ZM743.586 72.644L744.917 71.9528C743.6 69.4173 742.208 67.4808 740.001 66.2564C737.835 65.0547 735.096 64.658 731.366 64.658V66.158V67.658C734.967 67.658 737.069 68.0603 738.546 68.8796C739.981 69.6762 741.033 70.9827 742.254 73.3352L743.586 72.644ZM731.366 66.158V64.658H722.06V66.158V67.658H731.366V66.158ZM722.06 66.158H720.56V89H722.06H723.56V66.158H722.06ZM722.06 38.71H720.56V55.536H722.06H723.56V38.71H722.06ZM722.06 55.536V57.036H742.646V55.536V54.036H722.06V55.536ZM742.646 55.536V57.036C746.039 57.036 748.922 56.5778 750.937 54.9364C753.034 53.2272 753.828 50.5558 753.828 47.076H752.328H750.828C750.828 50.1762 750.117 51.7348 749.042 52.6106C747.884 53.5542 745.926 54.036 742.646 54.036V55.536ZM752.328 47.076H753.828C753.828 43.7564 753.021 41.1324 750.947 39.4121C748.944 37.7506 746.076 37.21 742.646 37.21V38.71V40.21C745.89 40.21 747.862 40.7503 749.032 41.7209C750.13 42.6326 750.828 44.1916 750.828 47.076H752.328ZM742.646 38.71V37.21H722.06V38.71V40.21H742.646V38.71ZM774.454 26.02V24.52H772.954V26.02H774.454ZM788.554 26.02H790.054V24.52H788.554V26.02ZM822.206 26.02V24.52H820.706V26.02H822.206ZM836.306 26.02H837.806V24.52H836.306V26.02ZM805.38 89.94V88.44C795.369 88.44 788.048 85.9149 783.241 81.5451C778.455 77.1943 775.954 70.8247 775.954 62.68H774.454H772.954C772.954 71.4553 775.669 78.7157 781.223 83.7649C786.756 88.7951 794.898 91.44 805.38 91.44V89.94ZM774.454 62.68H775.954V26.02H774.454H772.954V62.68H774.454ZM774.454 26.02V27.52H788.554V26.02V24.52H774.454V26.02ZM788.554 26.02H787.054V61.646H788.554H790.054V26.02H788.554ZM788.554 61.646H787.054C787.054 67.1272 788.074 71.332 791.18 74.074C794.227 76.7646 798.928 77.716 805.38 77.716V76.216V74.716C799.047 74.716 795.335 73.7404 793.165 71.825C791.054 69.961 790.054 66.8808 790.054 61.646H788.554ZM805.38 76.216V77.716C811.875 77.716 816.579 76.7658 819.617 74.0717C822.712 71.327 823.706 67.1192 823.706 61.646H822.206H820.706C820.706 66.8888 819.725 69.966 817.626 71.8273C815.471 73.7392 811.762 74.716 805.38 74.716V76.216ZM822.206 61.646H823.706V26.02H822.206H820.706V61.646H822.206ZM822.206 26.02V27.52H836.306V26.02V24.52H822.206V26.02ZM836.306 26.02H834.806V62.68H836.306H837.806V26.02H836.306ZM836.306 62.68H834.806C834.806 70.8285 832.325 77.1972 827.552 81.5462C822.758 85.9141 815.438 88.44 805.38 88.44V89.94V91.44C815.907 91.44 824.05 88.7959 829.573 83.7638C835.116 78.7128 837.806 71.4515 837.806 62.68H836.306ZM909.674 52.246V53.746H911.174V52.246H909.674ZM893.976 52.246H892.476V53.746H893.976V52.246ZM893.976 62.774V61.274H892.476V62.774H893.976ZM909.674 62.774H911.174V61.274H909.674V62.774ZM877.526 89.94V88.44C867.449 88.44 859.438 85.3446 853.955 80.0165C848.476 74.6922 845.374 66.9972 845.374 57.51H843.874H842.374C842.374 67.6688 845.711 76.1888 851.864 82.168C858.014 88.1434 866.829 91.44 877.526 91.44V89.94ZM843.874 57.51H845.374C845.374 48.0228 848.476 40.3278 853.955 35.0035C859.438 29.6754 867.449 26.58 877.526 26.58V25.08V23.58C866.829 23.58 858.014 26.8766 851.864 32.852C845.711 38.8312 842.374 47.3512 842.374 57.51H843.874ZM877.526 25.08V26.58C887.07 26.58 894.744 28.9672 899.999 33.1402C905.216 37.2826 908.174 43.2797 908.174 50.836H909.674H911.174C911.174 42.4123 907.834 35.5314 901.865 30.7908C895.934 26.0808 887.534 23.58 877.526 23.58V25.08ZM909.674 50.836H908.174V52.246H909.674H911.174V50.836H909.674ZM909.674 52.246V50.746H893.976V52.246V53.746H909.674V52.246ZM893.976 52.246H895.476V50.836H893.976H892.476V52.246H893.976ZM893.976 50.836H895.476C895.476 46.4073 894.203 42.8339 891.111 40.4382C888.108 38.1115 883.657 37.116 877.808 37.116V38.616V40.116C883.427 40.116 887.06 41.0945 889.274 42.8098C891.399 44.4561 892.476 46.9927 892.476 50.836H893.976ZM877.808 38.616V37.116C870.793 37.116 865.534 38.3413 862.08 41.7418C858.62 45.1478 857.32 50.39 857.32 57.51H858.82H860.32C860.32 50.624 861.605 46.4192 864.185 43.8797C866.77 41.3347 871.005 40.116 877.808 40.116V38.616ZM858.82 57.51H857.32C857.32 64.63 858.62 69.8722 862.08 73.2782C865.534 76.6787 870.793 77.904 877.808 77.904V76.404V74.904C871.005 74.904 866.77 73.6853 864.185 71.1403C861.605 68.6008 860.32 64.396 860.32 57.51H858.82ZM877.808 76.404V77.904C883.657 77.904 888.108 76.9085 891.111 74.5818C894.203 72.1861 895.476 68.6127 895.476 64.184H893.976H892.476C892.476 68.0273 891.399 70.5639 889.274 72.2102C887.06 73.9255 883.427 74.904 877.808 74.904V76.404ZM893.976 64.184H895.476V62.774H893.976H892.476V64.184H893.976ZM893.976 62.774V64.274H909.674V62.774V61.274H893.976V62.774ZM909.674 62.774H908.174V64.184H909.674H911.174V62.774H909.674ZM909.674 64.184H908.174C908.174 71.7439 905.236 77.7403 900.033 81.8808C894.791 86.0521 887.118 88.44 877.526 88.44V89.94V91.44C887.58 91.44 895.981 88.9399 901.901 84.2282C907.861 79.4857 911.174 72.6041 911.174 64.184H909.674ZM952.726 89V90.5H954.226V89H952.726ZM938.626 89H937.126V90.5H938.626V89ZM938.626 38.71H940.126V37.21H938.626V38.71ZM915.22 38.71H913.72V40.21H915.22V38.71ZM915.22 26.02V24.52H913.72V26.02H915.22ZM976.132 26.02H977.632V24.52H976.132V26.02ZM976.132 38.71V40.21H977.632V38.71H976.132ZM952.726 38.71V37.21H951.226V38.71H952.726ZM952.726 89V87.5H938.626V89V90.5H952.726V89ZM938.626 89H940.126V38.71H938.626H937.126V89H938.626ZM938.626 38.71V37.21H915.22V38.71V40.21H938.626V38.71ZM915.22 38.71H916.72V26.02H915.22H913.72V38.71H915.22ZM915.22 26.02V27.52H976.132V26.02V24.52H915.22V26.02ZM976.132 26.02H974.632V38.71H976.132H977.632V26.02H976.132ZM976.132 38.71V37.21H952.726V38.71V40.21H976.132V38.71ZM952.726 38.71H951.226V89H952.726H954.226V38.71H952.726ZM997.167 89V90.5H998.667V89H997.167ZM983.067 89H981.567V90.5H983.067V89ZM983.067 26.02V24.52H981.567V26.02H983.067ZM997.167 26.02H998.667V24.52H997.167V26.02ZM997.167 89V87.5H983.067V89V90.5H997.167V89ZM983.067 89H984.567V26.02H983.067H981.567V89H983.067ZM983.067 26.02V27.52H997.167V26.02V24.52H983.067V26.02ZM997.167 26.02H995.667V89H997.167H998.667V26.02H997.167ZM1038.86 89.94V88.44C1028.73 88.44 1020.67 85.3433 1015.15 80.0133C1009.64 74.6881 1006.52 66.9939 1006.52 57.51H1005.02H1003.52C1003.52 67.6721 1006.88 76.1929 1013.07 82.1712C1019.25 88.1447 1028.12 91.44 1038.86 91.44V89.94ZM1005.02 57.51H1006.52C1006.52 48.0261 1009.64 40.3319 1015.15 35.0067C1020.67 29.6767 1028.73 26.58 1038.86 26.58V25.08V23.58C1028.12 23.58 1019.25 26.8753 1013.07 32.8488C1006.88 38.8271 1003.52 47.3479 1003.52 57.51H1005.02ZM1038.86 25.08V26.58C1049.23 26.58 1057.38 29.6815 1062.93 35.0098C1068.47 40.3324 1071.57 48.0234 1071.57 57.51H1073.07H1074.57C1074.57 47.3506 1071.24 38.8266 1065.01 32.8457C1058.78 26.8705 1049.83 23.58 1038.86 23.58V25.08ZM1073.07 57.51H1071.57C1071.57 66.9966 1068.47 74.6876 1062.93 80.0102C1057.38 85.3385 1049.23 88.44 1038.86 88.44V89.94V91.44C1049.83 91.44 1058.78 88.1495 1065.01 82.1743C1071.24 76.1934 1074.57 67.6694 1074.57 57.51H1073.07ZM1038.86 76.404V77.904C1045.87 77.904 1051.17 76.678 1054.67 73.2863C1058.18 69.8835 1059.53 64.6417 1059.53 57.51H1058.03H1056.53C1056.53 64.3843 1055.21 68.5895 1052.58 71.1322C1049.95 73.686 1045.66 74.904 1038.86 74.904V76.404ZM1058.03 57.51H1059.53C1059.53 50.3783 1058.18 45.1365 1054.67 41.7337C1051.17 38.342 1045.87 37.116 1038.86 37.116V38.616V40.116C1045.66 40.116 1049.95 41.334 1052.58 43.8878C1055.21 46.4305 1056.53 50.6357 1056.53 57.51H1058.03ZM1038.86 38.616V37.116C1031.84 37.116 1026.6 38.341 1023.17 41.7459C1019.74 45.1535 1018.46 50.3958 1018.46 57.51H1019.96H1021.46C1021.46 50.6182 1022.73 46.4135 1025.29 43.8756C1027.85 41.335 1032.05 40.116 1038.86 40.116V38.616ZM1019.96 57.51H1018.46C1018.46 64.6242 1019.74 69.8665 1023.17 73.2741C1026.6 76.679 1031.84 77.904 1038.86 77.904V76.404V74.904C1032.05 74.904 1027.85 73.685 1025.29 71.1444C1022.73 68.6065 1021.46 64.4018 1021.46 57.51H1019.96ZM1095.2 89V90.5H1096.7V89H1095.2ZM1081.1 89H1079.6V90.5H1081.1V89ZM1081.1 26.02V24.52H1079.6V26.02H1081.1ZM1096.14 26.02L1097.34 25.1146L1096.89 24.52H1096.14V26.02ZM1118.7 55.818L1119.96 54.9983L1119.93 54.9544L1119.9 54.9126L1118.7 55.818ZM1127.35 69.072L1126.09 69.8917L1126.54 70.572H1127.35V69.072ZM1128.38 69.072V70.572H1129.96L1129.88 68.9943L1128.38 69.072ZM1127.73 56.382H1126.23V56.4209V56.4597L1127.73 56.382ZM1127.73 26.02V24.52H1126.23V26.02H1127.73ZM1141.83 26.02H1143.33V24.52H1141.83V26.02ZM1141.83 89V90.5H1143.33V89H1141.83ZM1126.79 89L1125.6 89.9165L1126.05 90.5H1126.79V89ZM1103.57 58.92L1102.33 59.7589L1102.35 59.7986L1102.38 59.8365L1103.57 58.92ZM1095.58 47.076L1096.82 46.2371L1096.38 45.576H1095.58V47.076ZM1094.64 47.076V45.576H1093.06L1093.14 47.1491L1094.64 47.076ZM1095.2 58.638H1096.7V58.6014V58.5649L1095.2 58.638ZM1095.2 89V87.5H1081.1V89V90.5H1095.2V89ZM1081.1 89H1082.6V26.02H1081.1H1079.6V89H1081.1ZM1081.1 26.02V27.52H1096.14V26.02V24.52H1081.1V26.02ZM1096.14 26.02L1094.95 26.9254L1117.51 56.7234L1118.7 55.818L1119.9 54.9126L1097.34 25.1146L1096.14 26.02ZM1118.7 55.818L1117.45 56.6377L1126.09 69.8917L1127.35 69.072L1128.61 68.2523L1119.96 54.9983L1118.7 55.818ZM1127.35 69.072V70.572H1128.38V69.072V67.572H1127.35V69.072ZM1128.38 69.072L1129.88 68.9943L1129.22 56.3043L1127.73 56.382L1126.23 56.4597L1126.89 69.1497L1128.38 69.072ZM1127.73 56.382H1129.23V26.02H1127.73H1126.23V56.382H1127.73ZM1127.73 26.02V27.52H1141.83V26.02V24.52H1127.73V26.02ZM1141.83 26.02H1140.33V89H1141.83H1143.33V26.02H1141.83ZM1141.83 89V87.5H1126.79V89V90.5H1141.83V89ZM1126.79 89L1127.97 88.0835L1104.76 58.0035L1103.57 58.92L1102.38 59.8365L1125.6 89.9165L1126.79 89ZM1103.57 58.92L1104.81 58.0811L1096.82 46.2371L1095.58 47.076L1094.34 47.9149L1102.33 59.7589L1103.57 58.92ZM1095.58 47.076V45.576H1094.64V47.076V48.576H1095.58V47.076ZM1094.64 47.076L1093.14 47.1491L1093.7 58.7111L1095.2 58.638L1096.7 58.5649L1096.14 47.0029L1094.64 47.076ZM1095.2 58.638H1093.7V89H1095.2H1096.7V58.638H1095.2Z" fill="black"/>
</g>
<mask id="mask2_144_6469" style="mask-type:luminance" maskUnits="userSpaceOnUse" x="1195" y="71" width="21" height="19">
<path d="M1216 71H1195V90H1216V71Z" fill="white"/>
<path d="M1214.96 89H1196.82V72.55H1214.96V89Z" fill="black"/>
</mask>
<g mask="url(#mask2_144_6469)">
<path d="M1214.96 89V90H1215.96V89H1214.96ZM1196.82 89H1195.82V90H1196.82V89ZM1196.82 72.55V71.55H1195.82V72.55H1196.82ZM1214.96 72.55H1215.96V71.55H1214.96V72.55ZM1214.96 89V88H1196.82V89V90H1214.96V89ZM1196.82 89H1197.82V72.55H1196.82H1195.82V89H1196.82ZM1196.82 72.55V73.55H1214.96V72.55V71.55H1196.82V72.55ZM1214.96 72.55H1213.96V89H1214.96H1215.96V72.55H1214.96Z" fill="black"/>
</g>
</g>
</g>
<defs>
<clipPath id="clip0_144_6469">
<rect width="1246" height="118" fill="white"/>
</clipPath>
</defs>
</svg>
