<svg width="65" height="32" viewBox="0 0 65 32" fill="none" xmlns="http://www.w3.org/2000/svg">
<path fill-rule="evenodd" clip-rule="evenodd" d="M0.000337601 32.0006L0.000340398 0.000847371C0.000431951 0.000847371 0.00052255 0.000845464 0.000613149 0.000845464C8.8371 0.000846237 16.0005 7.16424 16.0005 16.0007C16.0005 24.8372 8.8371 32.0006 0.000610352 32.0006C0.000519753 32.0006 0.000429153 32.0006 0.000337601 32.0006Z" fill="black"/>
<path fill-rule="evenodd" clip-rule="evenodd" d="M32.0002 0V31.9998C32.0001 31.9998 32 31.9998 31.9999 31.9998C23.1634 31.9998 16 24.8364 16 15.9999C16 7.16339 23.1634 0 31.9999 0C32 0 32.0001 0 32.0002 0Z" fill="black"/>
<path fill-rule="evenodd" clip-rule="evenodd" d="M49.7337 0.0652219C49.2546 0.0220533 48.7695 0 48.2792 0C39.4427 0 32.2793 7.16339 32.2793 15.9999C32.2793 24.8364 39.4427 31.9998 48.2792 31.9998C57.1156 31.9998 64.279 24.8365 64.2791 16H49.7337V0.0652219Z" fill="black"/>
</svg>
