<svg width="14" height="10" viewBox="0 0 14 10" fill="none" xmlns="http://www.w3.org/2000/svg">
<path d="M1.48934 0.962524C1.36384 0.962524 1.2447 0.988888 1.13505 1.03239L6.55427 5.76798C6.78853 5.97263 7.03804 5.97277 7.27284 5.76798L12.702 1.03239C12.5924 0.988888 12.4733 0.962524 12.3478 0.962524H1.48934ZM0.54123 1.78588C0.535189 1.82953 0.53125 1.87525 0.53125 1.92062V8.30792C0.53125 8.83869 0.95857 9.26601 1.48934 9.26601H12.3478C12.8785 9.26601 13.3058 8.83869 13.3058 8.30792V1.92062C13.3058 1.87525 13.3019 1.82953 13.2959 1.78588L7.90159 6.49153C7.33879 6.98241 6.48829 6.98319 5.92552 6.49153L0.54123 1.78588Z" fill="white"/>
</svg>
