<svg width="157" height="157" viewBox="0 0 157 157" fill="none" xmlns="http://www.w3.org/2000/svg">
<circle cx="79.1982" cy="79.1982" r="72.9178" fill="#1A1A1A"/>
<path d="M81.3213 20.7079L79.8251 20.5622L80.4759 13.8794L82.5007 14.0766L83.7462 17.5206L84.222 19.1478L84.3318 19.1585L85.0927 17.6518L86.9294 14.5079L88.9641 14.706L88.3133 21.3889L86.8172 21.2431L87.1474 17.8519L87.2993 16.8094L87.1896 16.7987L86.6986 17.8081L85.0108 20.6645L83.1954 20.4877L82.0904 17.3594L81.8034 16.2742L81.6937 16.2635L81.6515 17.3166L81.3213 20.7079Z" fill="white"/>
<path d="M91.5359 23.7747L90.7427 23.5597L91.0994 22.2442L92.2891 22.5668C92.647 22.6638 92.8279 22.609 92.9823 22.4225L91.9316 16.9148L93.5759 17.3606L94.0007 19.8535L94.0975 21.105L94.1942 21.1312L94.8932 20.0851L96.4099 18.1289L98.0252 18.5668L94.2183 23.1106C93.4787 24.0003 92.7546 24.1051 91.5359 23.7747Z" fill="white"/>
<path d="M103.693 26.2534C102.291 25.5612 101.971 24.2631 102.672 22.8433C103.382 21.4056 104.593 20.8752 105.932 21.5363C107.002 22.0643 107.288 22.8651 107.068 23.6953L107.149 23.7352L108.489 21.0215L109.837 21.687L106.864 27.7076L105.606 27.0864L106.223 25.8374L106.151 25.8019C105.541 26.6072 104.726 26.7636 103.693 26.2534ZM104.037 23.5177C103.634 24.3355 103.896 24.8227 104.759 25.2486C105.612 25.6701 106.226 25.6043 106.612 24.8225L106.648 24.7506C107.034 23.9689 106.717 23.455 105.855 23.0291C104.992 22.6032 104.446 22.691 104.037 23.5177Z" fill="white"/>
<path d="M111.381 30.5662C109.998 29.6242 109.516 28.3019 110.52 26.8275C111.422 25.5021 112.928 25.3028 114.295 26.2335C115.653 27.1586 116.071 28.4858 115.186 29.7863C115.084 29.9354 114.994 30.0318 114.882 30.1613L111.502 27.86C111.101 28.5204 111.213 28.9968 112.016 29.5439C112.754 30.0459 113.14 30.0303 113.383 29.6741L113.439 29.5912L114.682 30.4373L114.62 30.5284C114.005 31.4313 112.698 31.463 111.381 30.5662ZM113.61 27.1858C112.873 26.6838 112.389 26.7179 111.964 27.2169L114.168 28.7172C114.507 28.148 114.339 27.6821 113.61 27.1858Z" fill="white"/>
<path d="M117.504 35.2331C116.24 34.1057 115.985 32.9917 116.759 32.1242L116.779 32.1018L117.901 33.1024L117.841 33.1697C117.541 33.5063 117.67 33.7828 118.306 34.3498C118.904 34.8835 119.133 34.9131 119.333 34.6887C119.52 34.4793 119.461 34.3194 119.073 33.866L118.132 32.7982C117.457 32.0489 117.339 31.3387 117.899 30.7105C118.486 30.0524 119.514 30.0293 120.8 31.1767C122.027 32.2708 122.309 33.3549 121.495 34.2672L121.475 34.2897L120.353 33.289L120.393 33.2441C120.667 32.9375 120.657 32.647 119.969 32.0333C119.408 31.533 119.179 31.5034 118.966 31.7427C118.793 31.9372 118.824 32.1128 119.264 32.613L119.978 33.424C120.88 34.4301 120.953 35.1002 120.4 35.7209C119.773 36.4239 118.663 36.2671 117.504 35.2331Z" fill="white"/>
<path d="M126.213 35.8614L125.194 34.7558L126.064 33.9546L127.082 35.0603L126.213 35.8614ZM122.144 39.6092L121.125 38.5036L124.818 35.102L125.837 36.2077L122.144 39.6092Z" fill="white"/>
<path d="M125.702 42.9872C124.812 41.7885 125.014 40.5648 126.149 39.7222C127.275 38.8856 128.543 39.0799 129.439 40.2867C130.049 41.1073 130.131 41.9575 129.526 42.6061L129.574 42.6705L130.548 41.9475L131.384 43.0738L127.941 45.6313C126.533 46.6771 125.272 46.2904 124.203 44.8503C123.235 43.547 123.204 42.2961 124.218 41.5432L125.114 42.75C124.664 43.0846 124.658 43.3632 125.268 44.1838C125.842 44.9561 126.176 45.0699 126.964 44.4843L127.873 43.8091L127.826 43.7447C127.135 44.0582 126.372 43.8883 125.702 42.9872ZM127.051 40.937C126.456 41.3792 126.489 41.8785 127.051 42.6347C127.625 43.407 128.123 43.6238 128.678 43.2115L128.766 43.1458C129.313 42.7394 129.236 42.1979 128.68 41.4497C128.106 40.6774 127.646 40.4949 127.051 40.937Z" fill="white"/>
<path d="M129.596 49.5771L128.878 48.2565L133.289 45.8579L133.954 47.0816L132.598 47.8189L132.641 47.8982C133.443 47.6105 134.435 47.7557 135.062 48.909C135.718 50.1152 135.254 51.1087 134.277 51.6402L131.53 53.1339L130.812 51.8133L133.119 50.5589C133.823 50.1759 133.964 49.7226 133.524 48.9127C133.069 48.0763 132.572 47.9589 131.823 48.3658L129.596 49.5771Z" fill="white"/>
<path d="M132.681 60.1424L132.229 58.7085L138.644 56.6904L139.062 58.0192L137.752 58.4313L137.782 58.5269C138.754 58.4102 139.434 58.8687 139.789 59.9967C140.252 61.4689 139.536 62.5978 138.016 63.076C136.496 63.5541 135.278 63.0549 134.824 61.6114C134.475 60.5025 134.827 59.7192 135.617 59.2921L135.596 59.2251L132.681 60.1424ZM136.629 58.9003C135.807 59.159 135.676 59.7463 135.959 60.6449C136.248 61.5626 136.689 61.8966 137.559 61.6229C138.438 61.3462 138.599 60.8228 138.314 59.9146C138.022 58.9873 137.556 58.6086 136.705 58.8763L136.629 58.9003Z" fill="white"/>
<path d="M136.633 68.937C136.353 67.2463 137.173 65.9423 138.735 65.6836C140.317 65.4216 141.504 66.3932 141.784 68.0839C142.064 69.7746 141.253 71.0769 139.671 71.3389C138.109 71.5976 136.913 70.6276 136.633 68.937ZM137.947 68.7192C138.113 69.7178 138.557 70.0099 139.427 69.8658C140.297 69.7217 140.644 69.2986 140.479 68.3C140.312 67.2916 139.849 67.0127 138.979 67.1568C138.109 67.3008 137.78 67.7107 137.947 68.7192Z" fill="white"/>
<path d="M137.547 75.5876L137.494 74.0854L142.511 73.9059L142.561 75.298L141.229 75.3456L141.232 75.4358C142.049 75.5469 142.689 76.0555 142.725 77.0671C142.765 78.1888 142.01 78.6771 141.029 78.7122L140.197 78.7419L140.144 77.2396L140.664 77.221C141.215 77.2013 141.448 76.9724 141.426 76.3614C141.402 75.6904 141.083 75.4612 140.452 75.4837L137.547 75.5876Z" fill="white"/>
<path d="M137.389 84.8515L137.483 83.6124C137.571 82.4432 138.175 81.7754 139.434 81.8708L141.392 82.0193L141.452 81.2298L142.691 81.3237L142.632 82.1132L143.601 82.1867L143.487 83.6856L142.518 83.6121L142.395 85.231L141.156 85.137L141.279 83.5182L139.49 83.3826C138.99 83.3447 138.846 83.5248 138.806 84.0544L138.738 84.9537L137.389 84.8515Z" fill="white"/>
<path d="M136.832 89.0294L137.092 87.5489L140.813 88.203L140.936 87.5022L142.16 87.7173L142.032 88.4477C143.001 88.7809 143.52 89.7675 143.252 91.2875L143.176 91.7218L142.1 91.5326L142.218 90.8615C142.333 90.21 142.278 89.885 141.787 89.8394L141.508 91.4285L140.284 91.2134L140.553 89.6835L136.832 89.0294Z" fill="white"/>
<path d="M135.301 95.355C135.793 93.7135 137.103 92.903 138.62 93.3576C140.156 93.8179 140.794 95.2125 140.302 96.854C139.81 98.4956 138.51 99.3089 136.974 98.8486C135.457 98.394 134.809 96.9966 135.301 95.355ZM136.578 95.7377C136.287 96.7073 136.558 97.1651 137.403 97.4182C138.248 97.6714 138.745 97.4438 139.035 96.4742C139.329 95.4951 139.036 95.0411 138.191 94.7879C137.346 94.5347 136.871 94.7585 136.578 95.7377Z" fill="white"/>
<path d="M133.207 101.648L133.784 100.26L139.984 102.837L139.407 104.225L133.207 101.648Z" fill="white"/>
<path d="M136.459 107.84L137.132 106.496L138.19 107.025L137.517 108.369L136.459 107.84ZM131.512 105.364L132.185 104.02L136.675 106.267L136.002 107.611L131.512 105.364Z" fill="white"/>
<path d="M128.849 109.945C129.769 108.499 131.25 108.075 132.586 108.925C133.939 109.785 134.175 111.301 133.255 112.747C132.335 114.193 130.863 114.622 129.51 113.762C128.174 112.912 127.93 111.391 128.849 109.945ZM129.974 110.66C129.431 111.514 129.567 112.028 130.311 112.502C131.055 112.975 131.596 112.891 132.139 112.037C132.687 111.174 132.529 110.658 131.785 110.185C131.041 109.711 130.523 109.798 129.974 110.66Z" fill="white"/>
<path d="M120.268 120.928L124.354 116.586L125.055 117.245C125.916 118.055 126.011 118.846 125.386 120.198L124.613 121.838C124.355 122.42 124.349 122.718 124.671 123.02C125.043 123.371 125.447 123.366 126.202 122.563C127.047 121.665 127.031 121.141 126.491 120.633L126.396 120.543L127.405 119.47L127.5 119.56C128.449 120.452 128.699 121.912 127.168 123.54C125.78 125.014 124.546 124.981 123.619 124.109C122.75 123.292 122.855 122.317 123.432 121.222L124.143 119.882C124.443 119.27 124.517 118.913 124.13 118.549L123.053 119.943L121.253 121.855L120.268 120.928Z" fill="white"/>
<path d="M115.885 124.665C117.585 123.324 119.365 123.656 120.662 125.301C121.953 126.938 121.866 128.755 120.166 130.095C118.474 131.429 116.68 131.095 115.389 129.458C114.092 127.813 114.193 125.999 115.885 124.665ZM116.791 125.814C115.791 126.602 115.763 127.326 116.656 128.459C117.55 129.593 118.261 129.734 119.26 128.946C120.268 128.152 120.288 127.433 119.395 126.3C118.502 125.167 117.798 125.019 116.791 125.814Z" fill="white"/>
<path d="M106.227 131.176L111.405 128.219L111.882 129.055C112.469 130.082 112.328 130.866 111.335 131.976L110.116 133.318C109.698 133.799 109.606 134.082 109.825 134.465C110.078 134.909 110.466 135.022 111.423 134.475C112.494 133.864 112.632 133.358 112.264 132.714L112.2 132.601L113.479 131.871L113.543 131.984C114.189 133.115 114.001 134.584 112.061 135.693C110.303 136.696 109.132 136.303 108.501 135.198C107.909 134.162 108.295 133.261 109.167 132.383L110.238 131.309C110.705 130.812 110.88 130.493 110.617 130.031L109.178 131.049L106.898 132.351L106.227 131.176Z" fill="white"/>
<path d="M101.009 133.438C102.971 132.677 104.256 132.942 104.789 134.316L104.821 134.4L103.373 134.961L103.34 134.877C103.134 134.345 102.673 134.265 101.486 134.725C100.412 135.142 100.182 135.521 100.447 136.203C100.715 136.894 101.14 137.02 102.205 136.607C103.065 136.274 103.492 135.99 103.589 135.576L103.696 135.546L103.692 135.536L105.024 135.063L106.06 138.789L100.902 140.788L100.413 139.526L104.328 138.009L103.891 136.298L103.803 136.321C103.72 136.772 103.234 137.487 102.066 137.94C100.524 138.538 99.4681 138.087 98.9684 136.797C98.4432 135.443 99.0185 134.209 101.009 133.438Z" fill="white"/>
<path d="M85.1146 137.461L87.0389 137.266L87.2156 139.011L85.2913 139.206L85.1146 137.461Z" fill="white"/>
<path d="M71.7669 137.412L73.2441 137.691L72.0001 144.289L70.001 143.912L69.0675 140.37L68.7386 138.707L68.6303 138.687L67.738 140.12L65.6284 143.087L63.6194 142.709L64.8634 136.11L66.3406 136.389L65.7093 139.737L65.4651 140.762L65.5735 140.783L66.1525 139.821L68.0882 137.126L69.8806 137.464L70.7023 140.679L70.8914 141.785L70.9998 141.806L71.1356 140.76L71.7669 137.412Z" fill="white"/>
<path d="M61.835 133.433L62.6054 133.719L62.1314 134.996L60.9757 134.568C60.6281 134.439 60.4429 134.477 60.2722 134.649L60.821 140.229L59.2237 139.636L59.0259 137.115L59.0426 135.86L58.9486 135.825L58.158 136.804L56.4707 138.615L54.9016 138.033L59.1035 133.852C59.9205 133.032 60.6511 132.994 61.835 133.433Z" fill="white"/>
<path d="M49.9498 129.866C51.2837 130.682 51.4859 132.003 50.6601 133.354C49.8238 134.722 48.5691 135.142 47.2951 134.363C46.2776 133.741 46.0644 132.918 46.3581 132.11L46.2811 132.063L44.7026 134.646L43.42 133.862L46.922 128.133L48.1191 128.865L47.3925 130.053L47.4609 130.095C48.1408 129.348 48.9665 129.265 49.9498 129.866ZM49.3604 132.56C49.8361 131.782 49.6185 131.273 48.7977 130.771C47.9854 130.275 47.3683 130.285 46.9135 131.029L46.8717 131.097C46.417 131.841 46.6858 132.381 47.5067 132.883C48.3275 133.385 48.8796 133.346 49.3604 132.56Z" fill="white"/>
<path d="M42.6735 124.877C43.9669 125.939 44.3284 127.299 43.1964 128.677C42.1789 129.917 40.6614 129.98 39.3834 128.931C38.1132 127.888 37.8159 126.529 38.8143 125.313C38.9288 125.173 39.0269 125.085 39.1505 124.966L42.3106 127.561C42.7693 126.939 42.7003 126.455 41.949 125.838C41.2597 125.272 40.8733 125.253 40.5999 125.586L40.5363 125.663L39.3745 124.709L39.4445 124.624C40.1376 123.78 41.442 123.865 42.6735 124.877ZM40.1507 128.044C40.84 128.61 41.3251 128.619 41.7927 128.16L39.7325 126.469C39.3437 127.005 39.4691 127.484 40.1507 128.044Z" fill="white"/>
<path d="M36.9998 119.688C38.1581 120.924 38.313 122.056 37.4649 122.851L37.443 122.872L36.4149 121.775L36.4807 121.714C36.8097 121.405 36.7055 121.118 36.1229 120.497C35.5746 119.912 35.3493 119.862 35.1299 120.068C34.9252 120.26 34.9696 120.424 35.3155 120.91L36.1576 122.058C36.7626 122.864 36.8174 123.582 36.2033 124.158C35.5599 124.761 34.5341 124.692 33.3552 123.435C32.2311 122.236 32.0469 121.131 32.9389 120.295L32.9608 120.274L33.9889 121.371L33.9451 121.412C33.6453 121.693 33.6289 121.983 34.2594 122.656C34.7735 123.204 34.9988 123.254 35.2327 123.035C35.4228 122.856 35.4073 122.679 35.0134 122.141L34.3751 121.27C33.5663 120.187 33.5526 119.513 34.1594 118.944C34.8467 118.3 35.9374 118.555 36.9998 119.688Z" fill="white"/>
<path d="M28.3804 118.284L29.2961 119.476L28.3582 120.196L27.4426 119.004L28.3804 118.284ZM32.7677 114.914L33.6833 116.106L29.7014 119.164L28.7858 117.972L32.7677 114.914Z" fill="white"/>
<path d="M29.5252 111.236C30.3047 112.509 29.9939 113.71 28.7887 114.447C27.592 115.18 26.3467 114.873 25.5619 113.591C25.0283 112.719 25.0225 111.865 25.6824 111.273L25.6406 111.204L24.6063 111.837L23.8739 110.641L27.5323 108.402C29.0281 107.486 30.2494 107.984 31.1858 109.514C32.0334 110.899 31.9516 112.147 30.8746 112.807L30.0898 111.524C30.5685 111.231 30.5987 110.954 30.0651 110.083C29.5628 109.262 29.2402 109.119 28.4025 109.632L27.4366 110.223L27.4785 110.291C28.1947 110.041 28.9393 110.278 29.5252 111.236ZM27.9987 113.157C28.6313 112.77 28.6423 112.269 28.1505 111.466C27.6483 110.645 27.1716 110.385 26.5819 110.746L26.4878 110.803C25.9066 111.159 25.9355 111.705 26.422 112.5C26.9242 113.321 27.3662 113.544 27.9987 113.157Z" fill="white"/>
<path d="M26.2291 104.301L26.8249 105.681L22.2154 107.671L21.6632 106.392L23.0801 105.78L23.0444 105.697C22.2199 105.911 21.2455 105.677 20.7251 104.472C20.1809 103.211 20.7324 102.264 21.7537 101.823L24.6243 100.584L25.2201 101.964L22.8095 103.004C22.0735 103.322 21.8918 103.761 22.2572 104.607C22.6346 105.481 23.1193 105.643 23.9013 105.306L26.2291 104.301Z" fill="white"/>
<path d="M24.1124 93.4909L24.4314 94.9599L17.86 96.3867L17.5644 95.0254L18.9061 94.7341L18.8849 94.6362C17.9064 94.664 17.2709 94.1457 17.02 92.99C16.6925 91.4819 17.5086 90.4227 19.0657 90.0847C20.6229 89.7466 21.7906 90.3545 22.1117 91.8333C22.3584 92.9693 21.9362 93.7173 21.1105 94.0709L21.1254 94.1394L24.1124 93.4909ZM20.0677 94.3691C20.91 94.1862 21.0932 93.6132 20.8933 92.6926C20.6892 91.7524 20.2801 91.3798 19.3889 91.5733C18.4879 91.7689 18.28 92.2755 18.482 93.2059C18.6883 94.1558 19.1178 94.5753 19.9894 94.3861L20.0677 94.3691Z" fill="white"/>
<path d="M20.9766 84.4221C21.1045 86.131 20.1712 87.3566 18.5922 87.4748C16.9932 87.5945 15.8978 86.5208 15.7699 84.8118C15.642 83.1029 16.5653 81.8781 18.1643 81.7584C19.7433 81.6402 20.8486 82.7132 20.9766 84.4221ZM19.6474 84.5216C19.5719 83.5122 19.1552 83.1816 18.2757 83.2475C17.3963 83.3133 17.0135 83.7037 17.089 84.7131C17.1653 85.7324 17.6013 86.0516 18.4807 85.9857C19.3601 85.9199 19.7237 85.5409 19.6474 84.5216Z" fill="white"/>
<path d="M20.659 77.6126L20.5778 79.1137L15.5643 78.8426L15.6396 77.4516L16.9705 77.5236L16.9753 77.4335C16.1724 77.2496 15.5806 76.6857 15.6353 75.675C15.6959 74.5542 16.4913 74.1355 17.472 74.1886L18.3026 74.2335L18.2214 75.7345L17.701 75.7064C17.1506 75.6766 16.8986 75.8838 16.8656 76.4942C16.8293 77.1647 17.1265 77.4216 17.757 77.4557L20.659 77.6126Z" fill="white"/>
<path d="M21.6349 68.5007L21.4308 69.7265C21.2381 70.8831 20.5775 71.4944 19.332 71.287L17.3944 70.9642L17.2643 71.7452L16.0386 71.541L16.1686 70.7601L15.2098 70.6003L15.4567 69.1175L16.4156 69.2772L16.6824 67.6758L17.9081 67.88L17.6414 69.4814L19.4109 69.7762C19.9052 69.8585 20.065 69.6921 20.1522 69.1681L20.3004 68.2785L21.6349 68.5007Z" fill="white"/>
<path d="M22.5715 64.3635L22.1785 65.8144L18.5318 64.8266L18.3458 65.5134L17.1463 65.1885L17.3402 64.4727C16.4052 64.0533 15.978 63.0239 16.3815 61.5343L16.4968 61.1087L17.5511 61.3943L17.373 62.052C17.2 62.6904 17.2252 63.0191 17.7097 63.1088L18.1315 61.5515L19.331 61.8764L18.9248 63.3757L22.5715 64.3635Z" fill="white"/>
<path d="M24.6583 58.2302C24.0204 59.8208 22.6427 60.5099 21.1731 59.9205C19.6849 59.3237 19.1744 57.8773 19.8123 56.2867C20.4502 54.6962 21.8186 54.0033 23.3068 54.6001C24.7765 55.1895 25.2962 56.6397 24.6583 58.2302ZM23.4212 57.7341C23.798 56.7946 23.5695 56.3143 22.751 55.986C21.9325 55.6578 21.4168 55.8397 21.0401 56.7791C20.6596 57.7279 20.9104 58.2064 21.7289 58.5346C22.5474 58.8629 23.0407 58.6828 23.4212 57.7341Z" fill="white"/>
<path d="M27.3272 52.1181L26.6271 53.4483L20.6852 50.3213L21.3853 48.9911L27.3272 52.1181Z" fill="white"/>
<path d="M24.6361 45.6755L23.8453 46.9539L22.8396 46.3317L23.6305 45.0533L24.6361 45.6755ZM29.3406 48.5858L28.5497 49.8642L24.2799 47.2227L25.0708 45.9444L29.3406 48.5858Z" fill="white"/>
<path d="M32.4044 44.2614C31.359 45.6193 29.846 45.9089 28.5913 44.943C27.3208 43.9648 27.2218 42.4342 28.2672 41.0763C29.3126 39.7184 30.8176 39.4227 32.0882 40.4008C33.3428 41.3667 33.4498 42.9035 32.4044 44.2614ZM31.3482 43.4483C31.9657 42.6463 31.8761 42.122 31.1773 41.584C30.4785 41.046 29.9328 41.0812 29.3154 41.8833C28.6918 42.6932 28.8034 43.2218 29.5022 43.7598C30.201 44.2978 30.7247 44.2583 31.3482 43.4483Z" fill="white"/>
<path d="M41.9295 34.0921L37.4725 38.0532L36.8334 37.3341C36.0478 36.4502 36.0238 35.6537 36.7671 34.363L37.6827 32.7984C37.9923 32.2417 38.024 31.9454 37.731 31.6158C37.3915 31.2338 36.9887 31.203 36.1647 31.9353C35.2434 32.7541 35.2125 33.2776 35.7052 33.8319L35.7917 33.9293L34.6906 34.9079L34.604 34.8105C33.7386 33.8367 33.6197 32.3603 35.2901 30.8757C36.8033 29.531 38.03 29.6742 38.8755 30.6255C39.6677 31.5169 39.4762 32.4782 38.8045 33.5176L37.9771 34.7892C37.6234 35.3717 37.5177 35.7204 37.8705 36.1174L39.0682 34.8251L41.0308 33.0808L41.9295 34.0921Z" fill="white"/>
<path d="M46.6324 30.7539C44.8193 31.9365 43.0758 31.4465 41.9316 29.6922C40.7928 27.9463 41.0416 26.1448 42.8546 24.9622C44.6593 23.7851 46.4166 24.278 47.5554 26.0239C48.6997 27.7782 48.437 29.5768 46.6324 30.7539ZM45.833 29.5284C46.899 28.8331 46.9924 28.1141 46.204 26.9054C45.4156 25.6967 44.72 25.4924 43.654 26.1877C42.5796 26.8885 42.4946 27.602 43.283 28.8107C44.0714 30.0194 44.7586 30.2292 45.833 29.5284Z" fill="white"/>
<path d="M56.8426 25.1377L51.4189 27.6156L51.0191 26.7405C50.5277 25.6649 50.7386 24.8965 51.8281 23.8809L53.1627 22.6541C53.6222 22.2129 53.7395 21.9389 53.5562 21.5379C53.3438 21.073 52.9678 20.9252 51.9652 21.3833C50.844 21.8956 50.6608 22.3869 50.969 23.0614L51.0231 23.1799L49.6831 23.7921L49.629 23.6736C49.0876 22.4886 49.4075 21.0424 51.4402 20.1137C53.2815 19.2725 54.4121 19.7696 54.941 20.9273C55.4365 22.012 54.9712 22.8746 54.0239 23.671L52.8597 24.6436C52.3505 25.0966 52.147 25.3989 52.3677 25.882L53.8921 24.9983L56.2803 23.9072L56.8426 25.1377Z" fill="white"/>
<path d="M62.2253 23.3621C60.2024 23.9425 58.9465 23.5626 58.5403 22.1465L58.5154 22.0598L60.0085 21.6314L60.0334 21.7181C60.1909 22.2672 60.6425 22.3879 61.8659 22.0368C62.9737 21.719 63.2362 21.3622 63.0345 20.659C62.83 19.9461 62.4182 19.7828 61.32 20.0979C60.4338 20.3521 59.9826 20.5963 59.8481 20.9998L59.7394 21.0205L59.7421 21.0302L58.3728 21.3814L57.6776 17.5773L62.9949 16.0516L63.3681 17.3521L59.3319 18.5101L59.6133 20.2539L59.7027 20.2387C59.8261 19.7967 60.3746 19.1284 61.5787 18.783C63.1682 18.3269 64.1792 18.8709 64.5606 20.2002C64.9613 21.597 64.2771 22.7734 62.2253 23.3621Z" fill="white"/>
<path d="M72.5469 21.1474L70.6249 21.3631L70.4292 19.6203L72.3513 19.4046L72.5469 21.1474Z" fill="white"/>
</svg>
